font.ufo
<glyph name="exclam" format="1">
  <advance width="303"/>
  <unicode hex="0021"/>
  <outline>
    <contour>
      <point x="217" y="229" type="line"/>
      <point x="232" y="722" type="line"/>
      <point x="70" y="722" type="line"/>
      <point x="86" y="229" type="line"/>
    </contour>
    <contour>
      <point x="236" y="64" type="curve"/>
      <point x="236" y="114"/>
      <point x="200" y="138"/>
      <point x="150" y="138" type="curve"/>
      <point x="100" y="138"/>
      <point x="67" y="111"/>
      <point x="67" y="64" type="curve"/>
      <point x="236" y="64"/>
      <point x="67" y="64"/>
      <point x="236" y="64" type="curve"/>
      <point x="236" y="12"/>
      <point x="200" y="-10"/>
      <point x="150" y="-10" type="curve"/>
      <point x="99" y="-10"/>
      <point x="67" y="15"/>
      <point x="67" y="64" type="curve"/>
      <point x="236" y="64"/>
      <point x="67" y="64"/>
    </contour>
  </outline>
</glyph>
<glyph name="dollar" format="1">
  <advance width="642"/>
  <unicode hex="0024"/>
  <outline>
    <contour>
      <point x="181" y="91" type="curve"/>
      <point x="181" y="211"/>
      <point x="181" y="107"/>
      <point x="181" y="227" type="curve"/>
      <point x="64" y="227"/>
      <point x="181" y="227"/>
      <point x="64" y="227" type="curve"/>
      <point x="64" y="107"/>
      <point x="64" y="211"/>
      <point x="64" y="91" type="curve"/>
      <point x="181" y="91"/>
      <point x="64" y="91"/>
    </contour>
    <contour>
      <point x="436" y="636" type="curve"/>
      <point x="436" y="516"/>
      <point x="436" y="620"/>
      <point x="436" y="500" type="curve"/>
      <point x="553" y="500"/>
      <point x="436" y="500"/>
      <point x="553" y="500" type="curve"/>
      <point x="553" y="620"/>
      <point x="553" y="516"/>
      <point x="553" y="636" type="curve"/>
      <point x="436" y="636"/>
      <point x="553" y="636"/>
    </contour>
    <contour>
      <point x="379" y="-40" type="curve"/>
      <point x="379" y="-10"/>
      <point x="379" y="69"/>
      <point x="379" y="99" type="curve"/>
      <point x="226" y="99"/>
      <point x="379" y="99"/>
      <point x="226" y="99" type="curve"/>
      <point x="226" y="69"/>
      <point x="226" y="-10"/>
      <point x="226" y="-40" type="curve"/>
      <point x="379" y="-40"/>
      <point x="226" y="-40"/>
    </contour>
    <contour>
      <point x="391" y="630" type="curve"/>
      <point x="391" y="660"/>
      <point x="391" y="744"/>
      <point x="391" y="773" type="curve"/>
      <point x="239" y="773"/>
      <point x="391" y="773"/>
      <point x="239" y="773" type="curve"/>
      <point x="239" y="744"/>
      <point x="239" y="660"/>
      <point x="239" y="630" type="curve"/>
      <point x="391" y="630"/>
      <point x="239" y="630"/>
    </contour>
    <contour>
      <point x="64" y="91" type="curve"/>
      <point x="129" y="64"/>
      <point x="207" y="41"/>
      <point x="295" y="41" type="curve"/>
      <point x="463" y="41"/>
      <point x="602" y="89"/>
      <point x="602" y="222" type="curve"/>
      <point x="602" y="336"/>
      <point x="486" y="379"/>
      <point x="362" y="425" type="curve"/>
      <point x="287" y="451"/>
      <point x="212" y="465"/>
      <point x="212" y="519" type="curve"/>
      <point x="212" y="561"/>
      <point x="260" y="575"/>
      <point x="317" y="575" type="curve"/>
      <point x="379" y="575"/>
      <point x="422" y="563"/>
      <point x="477" y="539" type="curve"/>
      <point x="553" y="636"/>
      <point x="477" y="539"/>
      <point x="553" y="636" type="curve"/>
      <point x="475" y="670"/>
      <point x="412" y="688"/>
      <point x="324" y="688" type="curve"/>
      <point x="176" y="688"/>
      <point x="60" y="638"/>
      <point x="60" y="519" type="curve"/>
      <point x="60" y="409"/>
      <point x="154" y="365"/>
      <point x="272" y="322" type="curve"/>
      <point x="355" y="293"/>
      <point x="450" y="279"/>
      <point x="450" y="217" type="curve"/>
      <point x="450" y="163"/>
      <point x="383" y="155"/>
      <point x="309" y="155" type="curve"/>
      <point x="247" y="155"/>
      <point x="192" y="175"/>
      <point x="146" y="193" type="curve"/>
      <point x="64" y="90"/>
      <point x="146" y="193"/>
    </contour>
  </outline>
</glyph>
<glyph name="parenleft" format="1">
  <advance width="419"/>
  <unicode hex="0028"/>
  <outline>
    <contour>
      <point x="416" y="-203" type="curve"/>
      <point x="258" y="-50"/>
      <point x="191" y="104"/>
      <point x="191" y="326" type="curve"/>
      <point x="191" y="549"/>
      <point x="258" y="702"/>
      <point x="415" y="859" type="curve"/>
      <point x="325" y="932"/>
      <point x="415" y="859"/>
      <point x="325" y="932" type="curve"/>
      <point x="139" y="753"/>
      <point x="42" y="586"/>
      <point x="42" y="326" type="curve"/>
      <point x="42" y="65"/>
      <point x="140" y="-102"/>
      <point x="326" y="-283" type="curve"/>
      <point x="416" y="-203"/>
      <point x="326" y="-283"/>
    </contour>
  </outline>
</glyph>
<glyph name="parenright" format="1">
  <advance width="423"/>
  <unicode hex="0029"/>
  <outline>
    <contour>
      <point x="84" y="-296" type="curve"/>
      <point x="274" y="-108"/>
      <point x="383" y="60"/>
      <point x="383" y="329" type="curve"/>
      <point x="383" y="592"/>
      <point x="281" y="758"/>
      <point x="88" y="935" type="curve"/>
      <point x="-1" y="855"/>
      <point x="88" y="935"/>
      <point x="-1" y="855" type="curve"/>
      <point x="160" y="700"/>
      <point x="233" y="549"/>
      <point x="233" y="324" type="curve"/>
      <point x="233" y="95"/>
      <point x="151" y="-58"/>
      <point x="-6" y="-223" type="curve"/>
      <point x="84" y="-296"/>
      <point x="-6" y="-223"/>
    </contour>
  </outline>
</glyph>
<glyph name="asterisk" format="1">
  <advance width="560"/>
  <unicode hex="002A"/>
  <outline>
    <contour>
      <point x="330" y="578" type="line"/>
      <point x="337" y="805" type="line"/>
      <point x="223" y="805" type="line"/>
      <point x="230" y="578" type="line"/>
    </contour>
    <contour>
      <point x="297" y="530" type="line"/>
      <point x="514" y="601" type="line"/>
      <point x="474" y="709" type="line"/>
      <point x="263" y="624" type="line"/>
    </contour>
    <contour>
      <point x="242" y="545" type="line"/>
      <point x="383" y="366" type="line"/>
      <point x="470" y="440" type="line"/>
      <point x="318" y="609" type="line"/>
    </contour>
    <contour>
      <point x="242" y="610" type="line"/>
      <point x="90" y="440" type="line"/>
      <point x="177" y="367" type="line"/>
      <point x="318" y="546" type="line"/>
    </contour>
    <contour>
      <point x="297" y="624" type="line"/>
      <point x="86" y="709" type="line"/>
      <point x="47" y="602" type="line"/>
      <point x="263" y="531" type="line"/>
    </contour>
  </outline>
</glyph>
<glyph name="slash" format="1">
  <advance width="648"/>
  <unicode hex="002F"/>
  <outline>
    <contour>
      <point x="179" y="-11" type="curve"/>
      <point x="326" y="253"/>
      <point x="474" y="516"/>
      <point x="622" y="779" type="curve"/>
      <point x="470" y="779"/>
      <point x="622" y="779"/>
      <point x="470" y="779" type="curve"/>
      <point x="322" y="516"/>
      <point x="174" y="253"/>
      <point x="26" y="-11" type="curve"/>
      <point x="179" y="-11"/>
      <point x="26" y="-11"/>
    </contour>
  </outline>
</glyph>
<glyph name="two" format="1">
  <advance width="680"/>
  <unicode hex="0032"/>
  <outline>
    <contour>
      <point x="620" y="114" type="curve"/>
      <point x="620" y="222"/>
      <point x="620" y="106"/>
      <point x="620" y="215" type="curve"/>
      <point x="502" y="215"/>
      <point x="620" y="215"/>
      <point x="502" y="215" type="curve"/>
      <point x="502" y="106"/>
      <point x="502" y="222"/>
      <point x="502" y="114" type="curve"/>
      <point x="620" y="114"/>
      <point x="502" y="114"/>
    </contour>
    <contour>
      <point x="51" y="0" type="curve"/>
      <point x="278" y="0"/>
      <point x="467" y="0"/>
      <point x="620" y="0" type="curve"/>
      <point x="620" y="114"/>
      <point x="620" y="0"/>
      <point x="620" y="114" type="curve"/>
      <point x="442" y="114"/>
      <point x="229" y="114"/>
      <point x="51" y="114" type="curve"/>
      <point x="51" y="0"/>
      <point x="51" y="114"/>
    </contour>
    <contour>
      <point x="155" y="510" type="curve"/>
      <point x="209" y="571"/>
      <point x="247" y="608"/>
      <point x="317" y="608" type="curve"/>
      <point x="388" y="608"/>
      <point x="433" y="574"/>
      <point x="433" y="501" type="curve"/>
      <point x="433" y="406"/>
      <point x="362" y="351"/>
      <point x="278" y="288" type="curve"/>
      <point x="203" y="229"/>
      <point x="129" y="174"/>
      <point x="51" y="114" type="curve"/>
      <point x="51" y="0"/>
      <point x="51" y="114"/>
      <point x="51" y="0" type="curve"/>
      <point x="210" y="61"/>
      <point x="290" y="134"/>
      <point x="374" y="200" type="curve"/>
      <point x="491" y="288"/>
      <point x="573" y="361"/>
      <point x="573" y="507" type="curve"/>
      <point x="573" y="656"/>
      <point x="475" y="727"/>
      <point x="323" y="727" type="curve"/>
      <point x="202" y="727"/>
      <point x="113" y="676"/>
      <point x="54" y="576" type="curve"/>
      <point x="155" y="510"/>
      <point x="54" y="576"/>
    </contour>
  </outline>
</glyph>
<glyph name="three" format="1">
  <advance width="608"/>
  <unicode hex="0033"/>
  <outline>
    <contour>
      <point x="43" y="56" type="curve"/>
      <point x="97" y="21"/>
      <point x="169" y="-5"/>
      <point x="256" y="-5" type="curve"/>
      <point x="429" y="-5"/>
      <point x="554" y="53"/>
      <point x="554" y="219" type="curve"/>
      <point x="554" y="359"/>
      <point x="396" y="415"/>
      <point x="175" y="415" type="curve"/>
      <point x="175" y="319"/>
      <point x="175" y="415"/>
      <point x="175" y="319" type="curve"/>
      <point x="295" y="319"/>
      <point x="408" y="290"/>
      <point x="408" y="214" type="curve"/>
      <point x="408" y="133"/>
      <point x="337" y="114"/>
      <point x="261" y="114" type="curve"/>
      <point x="219" y="114"/>
      <point x="166" y="126"/>
      <point x="115" y="150" type="curve"/>
      <point x="43" y="56"/>
      <point x="115" y="150"/>
    </contour>
    <contour>
      <point x="126" y="556" type="curve"/>
      <point x="154" y="581"/>
      <point x="204" y="608"/>
      <point x="253" y="608" type="curve"/>
      <point x="324" y="608"/>
      <point x="374" y="590"/>
      <point x="374" y="523" type="curve"/>
      <point x="374" y="455"/>
      <point x="280" y="430"/>
      <point x="175" y="430" type="curve"/>
      <point x="175" y="333"/>
      <point x="175" y="430"/>
      <point x="175" y="333" type="curve"/>
      <point x="366" y="333"/>
      <point x="519" y="388"/>
      <point x="519" y="528" type="curve"/>
      <point x="519" y="668"/>
      <point x="412" y="727"/>
      <point x="265" y="727" type="curve"/>
      <point x="170" y="727"/>
      <point x="84" y="687"/>
      <point x="43" y="638" type="curve"/>
      <point x="126" y="556"/>
      <point x="43" y="638"/>
    </contour>
  </outline>
</glyph>
<glyph name="four" format="1">
  <advance width="661"/>
  <unicode hex="0034"/>
  <outline>
    <contour>
      <point x="417" y="114" type="line"/>
      <point x="277" y="114" type="line"/>
      <point x="277" y="0" type="line"/>
      <point x="417" y="0" type="line"/>
    </contour>
    <contour>
      <point x="417" y="0" type="line"/>
      <point x="559" y="0" type="line"/>
      <point x="559" y="114" type="line"/>
      <point x="417" y="114" type="line"/>
    </contour>
    <contour>
      <point x="90" y="241" type="line"/>
      <point x="463" y="666" type="line"/>
      <point x="343" y="695" type="line"/>
      <point x="34" y="350" type="line"/>
    </contour>
    <contour>
      <point x="624" y="350" type="line"/>
      <point x="34" y="350" type="line"/>
      <point x="35" y="224" type="line"/>
      <point x="624" y="224" type="line"/>
    </contour>
    <contour>
      <point x="495" y="49" type="line"/>
      <point x="495" y="695" type="line"/>
      <point x="344" y="695" type="line"/>
      <point x="344" y="49" type="line"/>
    </contour>
  </outline>
</glyph>
<glyph name="eight" format="1">
  <advance width="670"/>
  <unicode hex="0038"/>
  <outline>
    <contour>
      <point x="79" y="535" type="curve"/>
      <point x="79" y="415"/>
      <point x="176" y="386"/>
      <point x="291" y="338" type="curve"/>
      <point x="381" y="301"/>
      <point x="459" y="283"/>
      <point x="459" y="196" type="curve"/>
      <point x="459" y="134"/>
      <point x="408" y="112"/>
      <point x="336" y="112" type="curve"/>
      <point x="263" y="112"/>
      <point x="211" y="133"/>
      <point x="211" y="196" type="curve"/>
      <point x="211" y="285"/>
      <point x="293" y="300"/>
      <point x="383" y="339" type="curve"/>
      <point x="495" y="388"/>
      <point x="591" y="415"/>
      <point x="591" y="533" type="curve"/>
      <point x="591" y="674"/>
      <point x="489" y="727"/>
      <point x="336" y="727" type="curve"/>
      <point x="186" y="727"/>
      <point x="79" y="672"/>
      <point x="79" y="535" type="curve"/>
      <point x="231" y="535"/>
      <point x="79" y="535"/>
      <point x="231" y="535" type="curve"/>
      <point x="231" y="587"/>
      <point x="271" y="610"/>
      <point x="330" y="610" type="curve"/>
      <point x="395" y="610"/>
      <point x="439" y="590"/>
      <point x="439" y="533" type="curve"/>
      <point x="439" y="458"/>
      <point x="366" y="449"/>
      <point x="289" y="417" type="curve"/>
      <point x="163" y="363"/>
      <point x="59" y="328"/>
      <point x="59" y="196" type="curve"/>
      <point x="59" y="50"/>
      <point x="170" y="-5"/>
      <point x="329" y="-5" type="curve"/>
      <point x="492" y="-5"/>
      <point x="611" y="47"/>
      <point x="611" y="196" type="curve"/>
      <point x="611" y="327"/>
      <point x="507" y="364"/>
      <point x="384" y="417" type="curve"/>
      <point x="305" y="451"/>
      <point x="231" y="460"/>
      <point x="231" y="535" type="curve"/>
      <point x="79" y="535"/>
      <point x="231" y="535"/>
    </contour>
  </outline>
</glyph>
<glyph name="nine" format="1">
  <advance width="678"/>
  <unicode hex="0039"/>
  <outline>
    <contour>
      <point x="506" y="488" type="curve"/>
      <point x="468" y="413"/>
      <point x="416" y="389"/>
      <point x="335" y="389" type="curve"/>
      <point x="255" y="389"/>
      <point x="200" y="425"/>
      <point x="200" y="501" type="curve"/>
      <point x="200" y="569"/>
      <point x="251" y="598"/>
      <point x="322" y="598" type="curve"/>
      <point x="418" y="598"/>
      <point x="480" y="554"/>
      <point x="480" y="461" type="curve"/>
      <point x="480" y="248"/>
      <point x="315" y="167"/>
      <point x="91" y="107" type="curve"/>
      <point x="135" y="-10"/>
      <point x="91" y="107"/>
      <point x="134" y="-10" type="curve"/>
      <point x="405" y="51"/>
      <point x="625" y="182"/>
      <point x="625" y="467" type="curve"/>
      <point x="625" y="641"/>
      <point x="507" y="734"/>
      <point x="328" y="734" type="curve"/>
      <point x="162" y="734"/>
      <point x="51" y="653"/>
      <point x="51" y="495" type="curve"/>
      <point x="51" y="344"/>
      <point x="161" y="269"/>
      <point x="321" y="269" type="curve"/>
      <point x="455" y="269"/>
      <point x="532" y="348"/>
      <point x="579" y="453" type="curve"/>
      <point x="506" y="488"/>
      <point x="579" y="453"/>
    </contour>
  </outline>
</glyph>
<glyph name="semicolon" format="1">
  <advance width="328"/>
  <unicode hex="003B"/>
  <outline>
    <contour>
      <point x="71" y="-193" type="line"/>
      <point x="186" y="-193"/>
      <point x="264" y="-120"/>
      <point x="264" y="-11" type="curve"/>
      <point x="264" y="73"/>
      <point x="223" y="129"/>
      <point x="163" y="129" type="curve"/>
      <point x="113" y="129"/>
      <point x="76" y="104"/>
      <point x="76" y="55" type="curve"/>
      <point x="76" y="10"/>
      <point x="109" y="-18"/>
      <point x="160" y="-18" type="curve"/>
      <point x="159" y="-56"/>
      <point x="147" y="-102"/>
      <point x="71" y="-113" type="curve"/>
    </contour>
    <contour>
      <point x="244" y="375" type="curve"/>
      <point x="244" y="426"/>
      <point x="208" y="450"/>
      <point x="158" y="450" type="curve"/>
      <point x="108" y="450"/>
      <point x="75" y="423"/>
      <point x="75" y="375" type="curve"/>
      <point x="244" y="375"/>
      <point x="75" y="375"/>
      <point x="244" y="375" type="curve"/>
      <point x="244" y="324"/>
      <point x="208" y="302"/>
      <point x="158" y="302" type="curve"/>
      <point x="107" y="302"/>
      <point x="75" y="327"/>
      <point x="75" y="375" type="curve"/>
      <point x="244" y="375"/>
      <point x="75" y="375"/>
    </contour>
  </outline>
</glyph>
<glyph name="greater" format="1">
  <advance width="751"/>
  <unicode hex="003E"/>
  <outline>
    <contour>
      <point x="77" y="-27" type="curve"/>
      <point x="288" y="63"/>
      <point x="500" y="153"/>
      <point x="712" y="243" type="curve"/>
      <point x="712" y="369"/>
      <point x="712" y="243"/>
      <point x="712" y="369" type="curve"/>
      <point x="500" y="279"/>
      <point x="288" y="189"/>
      <point x="77" y="99" type="curve"/>
      <point x="77" y="-27"/>
      <point x="77" y="99"/>
    </contour>
    <contour>
      <point x="67" y="507" type="curve"/>
      <point x="281" y="419"/>
      <point x="497" y="331"/>
      <point x="712" y="243" type="curve"/>
      <point x="712" y="369"/>
      <point x="712" y="243"/>
      <point x="712" y="369" type="curve"/>
      <point x="497" y="457"/>
      <point x="281" y="545"/>
      <point x="67" y="633" type="curve"/>
      <point x="67" y="507"/>
      <point x="67" y="633"/>
    </contour>
  </outline>
</glyph>
<glyph name="B" format="1">
  <advance width="762"/>
  <unicode hex="0042"/>
  <outline>
    <contour>
      <point x="221" y="722" type="curve"/>
      <point x="171" y="722"/>
      <point x="121" y="722"/>
      <point x="71" y="722" type="curve"/>
      <point x="71" y="608"/>
      <point x="71" y="722"/>
      <point x="71" y="608" type="curve"/>
      <point x="221" y="608"/>
      <point x="71" y="608"/>
      <point x="221" y="608" type="curve"/>
      <point x="221" y="722"/>
      <point x="221" y="608"/>
    </contour>
    <contour>
      <point x="220" y="114" type="curve"/>
      <point x="70" y="114"/>
      <point x="220" y="114"/>
      <point x="70" y="114" type="curve"/>
      <point x="70" y="0"/>
      <point x="70" y="114"/>
      <point x="70" y="0" type="curve"/>
      <point x="120" y="0"/>
      <point x="171" y="0"/>
      <point x="220" y="0" type="curve"/>
      <point x="220" y="114"/>
      <point x="220" y="0"/>
    </contour>
    <contour>
      <point x="210" y="608" type="curve"/>
      <point x="283" y="608"/>
      <point x="348" y="608"/>
      <point x="421" y="608" type="curve"/>
      <point x="476" y="608"/>
      <point x="511" y="583"/>
      <point x="511" y="532" type="curve"/>
      <point x="511" y="481"/>
      <point x="466" y="461"/>
      <point x="411" y="461" type="curve"/>
      <point x="342" y="461"/>
      <point x="280" y="461"/>
      <point x="210" y="461" type="curve"/>
      <point x="210" y="379"/>
      <point x="210" y="428"/>
      <point x="210" y="346" type="curve"/>
      <point x="257" y="346"/>
      <point x="299" y="346"/>
      <point x="347" y="346" type="curve"/>
      <point x="474" y="346"/>
      <point x="663" y="382"/>
      <point x="663" y="529" type="curve"/>
      <point x="663" y="660"/>
      <point x="566" y="722"/>
      <point x="426" y="722" type="curve"/>
      <point x="351" y="722"/>
      <point x="284" y="722"/>
      <point x="210" y="722" type="curve"/>
      <point x="210" y="640"/>
      <point x="210" y="690"/>
    </contour>
    <contour>
      <point x="301" y="0" type="curve"/>
      <point x="301" y="241"/>
      <point x="301" y="481"/>
      <point x="301" y="722" type="curve"/>
      <point x="142" y="722"/>
      <point x="301" y="722"/>
      <point x="142" y="722" type="curve"/>
      <point x="142" y="481"/>
      <point x="142" y="241"/>
      <point x="142" y="0" type="curve"/>
      <point x="301" y="0"/>
      <point x="142" y="0"/>
    </contour>
    <contour>
      <point x="210" y="346" type="curve"/>
      <point x="280" y="346"/>
      <point x="342" y="346"/>
      <point x="411" y="346" type="curve"/>
      <point x="500" y="346"/>
      <point x="560" y="309"/>
      <point x="560" y="227" type="curve"/>
      <point x="560" y="149"/>
      <point x="506" y="114"/>
      <point x="422" y="114" type="curve"/>
      <point x="348" y="114"/>
      <point x="283" y="114"/>
      <point x="210" y="114" type="curve"/>
      <point x="210" y="32"/>
      <point x="210" y="82"/>
      <point x="210" y="0" type="curve"/>
      <point x="285" y="0"/>
      <point x="351" y="0"/>
      <point x="427" y="0" type="curve"/>
      <point x="596" y="0"/>
      <point x="713" y="69"/>
      <point x="713" y="225" type="curve"/>
      <point x="713" y="407"/>
      <point x="510" y="461"/>
      <point x="347" y="461" type="curve"/>
      <point x="299" y="461"/>
      <point x="257" y="461"/>
      <point x="210" y="461" type="curve"/>
      <point x="210" y="379"/>
      <point x="210" y="428"/>
    </contour>
  </outline>
</glyph>
<glyph name="L" format="1">
  <advance width="652"/>
  <unicode hex="004C"/>
  <outline>
    <contour>
      <point x="195" y="780" type="move" name="top"/>
    </contour>
    <contour>
      <point x="388" y="6" type="move" name="bottom"/>
    </contour>
    <contour>
      <point x="634" y="57" type="curve"/>
      <point x="634" y="177"/>
      <point x="634" y="57"/>
      <point x="634" y="177" type="curve"/>
      <point x="516" y="177"/>
      <point x="634" y="177"/>
      <point x="516" y="177" type="curve"/>
      <point x="516" y="57"/>
      <point x="516" y="177"/>
      <point x="516" y="57" type="curve"/>
      <point x="634" y="57"/>
      <point x="516" y="57"/>
    </contour>
    <contour>
      <point x="195" y="114" type="curve"/>
      <point x="27" y="114"/>
      <point x="210" y="114"/>
      <point x="43" y="114" type="curve"/>
      <point x="43" y="0"/>
      <point x="43" y="114"/>
      <point x="43" y="0" type="curve"/>
      <point x="98" y="0"/>
      <point x="138" y="0"/>
      <point x="195" y="0" type="curve"/>
      <point x="195" y="114"/>
      <point x="195" y="0"/>
    </contour>
    <contour>
      <point x="195" y="722" type="curve"/>
      <point x="138" y="722"/>
      <point x="98" y="722"/>
      <point x="43" y="722" type="curve"/>
      <point x="43" y="608"/>
      <point x="43" y="722"/>
      <point x="43" y="608" type="curve"/>
      <point x="210" y="608"/>
      <point x="27" y="608"/>
      <point x="195" y="608" type="curve"/>
      <point x="195" y="722"/>
      <point x="195" y="608"/>
    </contour>
    <contour>
      <point x="195" y="608" type="curve"/>
      <point x="362" y="608"/>
      <point x="179" y="608"/>
      <point x="346" y="608" type="curve"/>
      <point x="346" y="722"/>
      <point x="346" y="608"/>
      <point x="346" y="722" type="curve"/>
      <point x="290" y="722"/>
      <point x="250" y="722"/>
      <point x="195" y="722" type="curve"/>
      <point x="195" y="608"/>
      <point x="195" y="722"/>
    </contour>
    <contour>
      <point x="271" y="0" type="curve"/>
      <point x="271" y="241"/>
      <point x="271" y="481"/>
      <point x="271" y="722" type="curve"/>
      <point x="119" y="722"/>
      <point x="271" y="722"/>
      <point x="119" y="722" type="curve"/>
      <point x="119" y="481"/>
      <point x="119" y="241"/>
      <point x="119" y="0" type="curve"/>
      <point x="271" y="0"/>
      <point x="119" y="0"/>
    </contour>
    <contour>
      <point x="195" y="0" type="curve"/>
      <point x="341" y="0"/>
      <point x="487" y="0"/>
      <point x="634" y="0" type="curve"/>
      <point x="634" y="114"/>
      <point x="634" y="0"/>
      <point x="634" y="114" type="curve"/>
      <point x="487" y="114"/>
      <point x="341" y="114"/>
      <point x="195" y="114" type="curve"/>
      <point x="195" y="0"/>
      <point x="195" y="114"/>
    </contour>
  </outline>
</glyph>
<glyph name="M" format="1">
  <advance width="1039"/>
  <unicode hex="004D"/>
  <outline>
    <contour>
      <point x="874" y="0" type="curve"/>
      <point x="928" y="0"/>
      <point x="966" y="0"/>
      <point x="1020" y="0" type="curve"/>
      <point x="1020" y="114"/>
      <point x="1020" y="0"/>
      <point x="1020" y="114" type="curve"/>
      <point x="858" y="114"/>
      <point x="1036" y="114"/>
      <point x="874" y="114" type="curve"/>
      <point x="874" y="0"/>
      <point x="874" y="114"/>
    </contour>
    <contour>
      <point x="874" y="114" type="curve"/>
      <point x="716" y="114"/>
      <point x="889" y="114"/>
      <point x="732" y="114" type="curve"/>
      <point x="732" y="0"/>
      <point x="732" y="114"/>
      <point x="732" y="0" type="curve"/>
      <point x="784" y="0"/>
      <point x="821" y="0"/>
      <point x="874" y="0" type="curve"/>
      <point x="874" y="114"/>
      <point x="874" y="0"/>
    </contour>
    <contour>
      <point x="168" y="114" type="curve"/>
      <point x="5" y="114"/>
      <point x="184" y="114"/>
      <point x="21" y="114" type="curve"/>
      <point x="21" y="0"/>
      <point x="21" y="114"/>
      <point x="21" y="0" type="curve"/>
      <point x="75" y="0"/>
      <point x="114" y="0"/>
      <point x="168" y="0" type="curve"/>
      <point x="168" y="114"/>
      <point x="168" y="0"/>
    </contour>
    <contour>
      <point x="223" y="722" type="curve"/>
      <point x="169" y="722"/>
      <point x="131" y="722"/>
      <point x="77" y="722" type="curve"/>
      <point x="76" y="608"/>
      <point x="77" y="722"/>
      <point x="76" y="608" type="curve"/>
      <point x="239" y="608"/>
      <point x="60" y="608"/>
      <point x="223" y="608" type="curve"/>
      <point x="223" y="722"/>
      <point x="223" y="608"/>
    </contour>
    <contour>
      <point x="816" y="608" type="curve"/>
      <point x="978" y="608"/>
      <point x="800" y="608"/>
      <point x="962" y="608" type="curve"/>
      <point x="962" y="722"/>
      <point x="962" y="608"/>
      <point x="962" y="722" type="curve"/>
      <point x="908" y="722"/>
      <point x="870" y="722"/>
      <point x="816" y="722" type="curve"/>
      <point x="816" y="608"/>
      <point x="816" y="722"/>
    </contour>
    <contour>
      <point x="168" y="0" type="curve"/>
      <point x="220" y="0"/>
      <point x="152" y="0"/>
      <point x="310" y="0" type="curve"/>
      <point x="310" y="114"/>
      <point x="310" y="0"/>
      <point x="310" y="114" type="curve"/>
      <point x="152" y="114"/>
      <point x="326" y="114"/>
      <point x="168" y="114" type="curve"/>
      <point x="168" y="0"/>
      <point x="168" y="114"/>
    </contour>
    <contour>
      <point x="959" y="0" type="curve"/>
      <point x="937" y="241"/>
      <point x="910" y="481"/>
      <point x="888" y="722" type="curve"/>
      <point x="750" y="722"/>
      <point x="888" y="722"/>
      <point x="750" y="722" type="curve"/>
      <point x="771" y="482"/>
      <point x="785" y="240"/>
      <point x="806" y="0" type="curve"/>
      <point x="959" y="0"/>
      <point x="806" y="0"/>
    </contour>
    <contour>
      <point x="232" y="0" type="curve"/>
      <point x="252" y="241"/>
      <point x="271" y="481"/>
      <point x="291" y="722" type="curve"/>
      <point x="151" y="722"/>
      <point x="291" y="722"/>
      <point x="151" y="722" type="curve"/>
      <point x="130" y="481"/>
      <point x="110" y="241"/>
      <point x="89" y="0" type="curve"/>
      <point x="232" y="0"/>
      <point x="89" y="0"/>
    </contour>
    <contour>
      <point x="587" y="0" type="curve"/>
      <point x="489" y="241"/>
      <point x="391" y="481"/>
      <point x="294" y="722" type="curve"/>
      <point x="153" y="722"/>
      <point x="294" y="722"/>
      <point x="153" y="722" type="curve"/>
      <point x="250" y="481"/>
      <point x="347" y="241"/>
      <point x="445" y="0" type="curve"/>
      <point x="587" y="0"/>
      <point x="445" y="0"/>
    </contour>
    <contour>
      <point x="596" y="0" type="curve"/>
      <point x="692" y="241"/>
      <point x="787" y="481"/>
      <point x="883" y="722" type="curve"/>
      <point x="742" y="722"/>
      <point x="883" y="722"/>
      <point x="742" y="722" type="curve"/>
      <point x="646" y="481"/>
      <point x="549" y="241"/>
      <point x="453" y="0" type="curve"/>
      <point x="596" y="0"/>
      <point x="453" y="0"/>
    </contour>
  </outline>
</glyph>
<glyph name="Q" format="1">
  <advance width="850"/>
  <unicode hex="0051"/>
  <outline>
    <contour>
      <point x="369" y="28" type="curve"/>
      <point x="492" y="-158"/>
      <point x="630" y="-210"/>
      <point x="841" y="-210" type="curve"/>
      <point x="841" y="-91"/>
      <point x="841" y="-210"/>
      <point x="841" y="-91" type="curve"/>
      <point x="689" y="-91"/>
      <point x="592" y="-51"/>
      <point x="499" y="85" type="curve"/>
      <point x="369" y="28"/>
      <point x="499" y="85"/>
    </contour>
    <contour>
      <point x="204" y="360" type="curve"/>
      <point x="204" y="506"/>
      <point x="283" y="603"/>
      <point x="423" y="603" type="curve"/>
      <point x="567" y="603"/>
      <point x="646" y="509"/>
      <point x="646" y="360" type="curve"/>
      <point x="646" y="213"/>
      <point x="571" y="114"/>
      <point x="431" y="114" type="curve"/>
      <point x="285" y="114"/>
      <point x="204" y="210"/>
      <point x="204" y="360" type="curve"/>
      <point x="52" y="360"/>
      <point x="204" y="360"/>
      <point x="52" y="360" type="curve"/>
      <point x="52" y="133"/>
      <point x="198" y="-5"/>
      <point x="423" y="-5" type="curve"/>
      <point x="652" y="-5"/>
      <point x="798" y="136"/>
      <point x="798" y="366" type="curve"/>
      <point x="798" y="593"/>
      <point x="657" y="732"/>
      <point x="432" y="732" type="curve"/>
      <point x="202" y="732"/>
      <point x="52" y="591"/>
      <point x="52" y="360" type="curve"/>
      <point x="204" y="360"/>
      <point x="52" y="360"/>
    </contour>
  </outline>
</glyph>
<glyph name="X" format="1">
  <advance width="771"/>
  <unicode hex="0058"/>
  <outline>
    <contour>
      <point x="174" y="0" type="curve"/>
      <point x="228" y="0"/>
      <point x="174" y="0"/>
      <point x="337" y="0" type="curve"/>
      <point x="337" y="114"/>
      <point x="337" y="0"/>
      <point x="337" y="114" type="curve"/>
      <point x="174" y="114"/>
      <point x="337" y="114"/>
      <point x="174" y="114" type="curve"/>
      <point x="174" y="0"/>
      <point x="174" y="114"/>
    </contour>
    <contour>
      <point x="165" y="114" type="curve"/>
      <point x="18" y="114"/>
      <point x="165" y="114"/>
      <point x="18" y="114" type="curve"/>
      <point x="17" y="0"/>
      <point x="18" y="114"/>
      <point x="17" y="0" type="curve"/>
      <point x="66" y="0"/>
      <point x="116" y="0"/>
      <point x="165" y="0" type="curve"/>
      <point x="165" y="114"/>
      <point x="165" y="0"/>
    </contour>
    <contour>
      <point x="602" y="0" type="curve"/>
      <point x="651" y="0"/>
      <point x="701" y="0"/>
      <point x="749" y="0" type="curve"/>
      <point x="749" y="114"/>
      <point x="749" y="0"/>
      <point x="749" y="114" type="curve"/>
      <point x="602" y="114"/>
      <point x="749" y="114"/>
      <point x="602" y="114" type="curve"/>
      <point x="602" y="0"/>
      <point x="602" y="114"/>
    </contour>
    <contour>
      <point x="593" y="114" type="curve"/>
      <point x="430" y="114"/>
      <point x="593" y="114"/>
      <point x="430" y="114" type="curve"/>
      <point x="430" y="0"/>
      <point x="430" y="114"/>
      <point x="430" y="0" type="curve"/>
      <point x="484" y="0"/>
      <point x="539" y="0"/>
      <point x="593" y="0" type="curve"/>
      <point x="593" y="114"/>
      <point x="593" y="0"/>
    </contour>
    <contour>
      <point x="576" y="608" type="curve"/>
      <point x="724" y="608"/>
      <point x="576" y="608"/>
      <point x="724" y="608" type="curve"/>
      <point x="724" y="722"/>
      <point x="724" y="608"/>
      <point x="724" y="722" type="curve"/>
      <point x="675" y="722"/>
      <point x="625" y="722"/>
      <point x="576" y="722" type="curve"/>
      <point x="576" y="608"/>
      <point x="576" y="722"/>
    </contour>
    <contour>
      <point x="584" y="722" type="curve"/>
      <point x="528" y="722"/>
      <point x="472" y="722"/>
      <point x="416" y="722" type="curve"/>
      <point x="416" y="608"/>
      <point x="416" y="722"/>
      <point x="416" y="608" type="curve"/>
      <point x="584" y="608"/>
      <point x="416" y="608"/>
      <point x="584" y="608" type="curve"/>
      <point x="584" y="722"/>
      <point x="584" y="608"/>
    </contour>
    <contour>
      <point x="199" y="722" type="curve"/>
      <point x="151" y="722"/>
      <point x="101" y="722"/>
      <point x="52" y="722" type="curve"/>
      <point x="52" y="608"/>
      <point x="52" y="722"/>
      <point x="52" y="608" type="curve"/>
      <point x="199" y="608"/>
      <point x="52" y="608"/>
      <point x="199" y="608" type="curve"/>
      <point x="199" y="722"/>
      <point x="199" y="608"/>
    </contour>
    <contour>
      <point x="192" y="608" type="curve"/>
      <point x="359" y="608"/>
      <point x="192" y="608"/>
      <point x="359" y="608" type="curve"/>
      <point x="359" y="722"/>
      <point x="359" y="608"/>
      <point x="359" y="722" type="curve"/>
      <point x="304" y="722"/>
      <point x="248" y="722"/>
      <point x="192" y="722" type="curve"/>
      <point x="192" y="608"/>
      <point x="192" y="722"/>
    </contour>
    <contour>
      <point x="555" y="722" type="curve"/>
      <point x="389" y="489"/>
      <point x="220" y="260"/>
      <point x="54" y="27" type="curve"/>
      <point x="203" y="27"/>
      <point x="54" y="0"/>
      <point x="203" y="0" type="curve"/>
      <point x="368" y="233"/>
      <point x="531" y="467"/>
      <point x="696" y="699" type="curve"/>
      <point x="555" y="699"/>
      <point x="696" y="722"/>
    </contour>
    <contour>
      <point x="81" y="699" type="curve"/>
      <point x="244" y="466"/>
      <point x="405" y="233"/>
      <point x="569" y="0" type="curve"/>
      <point x="718" y="0"/>
      <point x="569" y="18"/>
      <point x="718" y="18" type="curve"/>
      <point x="552" y="253"/>
      <point x="385" y="487"/>
      <point x="219" y="722" type="curve"/>
      <point x="81" y="722"/>
      <point x="219" y="699"/>
    </contour>
  </outline>
</glyph>
<glyph name="grave" format="1">
  <advance width="390"/>
  <unicode hex="0060"/>
  <outline>
    <contour>
      <point x="288" y="559" type="move" name="_top"/>
    </contour>
    <contour>
      <point x="370" y="559" type="line"/>
      <point x="252" y="725" type="line"/>
      <point x="59" y="725" type="line"/>
      <point x="220" y="559" type="line"/>
    </contour>
  </outline>
</glyph>
<glyph name="d" format="1">
  <advance width="735"/>
  <unicode hex="0064"/>
  <outline>
    <contour>
      <point x="546" y="800" type="curve"/>
      <point x="495" y="800"/>
      <point x="445" y="800"/>
      <point x="395" y="800" type="curve"/>
      <point x="395" y="686"/>
      <point x="395" y="800"/>
      <point x="395" y="686" type="curve"/>
      <point x="546" y="686"/>
      <point x="395" y="686"/>
      <point x="546" y="686" type="curve"/>
      <point x="546" y="799"/>
      <point x="546" y="687"/>
    </contour>
    <contour>
      <point x="547" y="0" type="curve"/>
      <point x="598" y="0"/>
      <point x="648" y="0"/>
      <point x="699" y="0" type="curve"/>
      <point x="699" y="114"/>
      <point x="699" y="0"/>
      <point x="699" y="114" type="curve"/>
      <point x="547" y="113"/>
      <point x="699" y="114"/>
      <point x="547" y="113" type="curve"/>
      <point x="547" y="-1"/>
      <point x="547" y="114"/>
    </contour>
    <contour>
      <point x="565" y="421" type="curve"/>
      <point x="499" y="495"/>
      <point x="408" y="536"/>
      <point x="310" y="536" type="curve"/>
      <point x="146" y="536"/>
      <point x="43" y="435"/>
      <point x="43" y="262" type="curve"/>
      <point x="43" y="91"/>
      <point x="148" y="-3"/>
      <point x="309" y="-3" type="curve"/>
      <point x="426" y="-3"/>
      <point x="509" y="50"/>
      <point x="567" y="139" type="curve"/>
      <point x="504" y="207"/>
      <point x="561" y="139"/>
      <point x="499" y="207" type="curve"/>
      <point x="454" y="144"/>
      <point x="404" y="111"/>
      <point x="333" y="111" type="curve"/>
      <point x="247" y="111"/>
      <point x="195" y="169"/>
      <point x="195" y="268" type="curve"/>
      <point x="195" y="366"/>
      <point x="251" y="422"/>
      <point x="338" y="422" type="curve"/>
      <point x="402" y="422"/>
      <point x="466" y="388"/>
      <point x="505" y="339" type="curve"/>
      <point x="569" y="415"/>
      <point x="501" y="346"/>
    </contour>
    <contour>
      <point x="626" y="0" type="curve"/>
      <point x="626" y="267"/>
      <point x="626" y="533"/>
      <point x="626" y="800" type="curve"/>
      <point x="467" y="800"/>
      <point x="626" y="800"/>
      <point x="467" y="800" type="curve"/>
      <point x="467" y="533"/>
      <point x="467" y="267"/>
      <point x="467" y="0" type="curve"/>
      <point x="626" y="0"/>
      <point x="467" y="0"/>
    </contour>
  </outline>
</glyph>
<glyph name="i" format="1">
  <advance width="350"/>
  <unicode hex="0069"/>
  <outline>
    <contour>
      <point x="178" y="610" type="move" name="top"/>
    </contour>
    <contour>
      <point x="249" y="9" type="move" name="bottom"/>
    </contour>
    <contour>
      <point x="181" y="114" type="curve"/>
      <point x="14" y="114"/>
      <point x="197" y="114"/>
      <point x="30" y="114" type="curve"/>
      <point x="29" y="0"/>
      <point x="30" y="114"/>
      <point x="29" y="0" type="curve"/>
      <point x="85" y="0"/>
      <point x="125" y="0"/>
      <point x="181" y="0" type="curve"/>
      <point x="181" y="114"/>
      <point x="181" y="0"/>
    </contour>
    <contour>
      <point x="181" y="0" type="curve"/>
      <point x="234" y="0"/>
      <point x="275" y="0"/>
      <point x="327" y="0" type="curve"/>
      <point x="327" y="114"/>
      <point x="327" y="0"/>
      <point x="327" y="114" type="curve"/>
      <point x="170" y="114"/>
      <point x="338" y="114"/>
      <point x="181" y="114" type="curve"/>
      <point x="181" y="0"/>
      <point x="181" y="114"/>
    </contour>
    <contour>
      <point x="181" y="533" type="curve"/>
      <point x="125" y="533"/>
      <point x="85" y="533"/>
      <point x="30" y="533" type="curve"/>
      <point x="29" y="419"/>
      <point x="30" y="533"/>
      <point x="29" y="419" type="curve"/>
      <point x="197" y="419"/>
      <point x="13" y="419"/>
      <point x="181" y="419" type="curve"/>
      <point x="181" y="533"/>
      <point x="181" y="419"/>
    </contour>
    <contour>
      <point x="261" y="0" type="curve"/>
      <point x="261" y="178"/>
      <point x="261" y="355"/>
      <point x="261" y="533" type="curve"/>
      <point x="102" y="533"/>
      <point x="261" y="533"/>
      <point x="102" y="533" type="curve"/>
      <point x="102" y="355"/>
      <point x="102" y="178"/>
      <point x="102" y="0" type="curve"/>
      <point x="261" y="0"/>
      <point x="102" y="0"/>
    </contour>
    <contour>
      <point x="264" y="682" type="curve"/>
      <point x="264" y="732"/>
      <point x="227" y="756"/>
      <point x="178" y="756" type="curve"/>
      <point x="128" y="756"/>
      <point x="94" y="730"/>
      <point x="94" y="682" type="curve"/>
      <point x="264" y="682"/>
      <point x="94" y="682"/>
      <point x="264" y="682" type="curve"/>
      <point x="264" y="631"/>
      <point x="227" y="609"/>
      <point x="177" y="609" type="curve"/>
      <point x="127" y="609"/>
      <point x="94" y="634"/>
      <point x="94" y="682" type="curve"/>
      <point x="264" y="682"/>
      <point x="94" y="682"/>
    </contour>
  </outline>
</glyph>
<glyph name="n" format="1">
  <advance width="723"/>
  <unicode hex="006E"/>
  <outline>
    <contour>
      <point x="380" y="610" type="move" name="top"/>
    </contour>
    <contour>
      <point x="399" y="25" type="move" name="bottom"/>
    </contour>
    <contour>
      <point x="223" y="253" type="curve"/>
      <point x="249" y="347"/>
      <point x="299" y="419"/>
      <point x="383" y="419" type="curve"/>
      <point x="453" y="419"/>
      <point x="491" y="377"/>
      <point x="491" y="306" type="curve"/>
      <point x="491" y="199"/>
      <point x="491" y="107"/>
      <point x="491" y="0" type="curve"/>
      <point x="589" y="0"/>
      <point x="545" y="0"/>
      <point x="643" y="0" type="curve"/>
      <point x="643" y="111"/>
      <point x="643" y="207"/>
      <point x="643" y="318" type="curve"/>
      <point x="643" y="459"/>
      <point x="571" y="538"/>
      <point x="427" y="538" type="curve"/>
      <point x="296" y="538"/>
      <point x="205" y="454"/>
      <point x="160" y="310" type="curve"/>
      <point x="195" y="270"/>
      <point x="188" y="294"/>
    </contour>
    <contour>
      <point x="566" y="0" type="curve"/>
      <point x="621" y="0"/>
      <point x="661" y="0"/>
      <point x="717" y="0" type="curve"/>
      <point x="717" y="114"/>
      <point x="717" y="0"/>
      <point x="717" y="114" type="curve"/>
      <point x="550" y="114"/>
      <point x="733" y="114"/>
      <point x="566" y="114" type="curve"/>
      <point x="566" y="0"/>
      <point x="566" y="114"/>
    </contour>
    <contour>
      <point x="179" y="114" type="curve"/>
      <point x="12" y="114"/>
      <point x="195" y="114"/>
      <point x="28" y="114" type="curve"/>
      <point x="28" y="0"/>
      <point x="28" y="114"/>
      <point x="28" y="0" type="curve"/>
      <point x="84" y="0"/>
      <point x="124" y="0"/>
      <point x="179" y="0" type="curve"/>
      <point x="179" y="114"/>
      <point x="179" y="0"/>
    </contour>
    <contour>
      <point x="179" y="0" type="curve"/>
      <point x="232" y="0"/>
      <point x="164" y="0"/>
      <point x="320" y="0" type="curve"/>
      <point x="320" y="114"/>
      <point x="320" y="0"/>
      <point x="320" y="114" type="curve"/>
      <point x="164" y="114"/>
      <point x="336" y="114"/>
      <point x="179" y="114" type="curve"/>
      <point x="179" y="0"/>
      <point x="179" y="114"/>
    </contour>
    <contour>
      <point x="256" y="0" type="curve"/>
      <point x="256" y="178"/>
      <point x="256" y="355"/>
      <point x="256" y="533" type="curve"/>
      <point x="103" y="533"/>
      <point x="256" y="533"/>
      <point x="103" y="533" type="curve"/>
      <point x="103" y="355"/>
      <point x="103" y="178"/>
      <point x="103" y="0" type="curve"/>
      <point x="256" y="0"/>
      <point x="103" y="0"/>
    </contour>
    <contour>
      <point x="179" y="533" type="curve"/>
      <point x="124" y="533"/>
      <point x="84" y="533"/>
      <point x="28" y="533" type="curve"/>
      <point x="28" y="419"/>
      <point x="28" y="533"/>
      <point x="28" y="419" type="curve"/>
      <point x="195" y="419"/>
      <point x="12" y="419"/>
      <point x="179" y="419" type="curve"/>
      <point x="179" y="533"/>
      <point x="179" y="419"/>
    </contour>
  </outline>
</glyph>
<glyph name="p" format="1">
  <advance width="709"/>
  <unicode hex="0070"/>
  <outline>
    <contour>
      <point x="158" y="-186" type="curve"/>
      <point x="-9" y="-186"/>
      <point x="174" y="-186"/>
      <point x="7" y="-186" type="curve"/>
      <point x="7" y="-300"/>
      <point x="7" y="-186"/>
      <point x="7" y="-300" type="curve"/>
      <point x="63" y="-300"/>
      <point x="102" y="-300"/>
      <point x="158" y="-300" type="curve"/>
      <point x="158" y="-186"/>
      <point x="158" y="-300"/>
    </contour>
    <contour>
      <point x="158" y="-300" type="curve"/>
      <point x="210" y="-300"/>
      <point x="247" y="-300"/>
      <point x="299" y="-300" type="curve"/>
      <point x="299" y="-186"/>
      <point x="299" y="-300"/>
      <point x="299" y="-186" type="curve"/>
      <point x="142" y="-186"/>
      <point x="315" y="-186"/>
      <point x="158" y="-186" type="curve"/>
      <point x="158" y="-300"/>
      <point x="158" y="-186"/>
    </contour>
    <contour>
      <point x="159" y="533" type="curve"/>
      <point x="103" y="533"/>
      <point x="64" y="533"/>
      <point x="8" y="533" type="curve"/>
      <point x="8" y="419"/>
      <point x="8" y="533"/>
      <point x="8" y="419" type="curve"/>
      <point x="175" y="419"/>
      <point x="-8" y="419"/>
      <point x="159" y="419" type="curve"/>
      <point x="159" y="533"/>
      <point x="159" y="419"/>
    </contour>
    <contour>
      <point x="190" y="288" type="curve"/>
      <point x="236" y="368"/>
      <point x="294" y="425"/>
      <point x="379" y="425" type="curve"/>
      <point x="473" y="425"/>
      <point x="516" y="358"/>
      <point x="516" y="262" type="curve"/>
      <point x="517" y="169"/>
      <point x="470" y="108"/>
      <point x="377" y="109" type="curve"/>
      <point x="305" y="109"/>
      <point x="247" y="135"/>
      <point x="193" y="181" type="curve"/>
      <point x="152" y="141"/>
      <point x="172" y="149"/>
      <point x="130" y="109" type="curve"/>
      <point x="202" y="36"/>
      <point x="289" y="-5"/>
      <point x="401" y="-5" type="curve"/>
      <point x="570" y="-5"/>
      <point x="668" y="103"/>
      <point x="668" y="268" type="curve"/>
      <point x="668" y="429"/>
      <point x="575" y="540"/>
      <point x="410" y="540" type="curve"/>
      <point x="288" y="540"/>
      <point x="204" y="474"/>
      <point x="139" y="374" type="curve"/>
      <point x="171" y="315"/>
      <point x="158" y="347"/>
    </contour>
    <contour>
      <point x="234" y="-300" type="curve"/>
      <point x="234" y="-22"/>
      <point x="234" y="255"/>
      <point x="234" y="533" type="curve"/>
      <point x="82" y="533"/>
      <point x="234" y="533"/>
      <point x="82" y="533" type="curve"/>
      <point x="82" y="255"/>
      <point x="82" y="-22"/>
      <point x="82" y="-300" type="curve"/>
      <point x="234" y="-300"/>
      <point x="82" y="-300"/>
    </contour>
  </outline>
</glyph>
<glyph name="t" format="1">
  <advance width="429"/>
  <unicode hex="0074"/>
  <outline>
    <contour>
      <point x="319" y="9" type="move" name="bottom"/>
    </contour>
    <contour>
      <point x="14" y="419" type="curve"/>
      <point x="393" y="419" type="line"/>
      <point x="393" y="533"/>
      <point x="393" y="419"/>
      <point x="393" y="533" type="curve"/>
      <point x="14" y="533" type="line"/>
      <point x="14" y="419"/>
      <point x="14" y="533"/>
    </contour>
    <contour>
      <point x="370" y="128" type="curve"/>
      <point x="346" y="117"/>
      <point x="329" y="113"/>
      <point x="304" y="113" type="curve"/>
      <point x="264" y="113"/>
      <point x="250" y="136"/>
      <point x="250" y="177" type="curve"/>
      <point x="250" y="687" type="line"/>
      <point x="183" y="645"/>
      <point x="165" y="642"/>
      <point x="98" y="600" type="curve"/>
      <point x="98" y="171" type="line"/>
      <point x="98" y="52"/>
      <point x="169" y="-6"/>
      <point x="286" y="-6" type="curve"/>
      <point x="342" y="-6"/>
      <point x="380" y="9"/>
      <point x="418" y="29" type="curve"/>
      <point x="370" y="128"/>
      <point x="418" y="29"/>
    </contour>
  </outline>
</glyph>
<glyph name="v" format="1">
  <advance width="693"/>
  <unicode hex="0076"/>
  <outline>
    <contour>
      <point x="143" y="533" type="curve"/>
      <point x="103" y="533"/>
      <point x="62" y="533"/>
      <point x="23" y="533" type="curve"/>
      <point x="23" y="419"/>
      <point x="23" y="533"/>
      <point x="23" y="419" type="curve"/>
      <point x="143" y="419"/>
      <point x="23" y="419"/>
      <point x="143" y="419" type="curve"/>
      <point x="143" y="533"/>
      <point x="143" y="419"/>
    </contour>
    <contour>
      <point x="143" y="419" type="curve"/>
      <point x="295" y="419"/>
      <point x="143" y="419"/>
      <point x="295" y="419" type="curve"/>
      <point x="295" y="533"/>
      <point x="295" y="419"/>
      <point x="295" y="533" type="curve"/>
      <point x="245" y="533"/>
      <point x="194" y="533"/>
      <point x="143" y="533" type="curve"/>
      <point x="143" y="419"/>
      <point x="143" y="533"/>
    </contour>
    <contour>
      <point x="557" y="533" type="curve"/>
      <point x="507" y="533"/>
      <point x="456" y="533"/>
      <point x="406" y="533" type="curve"/>
      <point x="406" y="419"/>
      <point x="406" y="533"/>
      <point x="406" y="419" type="curve"/>
      <point x="557" y="419"/>
      <point x="406" y="419"/>
      <point x="557" y="419" type="curve"/>
      <point x="557" y="533"/>
      <point x="557" y="419"/>
    </contour>
    <contour>
      <point x="557" y="419" type="curve"/>
      <point x="684" y="419"/>
      <point x="557" y="419"/>
      <point x="684" y="419" type="curve"/>
      <point x="684" y="533"/>
      <point x="684" y="419"/>
      <point x="684" y="533" type="curve"/>
      <point x="642" y="533"/>
      <point x="599" y="533"/>
      <point x="557" y="533" type="curve"/>
      <point x="557" y="419"/>
      <point x="557" y="533"/>
    </contour>
    <contour>
      <point x="45" y="533" type="curve"/>
      <point x="117" y="355"/>
      <point x="189" y="178"/>
      <point x="261" y="0" type="curve"/>
      <point x="409" y="0"/>
      <point x="261" y="0"/>
      <point x="409" y="0" type="curve"/>
      <point x="338" y="178"/>
      <point x="271" y="355"/>
      <point x="199" y="533" type="curve"/>
      <point x="45" y="533"/>
      <point x="199" y="533"/>
    </contour>
    <contour>
      <point x="502" y="533" type="curve"/>
      <point x="280" y="0" type="line"/>
      <point x="428" y="0"/>
      <point x="280" y="0"/>
      <point x="428" y="0" type="curve"/>
      <point x="505" y="178"/>
      <point x="580" y="355"/>
      <point x="656" y="533" type="curve"/>
      <point x="502" y="533"/>
      <point x="656" y="533"/>
    </contour>
  </outline>
</glyph>
<glyph name="y" format="1">
  <advance width="722"/>
  <unicode hex="0079"/>
  <outline>
    <contour>
      <point x="365" y="610" type="move" name="top"/>
    </contour>
    <contour>
      <point x="236" y="-185" type="curve"/>
      <point x="120" y="-186"/>
      <point x="236" y="-185"/>
      <point x="120" y="-186" type="curve"/>
      <point x="120" y="-300"/>
      <point x="120" y="-186"/>
      <point x="120" y="-300" type="curve"/>
      <point x="159" y="-300"/>
      <point x="197" y="-300"/>
      <point x="236" y="-300" type="curve"/>
      <point x="236" y="-185"/>
      <point x="236" y="-300"/>
    </contour>
    <contour>
      <point x="162" y="533" type="curve"/>
      <point x="116" y="533"/>
      <point x="68" y="533"/>
      <point x="21" y="533" type="curve"/>
      <point x="21" y="419"/>
      <point x="21" y="533"/>
      <point x="21" y="419" type="curve"/>
      <point x="162" y="420"/>
      <point x="21" y="419"/>
      <point x="162" y="420" type="curve"/>
      <point x="162" y="533"/>
      <point x="162" y="420"/>
    </contour>
    <contour>
      <point x="162" y="420" type="curve"/>
      <point x="319" y="419"/>
      <point x="162" y="420"/>
      <point x="319" y="419" type="curve"/>
      <point x="319" y="533"/>
      <point x="319" y="419"/>
      <point x="319" y="533" type="curve"/>
      <point x="267" y="533"/>
      <point x="215" y="533"/>
      <point x="162" y="533" type="curve"/>
      <point x="162" y="420"/>
      <point x="162" y="533"/>
    </contour>
    <contour>
      <point x="581" y="533" type="curve"/>
      <point x="525" y="533"/>
      <point x="469" y="533"/>
      <point x="413" y="533" type="curve"/>
      <point x="413" y="419"/>
      <point x="413" y="533"/>
      <point x="413" y="419" type="curve"/>
      <point x="581" y="420"/>
      <point x="413" y="419"/>
      <point x="581" y="420" type="curve"/>
      <point x="581" y="533"/>
      <point x="581" y="420"/>
    </contour>
    <contour>
      <point x="581" y="420" type="curve"/>
      <point x="712" y="419"/>
      <point x="581" y="420"/>
      <point x="712" y="419" type="curve"/>
      <point x="712" y="533"/>
      <point x="712" y="419"/>
      <point x="712" y="533" type="curve"/>
      <point x="668" y="533"/>
      <point x="624" y="533"/>
      <point x="581" y="533" type="curve"/>
      <point x="581" y="420"/>
      <point x="581" y="533"/>
    </contour>
    <contour>
      <point x="420" y="-16" type="curve"/>
      <point x="392" y="72"/>
      <point x="234" y="445"/>
      <point x="206" y="533" type="curve"/>
      <point x="50" y="533"/>
      <point x="206" y="533"/>
      <point x="50" y="533" type="curve"/>
      <point x="81" y="446"/>
      <point x="253" y="63"/>
      <point x="284" y="-23" type="curve"/>
      <point x="420" y="-23"/>
      <point x="284" y="-16"/>
    </contour>
    <contour>
      <point x="301" y="-300" type="curve"/>
      <point x="348" y="-169"/>
      <point x="639" y="402"/>
      <point x="686" y="533" type="curve"/>
      <point x="532" y="533"/>
      <point x="686" y="533"/>
      <point x="532" y="533" type="curve"/>
      <point x="484" y="402"/>
      <point x="193" y="-169"/>
      <point x="145" y="-300" type="curve"/>
      <point x="301" y="-300"/>
      <point x="145" y="-300"/>
    </contour>
  </outline>
</glyph>
<glyph name="guillemotleft" format="1">
  <advance width="588"/>
  <unicode hex="00AB"/>
  <outline>
    <contour>
      <point x="266" y="485" type="curve"/>
      <point x="207" y="451"/>
      <point x="107" y="389"/>
      <point x="48" y="355" type="curve"/>
      <point x="48" y="229"/>
      <point x="48" y="345"/>
      <point x="48" y="220" type="curve"/>
      <point x="107" y="255"/>
      <point x="207" y="321"/>
      <point x="266" y="356" type="curve"/>
      <point x="266" y="481"/>
      <point x="266" y="361"/>
    </contour>
    <contour>
      <point x="266" y="222" type="curve"/>
      <point x="207" y="256"/>
      <point x="107" y="320"/>
      <point x="48" y="355" type="curve"/>
      <point x="48" y="229"/>
      <point x="48" y="345"/>
      <point x="48" y="220" type="curve"/>
      <point x="107" y="185"/>
      <point x="207" y="126"/>
      <point x="266" y="92" type="curve"/>
      <point x="266" y="217"/>
      <point x="266" y="96"/>
    </contour>
    <contour>
      <point x="515" y="485" type="curve"/>
      <point x="456" y="451"/>
      <point x="356" y="389"/>
      <point x="296" y="355" type="curve"/>
      <point x="296" y="229"/>
      <point x="296" y="345"/>
      <point x="296" y="220" type="curve"/>
      <point x="356" y="255"/>
      <point x="456" y="321"/>
      <point x="515" y="356" type="curve"/>
      <point x="515" y="481"/>
      <point x="515" y="361"/>
    </contour>
    <contour>
      <point x="515" y="222" type="curve"/>
      <point x="456" y="256"/>
      <point x="356" y="320"/>
      <point x="296" y="355" type="curve"/>
      <point x="296" y="229"/>
      <point x="296" y="345"/>
      <point x="296" y="220" type="curve"/>
      <point x="356" y="185"/>
      <point x="456" y="126"/>
      <point x="515" y="92" type="curve"/>
      <point x="515" y="217"/>
      <point x="515" y="96"/>
    </contour>
  </outline>
</glyph>
<glyph name="degree" format="1">
  <advance width="543"/>
  <unicode hex="00B0"/>
  <outline>
    <contour>
      <point x="487" y="550" type="curve"/>
      <point x="487" y="674"/>
      <point x="400" y="744"/>
      <point x="272" y="744" type="curve"/>
      <point x="144" y="744"/>
      <point x="56" y="675"/>
      <point x="56" y="551" type="curve"/>
      <point x="152" y="551"/>
      <point x="90" y="551"/>
      <point x="186" y="551" type="curve"/>
      <point x="186" y="603"/>
      <point x="217" y="636"/>
      <point x="270" y="636" type="curve"/>
      <point x="322" y="636"/>
      <point x="355" y="604"/>
      <point x="355" y="550" type="curve"/>
      <point x="355" y="496"/>
      <point x="325" y="461"/>
      <point x="272" y="461" type="curve"/>
      <point x="218" y="461"/>
      <point x="186" y="497"/>
      <point x="186" y="551" type="curve"/>
      <point x="90" y="551"/>
      <point x="152" y="551"/>
      <point x="56" y="551" type="curve"/>
      <point x="56" y="426"/>
      <point x="142" y="354"/>
      <point x="270" y="354" type="curve"/>
      <point x="399" y="354"/>
      <point x="487" y="425"/>
    </contour>
  </outline>
</glyph>
<glyph name="acute" format="1">
  <advance width="544"/>
  <unicode hex="00B4"/>
  <outline>
    <contour>
      <point x="143" y="589" type="move" name="_top"/>
    </contour>
    <contour>
      <point x="207" y="588" type="line"/>
      <point x="368" y="754" type="line"/>
      <point x="175" y="754" type="line"/>
      <point x="59" y="588" type="line"/>
    </contour>
  </outline>
</glyph>
<glyph name="paragraph" format="1">
  <advance width="890"/>
  <unicode hex="00B6"/>
  <outline>
    <contour>
      <point x="491" y="608" type="curve"/>
      <point x="659" y="608"/>
      <point x="491" y="608"/>
      <point x="659" y="608" type="curve"/>
      <point x="659" y="722"/>
      <point x="659" y="608"/>
      <point x="659" y="722" type="curve"/>
      <point x="603" y="722"/>
      <point x="547" y="722"/>
      <point x="491" y="722" type="curve"/>
      <point x="491" y="608"/>
      <point x="491" y="722"/>
    </contour>
    <contour>
      <point x="491" y="0" type="curve"/>
      <point x="547" y="0"/>
      <point x="603" y="0"/>
      <point x="659" y="0" type="curve"/>
      <point x="659" y="114"/>
      <point x="659" y="0"/>
      <point x="659" y="114" type="curve"/>
      <point x="491" y="114"/>
      <point x="659" y="114"/>
      <point x="491" y="114" type="curve"/>
      <point x="491" y="0"/>
      <point x="491" y="114"/>
    </contour>
    <contour>
      <point x="491" y="114" type="curve"/>
      <point x="324" y="114"/>
      <point x="491" y="114"/>
      <point x="324" y="114" type="curve"/>
      <point x="324" y="0"/>
      <point x="324" y="114"/>
      <point x="324" y="0" type="curve"/>
      <point x="491" y="0"/>
      <point x="435" y="0"/>
      <point x="491" y="0" type="curve"/>
      <point x="491" y="114"/>
      <point x="491" y="0"/>
    </contour>
    <contour>
      <point x="465" y="391" type="curve"/>
      <point x="415" y="370"/>
      <point x="377" y="358"/>
      <point x="322" y="358" type="curve"/>
      <point x="244" y="358"/>
      <point x="190" y="397"/>
      <point x="190" y="473" type="curve"/>
      <point x="190" y="567"/>
      <point x="266" y="608"/>
      <point x="366" y="608" type="curve"/>
      <point x="407" y="608"/>
      <point x="448" y="608"/>
      <point x="488" y="608" type="curve"/>
      <point x="488" y="722"/>
      <point x="488" y="608"/>
      <point x="488" y="722" type="curve"/>
      <point x="441" y="722"/>
      <point x="394" y="722"/>
      <point x="346" y="722" type="curve"/>
      <point x="171" y="722"/>
      <point x="38" y="641"/>
      <point x="38" y="478" type="curve"/>
      <point x="38" y="322"/>
      <point x="166" y="249"/>
      <point x="335" y="247" type="curve"/>
      <point x="401" y="247"/>
      <point x="455" y="267"/>
      <point x="514" y="292" type="curve"/>
      <point x="465" y="391"/>
      <point x="513" y="294"/>
    </contour>
    <contour>
      <point x="568" y="0" type="curve"/>
      <point x="568" y="241"/>
      <point x="568" y="481"/>
      <point x="568" y="722" type="curve"/>
      <point x="416" y="722"/>
      <point x="568" y="722"/>
      <point x="416" y="722" type="curve"/>
      <point x="416" y="481"/>
      <point x="416" y="241"/>
      <point x="416" y="0" type="curve"/>
      <point x="568" y="0"/>
      <point x="416" y="0"/>
    </contour>
    <contour>
      <point x="805" y="0" type="curve"/>
      <point x="805" y="241"/>
      <point x="805" y="481"/>
      <point x="805" y="722" type="curve"/>
      <point x="653" y="722"/>
      <point x="805" y="722"/>
      <point x="653" y="722" type="curve"/>
      <point x="653" y="481"/>
      <point x="653" y="241"/>
      <point x="653" y="0" type="curve"/>
      <point x="805" y="0"/>
      <point x="653" y="0"/>
    </contour>
  </outline>
</glyph>
<glyph name="ordmasculine" format="1">
  <advance width="480"/>
  <unicode hex="00BA"/>
  <outline>
    <contour>
      <point x="141" y="600" type="curve"/>
      <point x="141" y="660"/>
      <point x="173" y="704"/>
      <point x="235" y="704" type="curve"/>
      <point x="301" y="704"/>
      <point x="336" y="662"/>
      <point x="336" y="600" type="curve"/>
      <point x="336" y="536"/>
      <point x="302" y="498"/>
      <point x="243" y="498" type="curve"/>
      <point x="176" y="498"/>
      <point x="141" y="535"/>
      <point x="141" y="600" type="curve"/>
      <point x="83" y="600"/>
      <point x="101" y="600"/>
      <point x="43" y="600" type="curve"/>
      <point x="43" y="483"/>
      <point x="120" y="421"/>
      <point x="238" y="421" type="curve"/>
      <point x="358" y="421"/>
      <point x="437" y="482"/>
      <point x="437" y="600" type="curve"/>
      <point x="437" y="714"/>
      <point x="361" y="781"/>
      <point x="240" y="781" type="curve"/>
      <point x="119" y="781"/>
      <point x="43" y="714"/>
      <point x="43" y="600" type="curve"/>
      <point x="101" y="600"/>
      <point x="83" y="600"/>
    </contour>
  </outline>
</glyph>
<glyph name="AE" format="1">
  <advance width="1031"/>
  <unicode hex="00C6"/>
  <outline>
    <contour>
      <point x="113" y="114" type="curve"/>
      <point x="2" y="114"/>
      <point x="113" y="114"/>
      <point x="2" y="114" type="curve"/>
      <point x="2" y="0"/>
      <point x="2" y="114"/>
      <point x="2" y="0" type="curve"/>
      <point x="39" y="0"/>
      <point x="76" y="0"/>
      <point x="113" y="0" type="curve"/>
      <point x="113" y="114"/>
      <point x="113" y="0"/>
    </contour>
    <contour>
      <point x="113" y="0" type="curve"/>
      <point x="181" y="0"/>
      <point x="113" y="0"/>
      <point x="318" y="0" type="curve"/>
      <point x="318" y="114"/>
      <point x="318" y="0"/>
      <point x="318" y="114" type="curve"/>
      <point x="113" y="114"/>
      <point x="318" y="114"/>
      <point x="113" y="114" type="curve"/>
      <point x="113" y="0"/>
      <point x="113" y="114"/>
    </contour>
    <contour>
      <point x="525" y="288" type="curve"/>
      <point x="419" y="288"/>
      <point x="356" y="288"/>
      <point x="250" y="288" type="curve"/>
      <point x="187" y="167"/>
      <point x="250" y="288"/>
      <point x="187" y="167" type="curve"/>
      <point x="330" y="167"/>
      <point x="431" y="167"/>
      <point x="574" y="167" type="curve"/>
      <point x="525" y="288"/>
      <point x="574" y="167"/>
    </contour>
    <contour>
      <point x="184" y="0" type="curve"/>
      <point x="643" y="722" type="line"/>
      <point x="505" y="722"/>
      <point x="643" y="722"/>
      <point x="505" y="722" type="curve"/>
      <point x="18" y="0" type="line"/>
      <point x="184" y="0"/>
      <point x="18" y="0"/>
    </contour>
    <contour>
      <point x="990" y="57" type="curve"/>
      <point x="990" y="177"/>
      <point x="990" y="57"/>
      <point x="990" y="177" type="curve"/>
      <point x="872" y="177"/>
      <point x="990" y="177"/>
      <point x="872" y="177" type="curve"/>
      <point x="872" y="57"/>
      <point x="872" y="177"/>
      <point x="872" y="57" type="curve"/>
      <point x="990" y="57"/>
      <point x="872" y="57"/>
    </contour>
    <contour>
      <point x="837" y="665" type="curve"/>
      <point x="837" y="545"/>
      <point x="837" y="665"/>
      <point x="837" y="545" type="curve"/>
      <point x="955" y="545"/>
      <point x="837" y="545"/>
      <point x="955" y="545" type="curve"/>
      <point x="955" y="665"/>
      <point x="955" y="545"/>
      <point x="955" y="665" type="curve"/>
      <point x="837" y="665"/>
      <point x="955" y="665"/>
    </contour>
    <contour>
      <point x="545" y="114" type="curve"/>
      <point x="393" y="114"/>
      <point x="545" y="114"/>
      <point x="393" y="114" type="curve"/>
      <point x="393" y="0"/>
      <point x="393" y="114"/>
      <point x="393" y="0" type="curve"/>
      <point x="443" y="0"/>
      <point x="494" y="0"/>
      <point x="545" y="0" type="curve"/>
      <point x="545" y="114"/>
      <point x="545" y="0"/>
    </contour>
    <contour>
      <point x="545" y="722" type="curve"/>
      <point x="494" y="722"/>
      <point x="443" y="722"/>
      <point x="393" y="722" type="curve"/>
      <point x="393" y="608"/>
      <point x="393" y="722"/>
      <point x="393" y="608" type="curve"/>
      <point x="545" y="608"/>
      <point x="393" y="608"/>
      <point x="545" y="608" type="curve"/>
      <point x="545" y="722"/>
      <point x="545" y="608"/>
    </contour>
    <contour>
      <point x="548" y="315" type="curve"/>
      <point x="661" y="315"/>
      <point x="776" y="315"/>
      <point x="889" y="315" type="curve"/>
      <point x="889" y="430"/>
      <point x="889" y="315"/>
      <point x="889" y="430" type="curve"/>
      <point x="776" y="430"/>
      <point x="661" y="430"/>
      <point x="548" y="430" type="curve"/>
      <point x="548" y="315"/>
      <point x="548" y="430"/>
    </contour>
    <contour>
      <point x="532" y="608" type="curve"/>
      <point x="673" y="608"/>
      <point x="814" y="608"/>
      <point x="955" y="608" type="curve"/>
      <point x="955" y="722"/>
      <point x="955" y="608"/>
      <point x="955" y="722" type="curve"/>
      <point x="814" y="722"/>
      <point x="673" y="722"/>
      <point x="532" y="722" type="curve"/>
      <point x="532" y="608"/>
      <point x="532" y="722"/>
    </contour>
    <contour>
      <point x="620" y="0" type="curve"/>
      <point x="620" y="722" type="line"/>
      <point x="467" y="722"/>
      <point x="620" y="722"/>
      <point x="467" y="722" type="curve"/>
      <point x="467" y="481"/>
      <point x="467" y="241"/>
      <point x="467" y="0" type="curve"/>
      <point x="620" y="0"/>
      <point x="467" y="0"/>
    </contour>
    <contour>
      <point x="532" y="0" type="curve"/>
      <point x="685" y="0"/>
      <point x="837" y="0"/>
      <point x="990" y="0" type="curve"/>
      <point x="990" y="114"/>
      <point x="990" y="0"/>
      <point x="990" y="114" type="curve"/>
      <point x="837" y="114"/>
      <point x="685" y="114"/>
      <point x="532" y="114" type="curve"/>
      <point x="532" y="0"/>
      <point x="532" y="114"/>
    </contour>
  </outline>
</glyph>
<glyph name="Edieresis" format="1">
  <advance width="710"/>
  <unicode hex="00CB"/>
  <outline>
    <contour>
      <point x="668" y="57" type="curve"/>
      <point x="668" y="177"/>
      <point x="668" y="57"/>
      <point x="668" y="177" type="curve"/>
      <point x="551" y="177"/>
      <point x="668" y="177"/>
      <point x="551" y="177" type="curve"/>
      <point x="551" y="57"/>
      <point x="551" y="177"/>
      <point x="551" y="57" type="curve"/>
      <point x="668" y="57"/>
      <point x="551" y="57"/>
    </contour>
    <contour>
      <point x="515" y="665" type="curve"/>
      <point x="515" y="545"/>
      <point x="515" y="665"/>
      <point x="515" y="545" type="curve"/>
      <point x="633" y="545"/>
      <point x="515" y="545"/>
      <point x="633" y="545" type="curve"/>
      <point x="633" y="665"/>
      <point x="633" y="545"/>
      <point x="633" y="665" type="curve"/>
      <point x="515" y="665"/>
      <point x="633" y="665"/>
    </contour>
    <contour>
      <point x="223" y="114" type="curve"/>
      <point x="71" y="114"/>
      <point x="223" y="114"/>
      <point x="71" y="114" type="curve"/>
      <point x="71" y="0"/>
      <point x="71" y="114"/>
      <point x="71" y="0" type="curve"/>
      <point x="122" y="0"/>
      <point x="172" y="0"/>
      <point x="223" y="0" type="curve"/>
      <point x="223" y="114"/>
      <point x="223" y="0"/>
    </contour>
    <contour>
      <point x="223" y="722" type="curve"/>
      <point x="172" y="722"/>
      <point x="122" y="722"/>
      <point x="71" y="722" type="curve"/>
      <point x="71" y="608"/>
      <point x="71" y="722"/>
      <point x="71" y="608" type="curve"/>
      <point x="223" y="608"/>
      <point x="71" y="608"/>
      <point x="223" y="608" type="curve"/>
      <point x="223" y="722"/>
      <point x="223" y="608"/>
    </contour>
    <contour>
      <point x="226" y="315" type="curve"/>
      <point x="340" y="315"/>
      <point x="454" y="315"/>
      <point x="568" y="315" type="curve"/>
      <point x="568" y="430"/>
      <point x="568" y="315"/>
      <point x="568" y="430" type="curve"/>
      <point x="454" y="430"/>
      <point x="340" y="430"/>
      <point x="226" y="430" type="curve"/>
      <point x="226" y="315"/>
      <point x="226" y="430"/>
    </contour>
    <contour>
      <point x="210" y="608" type="curve"/>
      <point x="351" y="608"/>
      <point x="492" y="608"/>
      <point x="633" y="608" type="curve"/>
      <point x="633" y="722"/>
      <point x="633" y="608"/>
      <point x="633" y="722" type="curve"/>
      <point x="492" y="722"/>
      <point x="351" y="722"/>
      <point x="210" y="722" type="curve"/>
      <point x="210" y="608"/>
      <point x="210" y="722"/>
    </contour>
    <contour>
      <point x="298" y="0" type="curve"/>
      <point x="298" y="722" type="line"/>
      <point x="145" y="722"/>
      <point x="298" y="722"/>
      <point x="145" y="722" type="curve"/>
      <point x="145" y="481"/>
      <point x="145" y="241"/>
      <point x="145" y="0" type="curve"/>
      <point x="298" y="0"/>
      <point x="145" y="0"/>
    </contour>
    <contour>
      <point x="210" y="0" type="curve"/>
      <point x="363" y="0"/>
      <point x="515" y="0"/>
      <point x="668" y="0" type="curve"/>
      <point x="668" y="114"/>
      <point x="668" y="0"/>
      <point x="668" y="114" type="curve"/>
      <point x="515" y="114"/>
      <point x="363" y="114"/>
      <point x="210" y="114" type="curve"/>
      <point x="210" y="0"/>
      <point x="210" y="114"/>
    </contour>
    <contour>
      <point x="341" y="849" type="curve"/>
      <point x="341" y="899"/>
      <point x="304" y="923"/>
      <point x="254" y="923" type="curve"/>
      <point x="205" y="923"/>
      <point x="171" y="896"/>
      <point x="171" y="849" type="curve"/>
      <point x="341" y="849"/>
      <point x="171" y="849"/>
      <point x="341" y="849" type="curve"/>
      <point x="341" y="798"/>
      <point x="304" y="776"/>
      <point x="254" y="776" type="curve"/>
      <point x="204" y="776"/>
      <point x="171" y="800"/>
      <point x="171" y="849" type="curve"/>
      <point x="341" y="849"/>
      <point x="171" y="849"/>
    </contour>
    <contour>
      <point x="562" y="849" type="curve"/>
      <point x="562" y="899"/>
      <point x="526" y="923"/>
      <point x="476" y="923" type="curve"/>
      <point x="426" y="923"/>
      <point x="393" y="896"/>
      <point x="393" y="849" type="curve"/>
      <point x="562" y="849"/>
      <point x="393" y="849"/>
      <point x="562" y="849" type="curve"/>
      <point x="562" y="798"/>
      <point x="526" y="776"/>
      <point x="476" y="776" type="curve"/>
      <point x="425" y="776"/>
      <point x="393" y="800"/>
      <point x="393" y="849" type="curve"/>
      <point x="562" y="849"/>
      <point x="393" y="849"/>
    </contour>
  </outline>
</glyph>
<glyph name="Iacute" format="1">
  <advance width="395"/>
  <unicode hex="00CD"/>
  <outline>
    <contour>
      <point x="196" y="722" type="curve"/>
      <point x="140" y="722"/>
      <point x="100" y="722"/>
      <point x="44" y="722" type="curve"/>
      <point x="44" y="608"/>
      <point x="44" y="722"/>
      <point x="44" y="608" type="curve"/>
      <point x="212" y="608"/>
      <point x="28" y="608"/>
      <point x="196" y="608" type="curve"/>
      <point x="196" y="722"/>
      <point x="196" y="608"/>
    </contour>
    <contour>
      <point x="196" y="608" type="curve"/>
      <point x="363" y="608"/>
      <point x="180" y="608"/>
      <point x="347" y="608" type="curve"/>
      <point x="347" y="722"/>
      <point x="347" y="608"/>
      <point x="347" y="722" type="curve"/>
      <point x="291" y="722"/>
      <point x="251" y="722"/>
      <point x="196" y="722" type="curve"/>
      <point x="196" y="608"/>
      <point x="196" y="722"/>
    </contour>
    <contour>
      <point x="196" y="0" type="curve"/>
      <point x="251" y="0"/>
      <point x="291" y="0"/>
      <point x="347" y="0" type="curve"/>
      <point x="347" y="114"/>
      <point x="347" y="0"/>
      <point x="347" y="114" type="curve"/>
      <point x="180" y="114"/>
      <point x="363" y="114"/>
      <point x="196" y="114" type="curve"/>
      <point x="196" y="0"/>
      <point x="196" y="114"/>
    </contour>
    <contour>
      <point x="196" y="114" type="curve"/>
      <point x="28" y="114"/>
      <point x="212" y="114"/>
      <point x="44" y="114" type="curve"/>
      <point x="44" y="0"/>
      <point x="44" y="114"/>
      <point x="44" y="0" type="curve"/>
      <point x="100" y="0"/>
      <point x="140" y="0"/>
      <point x="196" y="0" type="curve"/>
      <point x="196" y="114"/>
      <point x="196" y="0"/>
    </contour>
    <contour>
      <point x="271" y="0" type="curve"/>
      <point x="271" y="241"/>
      <point x="271" y="481"/>
      <point x="271" y="722" type="curve"/>
      <point x="118" y="722"/>
      <point x="271" y="722"/>
      <point x="118" y="722" type="curve"/>
      <point x="118" y="481"/>
      <point x="118" y="241"/>
      <point x="118" y="0" type="curve"/>
      <point x="271" y="0"/>
      <point x="118" y="0"/>
    </contour>
    <contour>
      <point x="259" y="779" type="line"/>
      <point x="421" y="945" type="line"/>
      <point x="228" y="945" type="line"/>
      <point x="112" y="779" type="line"/>
    </contour>
  </outline>
</glyph>
<glyph name="Icircumflex" format="1">
  <advance width="395"/>
  <unicode hex="00CE"/>
  <outline>
    <contour>
      <point x="193" y="722" type="curve"/>
      <point x="137" y="722"/>
      <point x="97" y="722"/>
      <point x="41" y="722" type="curve"/>
      <point x="41" y="608"/>
      <point x="41" y="722"/>
      <point x="41" y="608" type="curve"/>
      <point x="209" y="608"/>
      <point x="26" y="608"/>
      <point x="193" y="608" type="curve"/>
      <point x="193" y="722"/>
      <point x="193" y="608"/>
    </contour>
    <contour>
      <point x="193" y="608" type="curve"/>
      <point x="360" y="608"/>
      <point x="177" y="608"/>
      <point x="345" y="608" type="curve"/>
      <point x="345" y="722"/>
      <point x="345" y="608"/>
      <point x="345" y="722" type="curve"/>
      <point x="288" y="722"/>
      <point x="248" y="722"/>
      <point x="193" y="722" type="curve"/>
      <point x="193" y="608"/>
      <point x="193" y="722"/>
    </contour>
    <contour>
      <point x="193" y="0" type="curve"/>
      <point x="248" y="0"/>
      <point x="288" y="0"/>
      <point x="345" y="0" type="curve"/>
      <point x="345" y="114"/>
      <point x="345" y="0"/>
      <point x="345" y="114" type="curve"/>
      <point x="177" y="114"/>
      <point x="360" y="114"/>
      <point x="193" y="114" type="curve"/>
      <point x="193" y="0"/>
      <point x="193" y="114"/>
    </contour>
    <contour>
      <point x="193" y="114" type="curve"/>
      <point x="26" y="114"/>
      <point x="209" y="114"/>
      <point x="41" y="114" type="curve"/>
      <point x="41" y="0"/>
      <point x="41" y="114"/>
      <point x="41" y="0" type="curve"/>
      <point x="97" y="0"/>
      <point x="137" y="0"/>
      <point x="193" y="0" type="curve"/>
      <point x="193" y="114"/>
      <point x="193" y="0"/>
    </contour>
    <contour>
      <point x="268" y="0" type="curve"/>
      <point x="268" y="241"/>
      <point x="268" y="481"/>
      <point x="268" y="722" type="curve"/>
      <point x="115" y="722"/>
      <point x="268" y="722"/>
      <point x="115" y="722" type="curve"/>
      <point x="115" y="481"/>
      <point x="115" y="241"/>
      <point x="115" y="0" type="curve"/>
      <point x="268" y="0"/>
      <point x="115" y="0"/>
    </contour>
    <contour>
      <point x="102" y="781" type="line"/>
      <point x="263" y="947" type="line"/>
      <point x="70" y="947" type="line"/>
      <point x="-46" y="781" type="line"/>
    </contour>
    <contour>
      <point x="432" y="781" type="line"/>
      <point x="315" y="947" type="line"/>
      <point x="121" y="947" type="line"/>
      <point x="283" y="781" type="line"/>
    </contour>
  </outline>
</glyph>
<glyph name="Ntilde" format="1">
  <advance width="937"/>
  <unicode hex="00D1"/>
  <outline>
    <contour>
      <point x="194" y="722" type="curve"/>
      <point x="139" y="722"/>
      <point x="99" y="722"/>
      <point x="44" y="722" type="curve"/>
      <point x="44" y="608"/>
      <point x="44" y="722"/>
      <point x="44" y="608" type="curve"/>
      <point x="210" y="608"/>
      <point x="28" y="608"/>
      <point x="194" y="608" type="curve"/>
      <point x="194" y="722"/>
      <point x="194" y="608"/>
    </contour>
    <contour>
      <point x="751" y="608" type="curve"/>
      <point x="916" y="608"/>
      <point x="735" y="608"/>
      <point x="900" y="608" type="curve"/>
      <point x="900" y="722"/>
      <point x="900" y="608"/>
      <point x="900" y="722" type="curve"/>
      <point x="844" y="722"/>
      <point x="805" y="722"/>
      <point x="751" y="722" type="curve"/>
      <point x="751" y="608"/>
      <point x="751" y="722"/>
    </contour>
    <contour>
      <point x="761" y="722" type="curve"/>
      <point x="707" y="722"/>
      <point x="668" y="722"/>
      <point x="614" y="722" type="curve"/>
      <point x="614" y="608"/>
      <point x="614" y="722"/>
      <point x="614" y="608" type="curve"/>
      <point x="777" y="608"/>
      <point x="598" y="608"/>
      <point x="761" y="608" type="curve"/>
      <point x="761" y="722"/>
      <point x="761" y="608"/>
    </contour>
    <contour>
      <point x="193" y="114" type="curve"/>
      <point x="27" y="114"/>
      <point x="209" y="114"/>
      <point x="43" y="114" type="curve"/>
      <point x="43" y="0"/>
      <point x="43" y="114"/>
      <point x="43" y="0" type="curve"/>
      <point x="98" y="0"/>
      <point x="137" y="0"/>
      <point x="193" y="0" type="curve"/>
      <point x="193" y="114"/>
      <point x="193" y="0"/>
    </contour>
    <contour>
      <point x="193" y="0" type="curve"/>
      <point x="246" y="0"/>
      <point x="177" y="0"/>
      <point x="339" y="0" type="curve"/>
      <point x="339" y="114"/>
      <point x="339" y="0"/>
      <point x="339" y="114" type="curve"/>
      <point x="177" y="114"/>
      <point x="355" y="114"/>
      <point x="193" y="114" type="curve"/>
      <point x="193" y="0"/>
      <point x="193" y="114"/>
    </contour>
    <contour>
      <point x="834" y="0" type="curve"/>
      <point x="649" y="240"/>
      <point x="467" y="482"/>
      <point x="282" y="722" type="curve"/>
      <point x="108" y="722"/>
      <point x="282" y="722"/>
      <point x="108" y="722" type="curve"/>
      <point x="292" y="482"/>
      <point x="475" y="240"/>
      <point x="660" y="0" type="curve"/>
      <point x="834" y="0"/>
      <point x="660" y="0"/>
    </contour>
    <contour>
      <point x="684" y="722" type="curve"/>
      <point x="684" y="481"/>
      <point x="684" y="241"/>
      <point x="684" y="0" type="curve"/>
      <point x="836" y="0"/>
      <point x="684" y="0"/>
      <point x="836" y="0" type="curve"/>
      <point x="836" y="241"/>
      <point x="836" y="481"/>
      <point x="836" y="722" type="curve"/>
      <point x="684" y="722"/>
      <point x="836" y="722"/>
    </contour>
    <contour>
      <point x="268" y="0" type="curve"/>
      <point x="268" y="241"/>
      <point x="268" y="481"/>
      <point x="268" y="722" type="curve"/>
      <point x="116" y="722"/>
      <point x="268" y="722"/>
      <point x="116" y="722" type="curve"/>
      <point x="116" y="481"/>
      <point x="116" y="241"/>
      <point x="116" y="0" type="curve"/>
      <point x="268" y="0"/>
      <point x="116" y="0"/>
    </contour>
    <contour>
      <point x="608" y="965" type="curve"/>
      <point x="594" y="930"/>
      <point x="577" y="908"/>
      <point x="554" y="908" type="curve"/>
      <point x="523" y="908"/>
      <point x="506" y="916"/>
      <point x="482" y="934" type="curve" smooth="yes"/>
      <point x="446" y="962"/>
      <point x="420" y="973"/>
      <point x="376" y="973" type="curve"/>
      <point x="295" y="973"/>
      <point x="249" y="916"/>
      <point x="218" y="836" type="curve"/>
      <point x="331" y="778"/>
      <point x="219" y="836"/>
      <point x="331" y="778" type="curve"/>
      <point x="350" y="821"/>
      <point x="369" y="838"/>
      <point x="393" y="838" type="curve"/>
      <point x="421" y="838"/>
      <point x="436" y="828"/>
      <point x="457" y="812" type="curve" smooth="yes"/>
      <point x="498" y="782"/>
      <point x="524" y="771"/>
      <point x="571" y="771" type="curve"/>
      <point x="655" y="771"/>
      <point x="697" y="828"/>
      <point x="727" y="909" type="curve"/>
      <point x="608" y="965"/>
      <point x="727" y="908"/>
    </contour>
  </outline>
</glyph>
<glyph name="Ograve" format="1">
  <advance width="850"/>
  <unicode hex="00D2"/>
  <outline>
    <contour>
      <point x="206" y="360" type="curve"/>
      <point x="206" y="507"/>
      <point x="275" y="607"/>
      <point x="420" y="607" type="curve"/>
      <point x="566" y="607"/>
      <point x="645" y="512"/>
      <point x="645" y="363" type="curve"/>
      <point x="645" y="215"/>
      <point x="574" y="116"/>
      <point x="429" y="116" type="curve"/>
      <point x="281" y="116"/>
      <point x="206" y="211"/>
      <point x="206" y="360" type="curve"/>
      <point x="53" y="360"/>
      <point x="206" y="360"/>
      <point x="53" y="360" type="curve"/>
      <point x="53" y="133"/>
      <point x="194" y="-5"/>
      <point x="422" y="-5" type="curve"/>
      <point x="654" y="-5"/>
      <point x="797" y="134"/>
      <point x="797" y="363" type="curve"/>
      <point x="797" y="588"/>
      <point x="658" y="727"/>
      <point x="430" y="727" type="curve"/>
      <point x="198" y="727"/>
      <point x="53" y="589"/>
      <point x="53" y="360" type="curve"/>
      <point x="206" y="360"/>
      <point x="53" y="360"/>
    </contour>
    <contour>
      <point x="511" y="780" type="line"/>
      <point x="393" y="946" type="line"/>
      <point x="200" y="946" type="line"/>
      <point x="361" y="780" type="line"/>
    </contour>
  </outline>
</glyph>
<glyph name="Ocircumflex" format="1">
  <advance width="850"/>
  <unicode hex="00D4"/>
  <outline>
    <contour>
      <point x="206" y="360" type="curve"/>
      <point x="206" y="507"/>
      <point x="275" y="607"/>
      <point x="420" y="607" type="curve"/>
      <point x="566" y="607"/>
      <point x="645" y="512"/>
      <point x="645" y="363" type="curve"/>
      <point x="645" y="215"/>
      <point x="574" y="116"/>
      <point x="429" y="116" type="curve"/>
      <point x="281" y="116"/>
      <point x="206" y="211"/>
      <point x="206" y="360" type="curve"/>
      <point x="53" y="360"/>
      <point x="206" y="360"/>
      <point x="53" y="360" type="curve"/>
      <point x="53" y="133"/>
      <point x="194" y="-5"/>
      <point x="422" y="-5" type="curve"/>
      <point x="654" y="-5"/>
      <point x="797" y="134"/>
      <point x="797" y="363" type="curve"/>
      <point x="797" y="588"/>
      <point x="658" y="727"/>
      <point x="430" y="727" type="curve"/>
      <point x="198" y="727"/>
      <point x="53" y="589"/>
      <point x="53" y="360" type="curve"/>
      <point x="206" y="360"/>
      <point x="53" y="360"/>
    </contour>
    <contour>
      <point x="338" y="781" type="line"/>
      <point x="499" y="947" type="line"/>
      <point x="306" y="947" type="line"/>
      <point x="190" y="781" type="line"/>
    </contour>
    <contour>
      <point x="669" y="781" type="line"/>
      <point x="551" y="947" type="line"/>
      <point x="358" y="947" type="line"/>
      <point x="519" y="781" type="line"/>
    </contour>
  </outline>
</glyph>
<glyph name="Odieresis" format="1">
  <advance width="850"/>
  <unicode hex="00D6"/>
  <outline>
    <contour>
      <point x="206" y="360" type="curve"/>
      <point x="206" y="507"/>
      <point x="275" y="607"/>
      <point x="420" y="607" type="curve"/>
      <point x="566" y="607"/>
      <point x="645" y="512"/>
      <point x="645" y="363" type="curve"/>
      <point x="645" y="215"/>
      <point x="574" y="116"/>
      <point x="429" y="116" type="curve"/>
      <point x="281" y="116"/>
      <point x="206" y="211"/>
      <point x="206" y="360" type="curve"/>
      <point x="53" y="360"/>
      <point x="206" y="360"/>
      <point x="53" y="360" type="curve"/>
      <point x="53" y="133"/>
      <point x="194" y="-5"/>
      <point x="422" y="-5" type="curve"/>
      <point x="654" y="-5"/>
      <point x="797" y="134"/>
      <point x="797" y="363" type="curve"/>
      <point x="797" y="588"/>
      <point x="658" y="727"/>
      <point x="430" y="727" type="curve"/>
      <point x="198" y="727"/>
      <point x="53" y="589"/>
      <point x="53" y="360" type="curve"/>
      <point x="206" y="360"/>
      <point x="53" y="360"/>
    </contour>
    <contour>
      <point x="403" y="849" type="curve"/>
      <point x="403" y="899"/>
      <point x="366" y="923"/>
      <point x="317" y="923" type="curve"/>
      <point x="267" y="923"/>
      <point x="233" y="896"/>
      <point x="233" y="849" type="curve"/>
      <point x="403" y="849"/>
      <point x="233" y="849"/>
      <point x="403" y="849" type="curve"/>
      <point x="403" y="798"/>
      <point x="367" y="776"/>
      <point x="317" y="776" type="curve"/>
      <point x="266" y="776"/>
      <point x="233" y="800"/>
      <point x="233" y="849" type="curve"/>
      <point x="403" y="849"/>
      <point x="233" y="849"/>
    </contour>
    <contour>
      <point x="625" y="849" type="curve"/>
      <point x="625" y="899"/>
      <point x="588" y="923"/>
      <point x="539" y="923" type="curve"/>
      <point x="489" y="923"/>
      <point x="455" y="896"/>
      <point x="455" y="849" type="curve"/>
      <point x="625" y="849"/>
      <point x="455" y="849"/>
      <point x="625" y="849" type="curve"/>
      <point x="625" y="798"/>
      <point x="589" y="776"/>
      <point x="538" y="776" type="curve"/>
      <point x="488" y="776"/>
      <point x="455" y="800"/>
      <point x="455" y="849" type="curve"/>
      <point x="625" y="849"/>
      <point x="455" y="849"/>
    </contour>
  </outline>
</glyph>
<glyph name="multiply" format="1">
  <advance width="641"/>
  <unicode hex="00D7"/>
  <outline>
    <contour>
      <point x="140" y="40" type="line"/>
      <point x="587" y="497" type="line"/>
      <point x="501" y="584" type="line"/>
      <point x="53" y="127" type="line"/>
    </contour>
    <contour>
      <point x="587" y="125" type="line"/>
      <point x="140" y="582" type="line"/>
      <point x="53" y="496" type="line"/>
      <point x="501" y="39" type="line"/>
    </contour>
  </outline>
</glyph>
<glyph name="Ugrave" format="1">
  <advance width="911"/>
  <unicode hex="00D9"/>
  <outline>
    <contour>
      <point x="717" y="608" type="curve"/>
      <point x="867" y="608"/>
      <point x="717" y="608"/>
      <point x="867" y="608" type="curve"/>
      <point x="867" y="722"/>
      <point x="867" y="608"/>
      <point x="867" y="722" type="curve"/>
      <point x="818" y="722"/>
      <point x="767" y="722"/>
      <point x="717" y="722" type="curve"/>
      <point x="717" y="608"/>
      <point x="717" y="722"/>
    </contour>
    <contour>
      <point x="717" y="722" type="curve"/>
      <point x="667" y="722"/>
      <point x="617" y="722"/>
      <point x="568" y="722" type="curve"/>
      <point x="568" y="608"/>
      <point x="568" y="722"/>
      <point x="568" y="608" type="curve"/>
      <point x="717" y="608"/>
      <point x="568" y="608"/>
      <point x="717" y="608" type="curve"/>
      <point x="717" y="722"/>
      <point x="717" y="608"/>
    </contour>
    <contour>
      <point x="196" y="722" type="curve"/>
      <point x="146" y="722"/>
      <point x="96" y="722"/>
      <point x="47" y="722" type="curve"/>
      <point x="46" y="608"/>
      <point x="47" y="722"/>
      <point x="46" y="608" type="curve"/>
      <point x="196" y="608"/>
      <point x="46" y="608"/>
      <point x="196" y="608" type="curve"/>
      <point x="196" y="722"/>
      <point x="196" y="608"/>
    </contour>
    <contour>
      <point x="196" y="608" type="curve"/>
      <point x="346" y="608"/>
      <point x="196" y="608"/>
      <point x="346" y="608" type="curve"/>
      <point x="346" y="722"/>
      <point x="346" y="608"/>
      <point x="346" y="722" type="curve"/>
      <point x="297" y="722"/>
      <point x="247" y="722"/>
      <point x="196" y="722" type="curve"/>
      <point x="196" y="608"/>
      <point x="196" y="722"/>
    </contour>
    <contour>
      <point x="125" y="673" type="curve"/>
      <point x="125" y="540"/>
      <point x="125" y="412"/>
      <point x="125" y="278" type="curve"/>
      <point x="125" y="79"/>
      <point x="243" y="-5"/>
      <point x="452" y="-5" type="curve"/>
      <point x="666" y="-5"/>
      <point x="786" y="85"/>
      <point x="786" y="291" type="curve"/>
      <point x="786" y="420"/>
      <point x="786" y="544"/>
      <point x="786" y="673" type="curve"/>
      <point x="648" y="673"/>
      <point x="786" y="673"/>
      <point x="648" y="673" type="curve"/>
      <point x="648" y="537"/>
      <point x="648" y="413"/>
      <point x="648" y="277" type="curve"/>
      <point x="648" y="169"/>
      <point x="579" y="121"/>
      <point x="464" y="121" type="curve"/>
      <point x="334" y="121"/>
      <point x="264" y="174"/>
      <point x="264" y="300" type="curve"/>
      <point x="264" y="426"/>
      <point x="264" y="548"/>
      <point x="264" y="673" type="curve"/>
      <point x="125" y="673"/>
      <point x="264" y="673"/>
    </contour>
    <contour>
      <point x="540" y="780" type="line"/>
      <point x="422" y="946" type="line"/>
      <point x="229" y="946" type="line"/>
      <point x="390" y="780" type="line"/>
    </contour>
  </outline>
</glyph>
<glyph name="germandbls" format="1">
  <advance width="693"/>
  <unicode hex="00DF"/>
  <outline>
    <contour>
      <point x="186" y="114" type="curve"/>
      <point x="42" y="114"/>
      <point x="186" y="114"/>
      <point x="42" y="114" type="curve"/>
      <point x="42" y="0"/>
      <point x="42" y="114"/>
      <point x="42" y="0" type="curve"/>
      <point x="90" y="0"/>
      <point x="138" y="0"/>
      <point x="186" y="0" type="curve"/>
      <point x="186" y="114"/>
      <point x="186" y="0"/>
    </contour>
    <contour>
      <point x="186" y="0" type="curve"/>
      <point x="233" y="0"/>
      <point x="280" y="0"/>
      <point x="328" y="0" type="curve"/>
      <point x="328" y="114"/>
      <point x="328" y="0"/>
      <point x="328" y="114" type="curve"/>
      <point x="186" y="114"/>
      <point x="328" y="114"/>
      <point x="186" y="114" type="curve"/>
      <point x="186" y="0"/>
      <point x="186" y="114"/>
    </contour>
    <contour>
      <point x="261" y="0" type="curve"/>
      <point x="261" y="195"/>
      <point x="261" y="390"/>
      <point x="261" y="585" type="curve"/>
      <point x="109" y="585"/>
      <point x="261" y="585"/>
      <point x="109" y="585" type="curve"/>
      <point x="109" y="390"/>
      <point x="109" y="195"/>
      <point x="109" y="0" type="curve"/>
      <point x="261" y="0"/>
      <point x="109" y="0"/>
    </contour>
    <contour>
      <point x="261" y="585" type="curve"/>
      <point x="261" y="645"/>
      <point x="298" y="680"/>
      <point x="359" y="680" type="curve"/>
      <point x="427" y="680"/>
      <point x="477" y="656"/>
      <point x="477" y="590" type="curve"/>
      <point x="477" y="521"/>
      <point x="421" y="497"/>
      <point x="346" y="497" type="curve"/>
      <point x="346" y="400"/>
      <point x="346" y="497"/>
      <point x="346" y="400" type="curve"/>
      <point x="502" y="400"/>
      <point x="623" y="454"/>
      <point x="623" y="596" type="curve"/>
      <point x="623" y="732"/>
      <point x="516" y="794"/>
      <point x="369" y="794" type="curve"/>
      <point x="218" y="794"/>
      <point x="109" y="726"/>
      <point x="109" y="585" type="curve"/>
      <point x="261" y="585"/>
      <point x="109" y="585"/>
    </contour>
    <contour>
      <point x="455" y="74" type="curve"/>
      <point x="577" y="98"/>
      <point x="657" y="161"/>
      <point x="657" y="288" type="curve"/>
      <point x="657" y="438"/>
      <point x="527" y="497"/>
      <point x="346" y="497" type="curve"/>
      <point x="346" y="400"/>
      <point x="346" y="497"/>
      <point x="346" y="400" type="curve"/>
      <point x="431" y="400"/>
      <point x="512" y="370"/>
      <point x="512" y="285" type="curve"/>
      <point x="512" y="226"/>
      <point x="468" y="201"/>
      <point x="418" y="189" type="curve"/>
      <point x="455" y="74"/>
      <point x="418" y="189"/>
    </contour>
  </outline>
</glyph>
<glyph name="atilde" format="1">
  <advance width="655"/>
  <unicode hex="00E3"/>
  <outline>
    <contour>
      <point x="74" y="462" type="curve"/>
      <point x="74" y="345"/>
      <point x="74" y="458"/>
      <point x="74" y="342" type="curve"/>
      <point x="192" y="342"/>
      <point x="74" y="342"/>
      <point x="192" y="342" type="curve"/>
      <point x="192" y="458"/>
      <point x="192" y="345"/>
      <point x="192" y="462" type="curve"/>
      <point x="74" y="462"/>
      <point x="192" y="462"/>
    </contour>
    <contour>
      <point x="557" y="0" type="curve"/>
      <point x="557" y="123"/>
      <point x="557" y="242"/>
      <point x="557" y="365" type="curve"/>
      <point x="557" y="499"/>
      <point x="450" y="538"/>
      <point x="311" y="538" type="curve"/>
      <point x="209" y="538"/>
      <point x="133" y="507"/>
      <point x="74" y="462" type="curve"/>
      <point x="131" y="365"/>
      <point x="79" y="458"/>
      <point x="136" y="362" type="curve"/>
      <point x="177" y="391"/>
      <point x="220" y="422"/>
      <point x="290" y="422" type="curve"/>
      <point x="354" y="422"/>
      <point x="405" y="407"/>
      <point x="405" y="342" type="curve"/>
      <point x="405" y="228"/>
      <point x="405" y="114"/>
      <point x="405" y="0" type="curve"/>
      <point x="557" y="0"/>
      <point x="405" y="0"/>
    </contour>
    <contour>
      <point x="483" y="0" type="curve"/>
      <point x="529" y="0"/>
      <point x="576" y="0"/>
      <point x="622" y="0" type="curve"/>
      <point x="622" y="114"/>
      <point x="622" y="0"/>
      <point x="622" y="114" type="curve"/>
      <point x="483" y="114"/>
      <point x="622" y="114"/>
      <point x="483" y="114" type="curve"/>
      <point x="483" y="0"/>
      <point x="483" y="114"/>
    </contour>
    <contour>
      <point x="477" y="345" type="curve"/>
      <point x="396" y="336"/>
      <point x="347" y="334"/>
      <point x="267" y="325" type="curve"/>
      <point x="140" y="310"/>
      <point x="45" y="281"/>
      <point x="45" y="162" type="curve"/>
      <point x="45" y="47"/>
      <point x="125" y="-5"/>
      <point x="248" y="-5" type="curve"/>
      <point x="372" y="-5"/>
      <point x="446" y="67"/>
      <point x="515" y="153" type="curve"/>
      <point x="442" y="213"/>
      <point x="515" y="153"/>
      <point x="442" y="213" type="curve"/>
      <point x="409" y="154"/>
      <point x="350" y="108"/>
      <point x="276" y="108" type="curve"/>
      <point x="225" y="108"/>
      <point x="194" y="124"/>
      <point x="194" y="165" type="curve"/>
      <point x="194" y="203"/>
      <point x="228" y="217"/>
      <point x="265" y="221" type="curve"/>
      <point x="352" y="231"/>
      <point x="397" y="238"/>
      <point x="484" y="248" type="curve"/>
      <point x="477" y="345"/>
      <point x="484" y="248"/>
    </contour>
    <contour>
      <point x="451" y="795" type="curve"/>
      <point x="437" y="760"/>
      <point x="420" y="738"/>
      <point x="397" y="738" type="curve"/>
      <point x="366" y="738"/>
      <point x="349" y="746"/>
      <point x="325" y="764" type="curve" smooth="yes"/>
      <point x="288" y="792"/>
      <point x="263" y="803"/>
      <point x="219" y="803" type="curve"/>
      <point x="138" y="803"/>
      <point x="92" y="746"/>
      <point x="61" y="666" type="curve"/>
      <point x="174" y="608"/>
      <point x="62" y="666"/>
      <point x="174" y="608" type="curve"/>
      <point x="193" y="651"/>
      <point x="212" y="668"/>
      <point x="236" y="668" type="curve"/>
      <point x="264" y="668"/>
      <point x="279" y="658"/>
      <point x="300" y="642" type="curve" smooth="yes"/>
      <point x="341" y="612"/>
      <point x="366" y="601"/>
      <point x="414" y="601" type="curve"/>
      <point x="497" y="601"/>
      <point x="540" y="658"/>
      <point x="570" y="739" type="curve"/>
      <point x="451" y="795"/>
      <point x="569" y="738"/>
    </contour>
  </outline>
</glyph>
<glyph name="ccedilla" format="1">
  <advance width="606"/>
  <unicode hex="00E7"/>
  <outline>
    <contour>
      <point x="440" y="469" type="curve"/>
      <point x="440" y="326"/>
      <point x="440" y="469"/>
      <point x="440" y="326" type="curve"/>
      <point x="557" y="326"/>
      <point x="440" y="326"/>
      <point x="557" y="326" type="curve"/>
      <point x="557" y="469"/>
      <point x="557" y="326"/>
      <point x="557" y="469" type="curve"/>
      <point x="440" y="469"/>
      <point x="557" y="469"/>
    </contour>
    <contour>
      <point x="557" y="469" type="curve"/>
      <point x="499" y="510"/>
      <point x="425" y="538"/>
      <point x="350" y="538" type="curve"/>
      <point x="164" y="538"/>
      <point x="42" y="451"/>
      <point x="42" y="267" type="curve"/>
      <point x="42" y="84"/>
      <point x="160" y="-5"/>
      <point x="346" y="-5" type="curve"/>
      <point x="430" y="-5"/>
      <point x="511" y="21"/>
      <point x="560" y="81" type="curve"/>
      <point x="471" y="165"/>
      <point x="560" y="81"/>
      <point x="471" y="165" type="curve"/>
      <point x="437" y="134"/>
      <point x="398" y="114"/>
      <point x="353" y="114" type="curve"/>
      <point x="253" y="114"/>
      <point x="194" y="165"/>
      <point x="194" y="267" type="curve"/>
      <point x="194" y="367"/>
      <point x="249" y="419"/>
      <point x="347" y="419" type="curve"/>
      <point x="390" y="419"/>
      <point x="432" y="411"/>
      <point x="467" y="389" type="curve"/>
      <point x="557" y="469"/>
      <point x="467" y="389"/>
    </contour>
    <contour>
      <point x="262" y="89" type="curve"/>
      <point x="248" y="68"/>
      <point x="185" y="-34"/>
      <point x="171" y="-55" type="curve"/>
      <point x="275" y="-147"/>
      <point x="171" y="-55"/>
      <point x="275" y="-147" type="curve"/>
      <point x="292" y="-121"/>
      <point x="362" y="-16"/>
      <point x="379" y="10" type="curve"/>
      <point x="262" y="89"/>
      <point x="379" y="10"/>
    </contour>
    <contour>
      <point x="275" y="-147" type="curve"/>
      <point x="279" y="-143"/>
      <point x="283" y="-140"/>
      <point x="289" y="-140" type="curve"/>
      <point x="296" y="-140"/>
      <point x="302" y="-143"/>
      <point x="302" y="-151" type="curve"/>
      <point x="302" y="-163"/>
      <point x="289" y="-167"/>
      <point x="275" y="-167" type="curve"/>
      <point x="252" y="-167"/>
      <point x="233" y="-160"/>
      <point x="205" y="-148" type="curve"/>
      <point x="156" y="-233"/>
      <point x="205" y="-148"/>
      <point x="156" y="-233" type="curve"/>
      <point x="194" y="-252"/>
      <point x="226" y="-261"/>
      <point x="268" y="-261" type="curve"/>
      <point x="356" y="-261"/>
      <point x="423" y="-230"/>
      <point x="423" y="-147" type="curve"/>
      <point x="423" y="-71"/>
      <point x="366" y="-31"/>
      <point x="287" y="-31" type="curve"/>
      <point x="243" y="-31"/>
      <point x="212" y="-39"/>
      <point x="171" y="-55" type="curve"/>
      <point x="275" y="-147"/>
      <point x="171" y="-55"/>
    </contour>
  </outline>
</glyph>
<glyph name="igrave" format="1">
  <advance width="358"/>
  <unicode hex="00EC"/>
  <outline>
    <contour>
      <point x="183" y="114" type="curve"/>
      <point x="31" y="114"/>
      <point x="183" y="114"/>
      <point x="31" y="114" type="curve"/>
      <point x="31" y="0"/>
      <point x="31" y="114"/>
      <point x="31" y="0" type="curve"/>
      <point x="82" y="0"/>
      <point x="133" y="0"/>
      <point x="183" y="0" type="curve"/>
      <point x="183" y="114"/>
      <point x="183" y="0"/>
    </contour>
    <contour>
      <point x="183" y="0" type="curve"/>
      <point x="232" y="0"/>
      <point x="280" y="0"/>
      <point x="329" y="0" type="curve"/>
      <point x="329" y="114"/>
      <point x="329" y="0"/>
      <point x="329" y="114" type="curve"/>
      <point x="183" y="114"/>
      <point x="329" y="114"/>
      <point x="183" y="114" type="curve"/>
      <point x="183" y="0"/>
      <point x="183" y="114"/>
    </contour>
    <contour>
      <point x="183" y="533" type="curve"/>
      <point x="133" y="533"/>
      <point x="82" y="533"/>
      <point x="31" y="533" type="curve"/>
      <point x="31" y="419"/>
      <point x="31" y="533"/>
      <point x="31" y="419" type="curve"/>
      <point x="183" y="419"/>
      <point x="31" y="419"/>
      <point x="183" y="419" type="curve"/>
      <point x="183" y="533"/>
      <point x="183" y="419"/>
    </contour>
    <contour>
      <point x="263" y="0" type="curve"/>
      <point x="263" y="178"/>
      <point x="263" y="355"/>
      <point x="263" y="533" type="curve"/>
      <point x="104" y="533"/>
      <point x="263" y="533"/>
      <point x="104" y="533" type="curve"/>
      <point x="104" y="355"/>
      <point x="104" y="178"/>
      <point x="104" y="0" type="curve"/>
      <point x="263" y="0"/>
      <point x="104" y="0"/>
    </contour>
    <contour>
      <point x="267" y="610" type="line"/>
      <point x="149" y="776" type="line"/>
      <point x="-44" y="776" type="line"/>
      <point x="117" y="610" type="line"/>
    </contour>
  </outline>
</glyph>
<glyph name="iacute" format="1">
  <advance width="351"/>
  <unicode hex="00ED"/>
  <outline>
    <contour>
      <point x="178" y="114" type="curve"/>
      <point x="27" y="114"/>
      <point x="178" y="114"/>
      <point x="27" y="114" type="curve"/>
      <point x="27" y="0"/>
      <point x="27" y="114"/>
      <point x="27" y="0" type="curve"/>
      <point x="77" y="0"/>
      <point x="128" y="0"/>
      <point x="178" y="0" type="curve"/>
      <point x="178" y="114"/>
      <point x="178" y="0"/>
    </contour>
    <contour>
      <point x="178" y="0" type="curve"/>
      <point x="227" y="0"/>
      <point x="276" y="0"/>
      <point x="325" y="0" type="curve"/>
      <point x="325" y="114"/>
      <point x="325" y="0"/>
      <point x="325" y="114" type="curve"/>
      <point x="178" y="114"/>
      <point x="325" y="114"/>
      <point x="178" y="114" type="curve"/>
      <point x="178" y="0"/>
      <point x="178" y="114"/>
    </contour>
    <contour>
      <point x="178" y="533" type="curve"/>
      <point x="128" y="533"/>
      <point x="77" y="533"/>
      <point x="27" y="533" type="curve"/>
      <point x="27" y="419"/>
      <point x="27" y="533"/>
      <point x="27" y="419" type="curve"/>
      <point x="178" y="419"/>
      <point x="27" y="419"/>
      <point x="178" y="419" type="curve"/>
      <point x="178" y="533"/>
      <point x="178" y="419"/>
    </contour>
    <contour>
      <point x="259" y="0" type="curve"/>
      <point x="259" y="178"/>
      <point x="259" y="355"/>
      <point x="259" y="533" type="curve"/>
      <point x="99" y="533"/>
      <point x="259" y="533"/>
      <point x="99" y="533" type="curve"/>
      <point x="99" y="355"/>
      <point x="99" y="178"/>
      <point x="99" y="0" type="curve"/>
      <point x="259" y="0"/>
      <point x="99" y="0"/>
    </contour>
    <contour>
      <point x="245" y="609" type="line"/>
      <point x="406" y="775" type="line"/>
      <point x="213" y="775" type="line"/>
      <point x="97" y="609" type="line"/>
    </contour>
  </outline>
</glyph>
<glyph name="ntilde" format="1">
  <advance width="723"/>
  <unicode hex="00F1"/>
  <outline>
    <contour>
      <point x="223" y="253" type="curve"/>
      <point x="249" y="347"/>
      <point x="299" y="419"/>
      <point x="383" y="419" type="curve"/>
      <point x="453" y="419"/>
      <point x="491" y="377"/>
      <point x="491" y="306" type="curve"/>
      <point x="491" y="199"/>
      <point x="491" y="107"/>
      <point x="491" y="0" type="curve"/>
      <point x="589" y="0"/>
      <point x="545" y="0"/>
      <point x="643" y="0" type="curve"/>
      <point x="643" y="111"/>
      <point x="643" y="207"/>
      <point x="643" y="318" type="curve"/>
      <point x="643" y="459"/>
      <point x="571" y="538"/>
      <point x="427" y="538" type="curve"/>
      <point x="296" y="538"/>
      <point x="205" y="454"/>
      <point x="160" y="310" type="curve"/>
      <point x="195" y="270"/>
      <point x="188" y="294"/>
    </contour>
    <contour>
      <point x="566" y="0" type="curve"/>
      <point x="621" y="0"/>
      <point x="661" y="0"/>
      <point x="717" y="0" type="curve"/>
      <point x="717" y="114"/>
      <point x="717" y="0"/>
      <point x="717" y="114" type="curve"/>
      <point x="550" y="114"/>
      <point x="733" y="114"/>
      <point x="566" y="114" type="curve"/>
      <point x="566" y="0"/>
      <point x="566" y="114"/>
    </contour>
    <contour>
      <point x="179" y="114" type="curve"/>
      <point x="12" y="114"/>
      <point x="195" y="114"/>
      <point x="28" y="114" type="curve"/>
      <point x="28" y="0"/>
      <point x="28" y="114"/>
      <point x="28" y="0" type="curve"/>
      <point x="84" y="0"/>
      <point x="124" y="0"/>
      <point x="179" y="0" type="curve"/>
      <point x="179" y="114"/>
      <point x="179" y="0"/>
    </contour>
    <contour>
      <point x="179" y="0" type="curve"/>
      <point x="232" y="0"/>
      <point x="164" y="0"/>
      <point x="320" y="0" type="curve"/>
      <point x="320" y="114"/>
      <point x="320" y="0"/>
      <point x="320" y="114" type="curve"/>
      <point x="164" y="114"/>
      <point x="336" y="114"/>
      <point x="179" y="114" type="curve"/>
      <point x="179" y="0"/>
      <point x="179" y="114"/>
    </contour>
    <contour>
      <point x="256" y="0" type="curve"/>
      <point x="256" y="178"/>
      <point x="256" y="355"/>
      <point x="256" y="533" type="curve"/>
      <point x="103" y="533"/>
      <point x="256" y="533"/>
      <point x="103" y="533" type="curve"/>
      <point x="103" y="355"/>
      <point x="103" y="178"/>
      <point x="103" y="0" type="curve"/>
      <point x="256" y="0"/>
      <point x="103" y="0"/>
    </contour>
    <contour>
      <point x="179" y="533" type="curve"/>
      <point x="124" y="533"/>
      <point x="84" y="533"/>
      <point x="28" y="533" type="curve"/>
      <point x="28" y="419"/>
      <point x="28" y="533"/>
      <point x="28" y="419" type="curve"/>
      <point x="195" y="419"/>
      <point x="12" y="419"/>
      <point x="179" y="419" type="curve"/>
      <point x="179" y="533"/>
      <point x="179" y="419"/>
    </contour>
    <contour>
      <point x="517" y="795" type="curve"/>
      <point x="503" y="760"/>
      <point x="486" y="738"/>
      <point x="463" y="738" type="curve"/>
      <point x="433" y="738"/>
      <point x="416" y="746"/>
      <point x="392" y="764" type="curve" smooth="yes"/>
      <point x="355" y="792"/>
      <point x="330" y="803"/>
      <point x="286" y="803" type="curve"/>
      <point x="205" y="803"/>
      <point x="159" y="746"/>
      <point x="128" y="666" type="curve"/>
      <point x="240" y="608"/>
      <point x="129" y="666"/>
      <point x="241" y="608" type="curve"/>
      <point x="260" y="651"/>
      <point x="279" y="668"/>
      <point x="303" y="668" type="curve"/>
      <point x="331" y="668"/>
      <point x="346" y="658"/>
      <point x="367" y="642" type="curve" smooth="yes"/>
      <point x="408" y="612"/>
      <point x="433" y="601"/>
      <point x="481" y="601" type="curve"/>
      <point x="564" y="601"/>
      <point x="607" y="658"/>
      <point x="637" y="739" type="curve"/>
      <point x="518" y="795"/>
      <point x="636" y="738"/>
    </contour>
  </outline>
</glyph>
<glyph name="ocircumflex" format="1">
  <advance width="674"/>
  <unicode hex="00F4"/>
  <outline>
    <contour>
      <point x="190" y="267" type="curve"/>
      <point x="190" y="357"/>
      <point x="236" y="422"/>
      <point x="330" y="422" type="curve"/>
      <point x="429" y="422"/>
      <point x="480" y="358"/>
      <point x="480" y="266" type="curve"/>
      <point x="480" y="169"/>
      <point x="431" y="111"/>
      <point x="341" y="111" type="curve"/>
      <point x="241" y="112"/>
      <point x="190" y="169"/>
      <point x="190" y="267" type="curve"/>
      <point x="104" y="267"/>
      <point x="127" y="267"/>
      <point x="42" y="267" type="curve"/>
      <point x="42" y="91"/>
      <point x="156" y="-5"/>
      <point x="334" y="-5" type="curve"/>
      <point x="514" y="-5"/>
      <point x="632" y="88"/>
      <point x="632" y="266" type="curve"/>
      <point x="632" y="438"/>
      <point x="519" y="538"/>
      <point x="338" y="538" type="curve"/>
      <point x="156" y="538"/>
      <point x="42" y="438"/>
      <point x="42" y="267" type="curve"/>
      <point x="127" y="267"/>
      <point x="104" y="267"/>
    </contour>
    <contour>
      <point x="245" y="611" type="line"/>
      <point x="406" y="777" type="line"/>
      <point x="213" y="777" type="line"/>
      <point x="98" y="611" type="line"/>
    </contour>
    <contour>
      <point x="576" y="611" type="line"/>
      <point x="458" y="777" type="line"/>
      <point x="265" y="777" type="line"/>
      <point x="426" y="611" type="line"/>
    </contour>
  </outline>
</glyph>
<glyph name="thorn" format="1">
  <advance width="709"/>
  <unicode hex="00FE"/>
  <outline>
    <contour>
      <point x="159" y="-186" type="curve"/>
      <point x="8" y="-186"/>
      <point x="159" y="-186"/>
      <point x="8" y="-186" type="curve"/>
      <point x="8" y="-300"/>
      <point x="8" y="-186"/>
      <point x="8" y="-300" type="curve"/>
      <point x="59" y="-300"/>
      <point x="109" y="-300"/>
      <point x="159" y="-300" type="curve"/>
      <point x="159" y="-186"/>
      <point x="159" y="-300"/>
    </contour>
    <contour>
      <point x="159" y="-300" type="curve"/>
      <point x="207" y="-300"/>
      <point x="254" y="-300"/>
      <point x="301" y="-300" type="curve"/>
      <point x="301" y="-186"/>
      <point x="301" y="-300"/>
      <point x="301" y="-186" type="curve"/>
      <point x="159" y="-186"/>
      <point x="301" y="-186"/>
      <point x="159" y="-186" type="curve"/>
      <point x="159" y="-300"/>
      <point x="159" y="-186"/>
    </contour>
    <contour>
      <point x="160" y="777" type="curve"/>
      <point x="110" y="777"/>
      <point x="60" y="777"/>
      <point x="10" y="777" type="curve"/>
      <point x="9" y="663"/>
      <point x="10" y="777"/>
      <point x="9" y="663" type="curve"/>
      <point x="160" y="663"/>
      <point x="9" y="663"/>
      <point x="160" y="663" type="curve"/>
      <point x="160" y="777"/>
      <point x="160" y="663"/>
    </contour>
    <contour>
      <point x="197" y="343" type="curve"/>
      <point x="233" y="380"/>
      <point x="298" y="423"/>
      <point x="377" y="423" type="curve"/>
      <point x="473" y="423"/>
      <point x="516" y="352"/>
      <point x="516" y="262" type="curve"/>
      <point x="517" y="166"/>
      <point x="467" y="108"/>
      <point x="379" y="109" type="curve"/>
      <point x="312" y="109"/>
      <point x="272" y="123"/>
      <point x="208" y="165" type="curve"/>
      <point x="131" y="103"/>
      <point x="208" y="165"/>
      <point x="131" y="103" type="curve"/>
      <point x="216" y="24"/>
      <point x="286" y="-5"/>
      <point x="391" y="-5" type="curve"/>
      <point x="561" y="-5"/>
      <point x="668" y="98"/>
      <point x="668" y="268" type="curve"/>
      <point x="668" y="426"/>
      <point x="568" y="540"/>
      <point x="393" y="540" type="curve"/>
      <point x="284" y="540"/>
      <point x="193" y="480"/>
      <point x="140" y="422" type="curve"/>
      <point x="197" y="343"/>
      <point x="140" y="422"/>
    </contour>
    <contour>
      <point x="236" y="-300" type="curve"/>
      <point x="236" y="-22"/>
      <point x="236" y="499"/>
      <point x="236" y="777" type="curve"/>
      <point x="84" y="777"/>
      <point x="236" y="777"/>
      <point x="84" y="777" type="curve"/>
      <point x="84" y="499"/>
      <point x="84" y="-22"/>
      <point x="84" y="-300" type="curve"/>
      <point x="236" y="-300"/>
      <point x="84" y="-300"/>
    </contour>
  </outline>
</glyph>
<glyph name="ydieresis" format="1">
  <advance width="722"/>
  <unicode hex="00FF"/>
  <outline>
    <contour>
      <point x="236" y="-185" type="curve"/>
      <point x="120" y="-186"/>
      <point x="236" y="-185"/>
      <point x="120" y="-186" type="curve"/>
      <point x="120" y="-300"/>
      <point x="120" y="-186"/>
      <point x="120" y="-300" type="curve"/>
      <point x="159" y="-300"/>
      <point x="197" y="-300"/>
      <point x="236" y="-300" type="curve"/>
      <point x="236" y="-185"/>
      <point x="236" y="-300"/>
    </contour>
    <contour>
      <point x="162" y="533" type="curve"/>
      <point x="116" y="533"/>
      <point x="68" y="533"/>
      <point x="21" y="533" type="curve"/>
      <point x="21" y="419"/>
      <point x="21" y="533"/>
      <point x="21" y="419" type="curve"/>
      <point x="162" y="420"/>
      <point x="21" y="419"/>
      <point x="162" y="420" type="curve"/>
      <point x="162" y="533"/>
      <point x="162" y="420"/>
    </contour>
    <contour>
      <point x="162" y="420" type="curve"/>
      <point x="319" y="419"/>
      <point x="162" y="420"/>
      <point x="319" y="419" type="curve"/>
      <point x="319" y="533"/>
      <point x="319" y="419"/>
      <point x="319" y="533" type="curve"/>
      <point x="267" y="533"/>
      <point x="215" y="533"/>
      <point x="162" y="533" type="curve"/>
      <point x="162" y="420"/>
      <point x="162" y="533"/>
    </contour>
    <contour>
      <point x="581" y="533" type="curve"/>
      <point x="525" y="533"/>
      <point x="469" y="533"/>
      <point x="413" y="533" type="curve"/>
      <point x="413" y="419"/>
      <point x="413" y="533"/>
      <point x="413" y="419" type="curve"/>
      <point x="581" y="420"/>
      <point x="413" y="419"/>
      <point x="581" y="420" type="curve"/>
      <point x="581" y="533"/>
      <point x="581" y="420"/>
    </contour>
    <contour>
      <point x="581" y="420" type="curve"/>
      <point x="712" y="419"/>
      <point x="581" y="420"/>
      <point x="712" y="419" type="curve"/>
      <point x="712" y="533"/>
      <point x="712" y="419"/>
      <point x="712" y="533" type="curve"/>
      <point x="668" y="533"/>
      <point x="624" y="533"/>
      <point x="581" y="533" type="curve"/>
      <point x="581" y="420"/>
      <point x="581" y="533"/>
    </contour>
    <contour>
      <point x="420" y="-16" type="curve"/>
      <point x="392" y="72"/>
      <point x="234" y="445"/>
      <point x="206" y="533" type="curve"/>
      <point x="50" y="533"/>
      <point x="206" y="533"/>
      <point x="50" y="533" type="curve"/>
      <point x="81" y="446"/>
      <point x="253" y="63"/>
      <point x="284" y="-23" type="curve"/>
      <point x="420" y="-23"/>
      <point x="284" y="-16"/>
    </contour>
    <contour>
      <point x="301" y="-300" type="curve"/>
      <point x="348" y="-169"/>
      <point x="639" y="402"/>
      <point x="686" y="533" type="curve"/>
      <point x="532" y="533"/>
      <point x="686" y="533"/>
      <point x="532" y="533" type="curve"/>
      <point x="484" y="402"/>
      <point x="193" y="-169"/>
      <point x="145" y="-300" type="curve"/>
      <point x="301" y="-300"/>
      <point x="145" y="-300"/>
    </contour>
    <contour>
      <point x="340" y="679" type="curve"/>
      <point x="340" y="729"/>
      <point x="304" y="753"/>
      <point x="254" y="753" type="curve"/>
      <point x="204" y="753"/>
      <point x="170" y="726"/>
      <point x="170" y="679" type="curve"/>
      <point x="340" y="679"/>
      <point x="170" y="679"/>
      <point x="340" y="679" type="curve"/>
      <point x="340" y="628"/>
      <point x="304" y="606"/>
      <point x="253" y="606" type="curve"/>
      <point x="203" y="606"/>
      <point x="170" y="630"/>
      <point x="170" y="679" type="curve"/>
      <point x="340" y="679"/>
      <point x="170" y="679"/>
    </contour>
    <contour>
      <point x="562" y="679" type="curve"/>
      <point x="562" y="729"/>
      <point x="525" y="753"/>
      <point x="476" y="753" type="curve"/>
      <point x="426" y="753"/>
      <point x="392" y="726"/>
      <point x="392" y="679" type="curve"/>
      <point x="562" y="679"/>
      <point x="392" y="679"/>
      <point x="562" y="679" type="curve"/>
      <point x="562" y="628"/>
      <point x="526" y="606"/>
      <point x="475" y="606" type="curve"/>
      <point x="425" y="606"/>
      <point x="392" y="630"/>
      <point x="392" y="679" type="curve"/>
      <point x="562" y="679"/>
      <point x="392" y="679"/>
    </contour>
  </outline>
</glyph>
<glyph name="Aogonek" format="1">
  <advance width="839"/>
  <unicode hex="0104"/>
  <outline>
    <contour>
      <point x="128" y="114" type="curve"/>
      <point x="-8" y="114"/>
      <point x="132" y="114"/>
      <point x="-4" y="114" type="curve"/>
      <point x="-4" y="0"/>
      <point x="-4" y="114"/>
      <point x="-4" y="0" type="curve"/>
      <point x="42" y="0"/>
      <point x="83" y="0"/>
      <point x="127" y="0" type="curve"/>
      <point x="128" y="114"/>
      <point x="127" y="0"/>
    </contour>
    <contour>
      <point x="128" y="0" type="curve"/>
      <point x="189" y="0"/>
      <point x="128" y="0"/>
      <point x="314" y="0" type="curve"/>
      <point x="314" y="114"/>
      <point x="314" y="0"/>
      <point x="314" y="114" type="curve"/>
      <point x="128" y="114"/>
      <point x="314" y="114"/>
      <point x="128" y="114" type="curve"/>
      <point x="128" y="0"/>
      <point x="128" y="114"/>
    </contour>
    <contour>
      <point x="697" y="0" type="curve"/>
      <point x="742" y="0"/>
      <point x="783" y="0"/>
      <point x="828" y="0" type="curve"/>
      <point x="828" y="114"/>
      <point x="828" y="0"/>
      <point x="828" y="114" type="curve"/>
      <point x="692" y="114"/>
      <point x="833" y="114"/>
      <point x="697" y="114" type="curve"/>
      <point x="697" y="0"/>
      <point x="697" y="114"/>
    </contour>
    <contour>
      <point x="697" y="114" type="curve"/>
      <point x="511" y="114"/>
      <point x="697" y="114"/>
      <point x="511" y="114" type="curve"/>
      <point x="511" y="0"/>
      <point x="511" y="114"/>
      <point x="511" y="0" type="curve"/>
      <point x="574" y="0"/>
      <point x="635" y="0"/>
      <point x="697" y="0" type="curve"/>
      <point x="697" y="114"/>
      <point x="697" y="0"/>
    </contour>
    <contour>
      <point x="583" y="306" type="curve"/>
      <point x="477" y="306"/>
      <point x="370" y="306"/>
      <point x="264" y="306" type="curve"/>
      <point x="202" y="186"/>
      <point x="264" y="306"/>
      <point x="202" y="186" type="curve"/>
      <point x="345" y="186"/>
      <point x="488" y="186"/>
      <point x="631" y="186" type="curve"/>
      <point x="583" y="306"/>
      <point x="631" y="186"/>
    </contour>
    <contour>
      <point x="789" y="0" type="curve"/>
      <point x="695" y="242"/>
      <point x="593" y="480"/>
      <point x="499" y="722" type="curve"/>
      <point x="360" y="722"/>
      <point x="499" y="722"/>
      <point x="360" y="722" type="curve"/>
      <point x="452" y="483"/>
      <point x="537" y="239"/>
      <point x="630" y="0" type="curve"/>
      <point x="789" y="0"/>
      <point x="630" y="0"/>
    </contour>
    <contour>
      <point x="198" y="0" type="curve"/>
      <point x="301" y="239"/>
      <point x="394" y="483"/>
      <point x="497" y="722" type="curve"/>
      <point x="359" y="722"/>
      <point x="497" y="722"/>
      <point x="359" y="722" type="curve"/>
      <point x="253" y="480"/>
      <point x="137" y="242"/>
      <point x="32" y="0" type="curve"/>
      <point x="198" y="0"/>
      <point x="32" y="0"/>
    </contour>
    <contour>
      <point x="720" y="84" type="curve"/>
      <point x="643" y="52"/>
      <point x="571" y="31"/>
      <point x="571" y="-49" type="curve"/>
      <point x="571" y="-132"/>
      <point x="630" y="-178"/>
      <point x="717" y="-178" type="curve"/>
      <point x="763" y="-178"/>
      <point x="793" y="-166"/>
      <point x="833" y="-145" type="curve"/>
      <point x="763" y="-55"/>
      <point x="833" y="-145"/>
      <point x="763" y="-55" type="curve"/>
      <point x="751" y="-60"/>
      <point x="742" y="-67"/>
      <point x="729" y="-67" type="curve"/>
      <point x="715" y="-67"/>
      <point x="705" y="-60"/>
      <point x="705" y="-47" type="curve"/>
      <point x="705" y="-17"/>
      <point x="744" y="-11"/>
      <point x="776" y="4" type="curve"/>
      <point x="720" y="84"/>
      <point x="776" y="4"/>
    </contour>
  </outline>
</glyph>
<glyph name="Dcaron" format="1">
  <advance width="877"/>
  <unicode hex="010E"/>
  <outline>
    <contour>
      <point x="223" y="114" type="curve"/>
      <point x="71" y="114"/>
      <point x="223" y="114"/>
      <point x="71" y="114" type="curve"/>
      <point x="71" y="0"/>
      <point x="71" y="114"/>
      <point x="71" y="0" type="curve"/>
      <point x="122" y="0"/>
      <point x="172" y="0"/>
      <point x="223" y="0" type="curve"/>
      <point x="223" y="114"/>
      <point x="223" y="0"/>
    </contour>
    <contour>
      <point x="223" y="722" type="curve"/>
      <point x="172" y="722"/>
      <point x="122" y="722"/>
      <point x="71" y="722" type="curve"/>
      <point x="71" y="608"/>
      <point x="71" y="722"/>
      <point x="71" y="608" type="curve"/>
      <point x="223" y="608"/>
      <point x="71" y="608"/>
      <point x="223" y="608" type="curve"/>
      <point x="223" y="722"/>
      <point x="223" y="608"/>
    </contour>
    <contour>
      <point x="144" y="722" type="curve"/>
      <point x="144" y="481"/>
      <point x="144" y="241"/>
      <point x="144" y="0" type="curve"/>
      <point x="297" y="0"/>
      <point x="144" y="0"/>
      <point x="297" y="0" type="curve"/>
      <point x="297" y="241"/>
      <point x="297" y="481"/>
      <point x="297" y="722" type="curve"/>
      <point x="144" y="722"/>
      <point x="297" y="722"/>
    </contour>
    <contour>
      <point x="223" y="0" type="curve"/>
      <point x="290" y="0"/>
      <point x="357" y="0"/>
      <point x="426" y="0" type="curve"/>
      <point x="676" y="0"/>
      <point x="823" y="112"/>
      <point x="823" y="354" type="curve"/>
      <point x="823" y="604"/>
      <point x="677" y="722"/>
      <point x="420" y="722" type="curve"/>
      <point x="355" y="722"/>
      <point x="289" y="722"/>
      <point x="223" y="722" type="curve"/>
      <point x="223" y="608"/>
      <point x="223" y="722"/>
      <point x="223" y="608" type="curve"/>
      <point x="286" y="608"/>
      <point x="350" y="608"/>
      <point x="413" y="608" type="curve"/>
      <point x="585" y="608"/>
      <point x="671" y="520"/>
      <point x="671" y="350" type="curve"/>
      <point x="671" y="195"/>
      <point x="593" y="114"/>
      <point x="438" y="114" type="curve"/>
      <point x="366" y="114"/>
      <point x="295" y="114"/>
      <point x="223" y="114" type="curve"/>
      <point x="223" y="0"/>
      <point x="223" y="114"/>
    </contour>
    <contour>
      <point x="507" y="946" type="line"/>
      <point x="346" y="780" type="line"/>
      <point x="539" y="780" type="line"/>
      <point x="654" y="946" type="line"/>
    </contour>
    <contour>
      <point x="163" y="946" type="line"/>
      <point x="280" y="780" type="line"/>
      <point x="473" y="780" type="line"/>
      <point x="312" y="946" type="line"/>
    </contour>
  </outline>
</glyph>
<glyph name="Eogonek" format="1">
  <advance width="712"/>
  <unicode hex="0118"/>
  <outline>
    <contour>
      <point x="668" y="57" type="curve"/>
      <point x="668" y="177"/>
      <point x="668" y="57"/>
      <point x="668" y="177" type="curve"/>
      <point x="551" y="177"/>
      <point x="668" y="177"/>
      <point x="551" y="177" type="curve"/>
      <point x="551" y="57"/>
      <point x="551" y="177"/>
      <point x="551" y="57" type="curve"/>
      <point x="668" y="57"/>
      <point x="551" y="57"/>
    </contour>
    <contour>
      <point x="515" y="665" type="curve"/>
      <point x="515" y="545"/>
      <point x="515" y="665"/>
      <point x="515" y="545" type="curve"/>
      <point x="633" y="545"/>
      <point x="515" y="545"/>
      <point x="633" y="545" type="curve"/>
      <point x="633" y="665"/>
      <point x="633" y="545"/>
      <point x="633" y="665" type="curve"/>
      <point x="515" y="665"/>
      <point x="633" y="665"/>
    </contour>
    <contour>
      <point x="223" y="114" type="curve"/>
      <point x="71" y="114"/>
      <point x="223" y="114"/>
      <point x="71" y="114" type="curve"/>
      <point x="71" y="0"/>
      <point x="71" y="114"/>
      <point x="71" y="0" type="curve"/>
      <point x="122" y="0"/>
      <point x="172" y="0"/>
      <point x="223" y="0" type="curve"/>
      <point x="223" y="114"/>
      <point x="223" y="0"/>
    </contour>
    <contour>
      <point x="223" y="722" type="curve"/>
      <point x="172" y="722"/>
      <point x="122" y="722"/>
      <point x="71" y="722" type="curve"/>
      <point x="71" y="608"/>
      <point x="71" y="722"/>
      <point x="71" y="608" type="curve"/>
      <point x="223" y="608"/>
      <point x="71" y="608"/>
      <point x="223" y="608" type="curve"/>
      <point x="223" y="722"/>
      <point x="223" y="608"/>
    </contour>
    <contour>
      <point x="226" y="315" type="curve"/>
      <point x="340" y="315"/>
      <point x="454" y="315"/>
      <point x="568" y="315" type="curve"/>
      <point x="568" y="430"/>
      <point x="568" y="315"/>
      <point x="568" y="430" type="curve"/>
      <point x="454" y="430"/>
      <point x="340" y="430"/>
      <point x="226" y="430" type="curve"/>
      <point x="226" y="315"/>
      <point x="226" y="430"/>
    </contour>
    <contour>
      <point x="210" y="608" type="curve"/>
      <point x="351" y="608"/>
      <point x="492" y="608"/>
      <point x="633" y="608" type="curve"/>
      <point x="633" y="722"/>
      <point x="633" y="608"/>
      <point x="633" y="722" type="curve"/>
      <point x="492" y="722"/>
      <point x="351" y="722"/>
      <point x="210" y="722" type="curve"/>
      <point x="210" y="608"/>
      <point x="210" y="722"/>
    </contour>
    <contour>
      <point x="298" y="0" type="curve"/>
      <point x="298" y="722" type="line"/>
      <point x="145" y="722"/>
      <point x="298" y="722"/>
      <point x="145" y="722" type="curve"/>
      <point x="145" y="481"/>
      <point x="145" y="241"/>
      <point x="145" y="0" type="curve"/>
      <point x="298" y="0"/>
      <point x="145" y="0"/>
    </contour>
    <contour>
      <point x="210" y="0" type="curve"/>
      <point x="363" y="0"/>
      <point x="515" y="0"/>
      <point x="668" y="0" type="curve"/>
      <point x="668" y="114"/>
      <point x="668" y="0"/>
      <point x="668" y="114" type="curve"/>
      <point x="515" y="114"/>
      <point x="363" y="114"/>
      <point x="210" y="114" type="curve"/>
      <point x="210" y="0"/>
      <point x="210" y="114"/>
    </contour>
    <contour>
      <point x="584" y="87" type="curve"/>
      <point x="507" y="56"/>
      <point x="435" y="35"/>
      <point x="435" y="-46" type="curve"/>
      <point x="435" y="-129"/>
      <point x="494" y="-175"/>
      <point x="581" y="-175" type="curve"/>
      <point x="627" y="-175"/>
      <point x="657" y="-163"/>
      <point x="697" y="-142" type="curve"/>
      <point x="627" y="-51"/>
      <point x="697" y="-142"/>
      <point x="627" y="-51" type="curve"/>
      <point x="615" y="-57"/>
      <point x="606" y="-64"/>
      <point x="592" y="-64" type="curve"/>
      <point x="579" y="-64"/>
      <point x="568" y="-57"/>
      <point x="568" y="-44" type="curve"/>
      <point x="568" y="-13"/>
      <point x="608" y="-8"/>
      <point x="640" y="8" type="curve"/>
      <point x="584" y="87"/>
      <point x="640" y="8"/>
    </contour>
  </outline>
</glyph>
<glyph name="Ecaron" format="1">
  <advance width="710"/>
  <unicode hex="011A"/>
  <outline>
    <contour>
      <point x="668" y="57" type="curve"/>
      <point x="668" y="177"/>
      <point x="668" y="57"/>
      <point x="668" y="177" type="curve"/>
      <point x="551" y="177"/>
      <point x="668" y="177"/>
      <point x="551" y="177" type="curve"/>
      <point x="551" y="57"/>
      <point x="551" y="177"/>
      <point x="551" y="57" type="curve"/>
      <point x="668" y="57"/>
      <point x="551" y="57"/>
    </contour>
    <contour>
      <point x="515" y="665" type="curve"/>
      <point x="515" y="545"/>
      <point x="515" y="665"/>
      <point x="515" y="545" type="curve"/>
      <point x="633" y="545"/>
      <point x="515" y="545"/>
      <point x="633" y="545" type="curve"/>
      <point x="633" y="665"/>
      <point x="633" y="545"/>
      <point x="633" y="665" type="curve"/>
      <point x="515" y="665"/>
      <point x="633" y="665"/>
    </contour>
    <contour>
      <point x="223" y="114" type="curve"/>
      <point x="71" y="114"/>
      <point x="223" y="114"/>
      <point x="71" y="114" type="curve"/>
      <point x="71" y="0"/>
      <point x="71" y="114"/>
      <point x="71" y="0" type="curve"/>
      <point x="122" y="0"/>
      <point x="172" y="0"/>
      <point x="223" y="0" type="curve"/>
      <point x="223" y="114"/>
      <point x="223" y="0"/>
    </contour>
    <contour>
      <point x="223" y="722" type="curve"/>
      <point x="172" y="722"/>
      <point x="122" y="722"/>
      <point x="71" y="722" type="curve"/>
      <point x="71" y="608"/>
      <point x="71" y="722"/>
      <point x="71" y="608" type="curve"/>
      <point x="223" y="608"/>
      <point x="71" y="608"/>
      <point x="223" y="608" type="curve"/>
      <point x="223" y="722"/>
      <point x="223" y="608"/>
    </contour>
    <contour>
      <point x="226" y="315" type="curve"/>
      <point x="340" y="315"/>
      <point x="454" y="315"/>
      <point x="568" y="315" type="curve"/>
      <point x="568" y="430"/>
      <point x="568" y="315"/>
      <point x="568" y="430" type="curve"/>
      <point x="454" y="430"/>
      <point x="340" y="430"/>
      <point x="226" y="430" type="curve"/>
      <point x="226" y="315"/>
      <point x="226" y="430"/>
    </contour>
    <contour>
      <point x="210" y="608" type="curve"/>
      <point x="351" y="608"/>
      <point x="492" y="608"/>
      <point x="633" y="608" type="curve"/>
      <point x="633" y="722"/>
      <point x="633" y="608"/>
      <point x="633" y="722" type="curve"/>
      <point x="492" y="722"/>
      <point x="351" y="722"/>
      <point x="210" y="722" type="curve"/>
      <point x="210" y="608"/>
      <point x="210" y="722"/>
    </contour>
    <contour>
      <point x="298" y="0" type="curve"/>
      <point x="298" y="722" type="line"/>
      <point x="145" y="722"/>
      <point x="298" y="722"/>
      <point x="145" y="722" type="curve"/>
      <point x="145" y="481"/>
      <point x="145" y="241"/>
      <point x="145" y="0" type="curve"/>
      <point x="298" y="0"/>
      <point x="145" y="0"/>
    </contour>
    <contour>
      <point x="210" y="0" type="curve"/>
      <point x="363" y="0"/>
      <point x="515" y="0"/>
      <point x="668" y="0" type="curve"/>
      <point x="668" y="114"/>
      <point x="668" y="0"/>
      <point x="668" y="114" type="curve"/>
      <point x="515" y="114"/>
      <point x="363" y="114"/>
      <point x="210" y="114" type="curve"/>
      <point x="210" y="0"/>
      <point x="210" y="114"/>
    </contour>
    <contour>
      <point x="467" y="946" type="line"/>
      <point x="306" y="780" type="line"/>
      <point x="499" y="780" type="line"/>
      <point x="615" y="946" type="line"/>
    </contour>
    <contour>
      <point x="123" y="946" type="line"/>
      <point x="241" y="780" type="line"/>
      <point x="434" y="780" type="line"/>
      <point x="273" y="946" type="line"/>
    </contour>
  </outline>
</glyph>
<glyph name="Gbreve" format="1">
  <advance width="864"/>
  <unicode hex="011E"/>
  <outline>
    <contour>
      <point x="662" y="646" type="curve"/>
      <point x="662" y="516"/>
      <point x="662" y="624"/>
      <point x="662" y="495" type="curve"/>
      <point x="779" y="495"/>
      <point x="662" y="495"/>
      <point x="779" y="495" type="curve"/>
      <point x="779" y="624"/>
      <point x="779" y="516"/>
      <point x="779" y="646" type="curve"/>
      <point x="662" y="646"/>
      <point x="779" y="646"/>
    </contour>
    <contour>
      <point x="757" y="372" type="curve"/>
      <point x="680" y="372"/>
      <point x="604" y="372"/>
      <point x="527" y="372" type="curve"/>
      <point x="527" y="258"/>
      <point x="527" y="372"/>
      <point x="527" y="258" type="curve"/>
      <point x="604" y="258"/>
      <point x="680" y="258"/>
      <point x="757" y="258" type="curve"/>
      <point x="757" y="372"/>
      <point x="757" y="258"/>
    </contour>
    <contour>
      <point x="797" y="79" type="curve"/>
      <point x="797" y="177"/>
      <point x="797" y="274"/>
      <point x="797" y="372" type="curve"/>
      <point x="659" y="372"/>
      <point x="797" y="372"/>
      <point x="659" y="372" type="curve"/>
      <point x="659" y="274"/>
      <point x="659" y="177"/>
      <point x="659" y="79" type="curve"/>
      <point x="797" y="79"/>
      <point x="659" y="79"/>
    </contour>
    <contour>
      <point x="779" y="646" type="curve"/>
      <point x="674" y="703"/>
      <point x="580" y="727"/>
      <point x="460" y="727" type="curve"/>
      <point x="212" y="727"/>
      <point x="53" y="602"/>
      <point x="53" y="359" type="curve"/>
      <point x="53" y="115"/>
      <point x="219" y="-5"/>
      <point x="471" y="-5" type="curve"/>
      <point x="600" y="-5"/>
      <point x="682" y="23"/>
      <point x="797" y="79" type="curve"/>
      <point x="721" y="164"/>
      <point x="797" y="79"/>
      <point x="721" y="164" type="curve"/>
      <point x="634" y="123"/>
      <point x="567" y="114"/>
      <point x="471" y="114" type="curve"/>
      <point x="303" y="114"/>
      <point x="206" y="204"/>
      <point x="206" y="371" type="curve"/>
      <point x="206" y="526"/>
      <point x="302" y="608"/>
      <point x="460" y="608" type="curve"/>
      <point x="551" y="608"/>
      <point x="623" y="592"/>
      <point x="703" y="548" type="curve"/>
      <point x="779" y="646"/>
      <point x="703" y="548"/>
    </contour>
    <contour>
      <point x="523" y="952" type="curve"/>
      <point x="523" y="915"/>
      <point x="501" y="890"/>
      <point x="458" y="890" type="curve"/>
      <point x="415" y="890"/>
      <point x="391" y="913"/>
      <point x="391" y="953" type="curve"/>
      <point x="301" y="953"/>
      <point x="339" y="953"/>
      <point x="249" y="953" type="curve"/>
      <point x="249" y="840"/>
      <point x="333" y="781"/>
      <point x="455" y="781" type="curve"/>
      <point x="578" y="781"/>
      <point x="664" y="839"/>
      <point x="664" y="952" type="curve"/>
      <point x="574" y="952"/>
      <point x="613" y="952"/>
    </contour>
  </outline>
</glyph>
<glyph name="Imacron" format="1">
  <advance width="390"/>
  <unicode hex="012A"/>
  <outline>
    <contour>
      <point x="196" y="722" type="curve"/>
      <point x="140" y="722"/>
      <point x="100" y="722"/>
      <point x="44" y="722" type="curve"/>
      <point x="44" y="608"/>
      <point x="44" y="722"/>
      <point x="44" y="608" type="curve"/>
      <point x="212" y="608"/>
      <point x="28" y="608"/>
      <point x="196" y="608" type="curve"/>
      <point x="196" y="722"/>
      <point x="196" y="608"/>
    </contour>
    <contour>
      <point x="196" y="608" type="curve"/>
      <point x="363" y="608"/>
      <point x="180" y="608"/>
      <point x="347" y="608" type="curve"/>
      <point x="347" y="722"/>
      <point x="347" y="608"/>
      <point x="347" y="722" type="curve"/>
      <point x="291" y="722"/>
      <point x="251" y="722"/>
      <point x="196" y="722" type="curve"/>
      <point x="196" y="608"/>
      <point x="196" y="722"/>
    </contour>
    <contour>
      <point x="196" y="0" type="curve"/>
      <point x="251" y="0"/>
      <point x="291" y="0"/>
      <point x="347" y="0" type="curve"/>
      <point x="347" y="114"/>
      <point x="347" y="0"/>
      <point x="347" y="114" type="curve"/>
      <point x="180" y="114"/>
      <point x="363" y="114"/>
      <point x="196" y="114" type="curve"/>
      <point x="196" y="0"/>
      <point x="196" y="114"/>
    </contour>
    <contour>
      <point x="196" y="114" type="curve"/>
      <point x="28" y="114"/>
      <point x="212" y="114"/>
      <point x="44" y="114" type="curve"/>
      <point x="44" y="0"/>
      <point x="44" y="114"/>
      <point x="44" y="0" type="curve"/>
      <point x="100" y="0"/>
      <point x="140" y="0"/>
      <point x="196" y="0" type="curve"/>
      <point x="196" y="114"/>
      <point x="196" y="0"/>
    </contour>
    <contour>
      <point x="271" y="0" type="curve"/>
      <point x="271" y="241"/>
      <point x="271" y="481"/>
      <point x="271" y="722" type="curve"/>
      <point x="118" y="722"/>
      <point x="271" y="722"/>
      <point x="118" y="722" type="curve"/>
      <point x="118" y="481"/>
      <point x="118" y="241"/>
      <point x="118" y="0" type="curve"/>
      <point x="271" y="0"/>
      <point x="118" y="0"/>
    </contour>
    <contour>
      <point x="312" y="894" type="curve"/>
      <point x="234" y="894"/>
      <point x="155" y="894"/>
      <point x="77" y="894" type="curve"/>
      <point x="77" y="780"/>
      <point x="77" y="894"/>
      <point x="77" y="780" type="curve"/>
      <point x="155" y="780"/>
      <point x="234" y="780"/>
      <point x="312" y="780" type="curve"/>
      <point x="312" y="894"/>
      <point x="312" y="780"/>
    </contour>
  </outline>
</glyph>
<glyph name="kcommaaccent" format="1">
  <advance width="651"/>
  <unicode hex="0137"/>
  <outline>
    <contour>
      <point x="158" y="113" type="curve"/>
      <point x="-9" y="114"/>
      <point x="174" y="113"/>
      <point x="7" y="114" type="curve"/>
      <point x="7" y="0"/>
      <point x="7" y="114"/>
      <point x="7" y="0" type="curve"/>
      <point x="63" y="0"/>
      <point x="102" y="-1"/>
      <point x="158" y="-1" type="curve"/>
      <point x="158" y="113"/>
      <point x="158" y="-1"/>
    </contour>
    <contour>
      <point x="485" y="-1" type="curve"/>
      <point x="543" y="-1"/>
      <point x="576" y="0"/>
      <point x="634" y="0" type="curve"/>
      <point x="634" y="114"/>
      <point x="634" y="0"/>
      <point x="634" y="114" type="curve"/>
      <point x="459" y="113"/>
      <point x="661" y="114"/>
      <point x="486" y="113" type="curve"/>
      <point x="486" y="-1"/>
      <point x="485" y="113"/>
    </contour>
    <contour>
      <point x="494" y="419" type="curve"/>
      <point x="637" y="419"/>
      <point x="467" y="419"/>
      <point x="610" y="419" type="curve"/>
      <point x="610" y="533"/>
      <point x="610" y="419"/>
      <point x="610" y="533" type="curve"/>
      <point x="562" y="533"/>
      <point x="541" y="533"/>
      <point x="494" y="533" type="curve"/>
      <point x="494" y="419"/>
      <point x="494" y="533"/>
    </contour>
    <contour>
      <point x="158" y="-1" type="curve"/>
      <point x="202" y="-1"/>
      <point x="158" y="-1"/>
      <point x="290" y="0" type="curve"/>
      <point x="290" y="114"/>
      <point x="290" y="0"/>
      <point x="290" y="114" type="curve"/>
      <point x="158" y="113"/>
      <point x="290" y="114"/>
      <point x="158" y="113" type="curve"/>
      <point x="158" y="-1"/>
      <point x="158" y="113"/>
    </contour>
    <contour>
      <point x="518" y="533" type="curve"/>
      <point x="440" y="533"/>
      <point x="367" y="533"/>
      <point x="289" y="533" type="curve"/>
      <point x="289" y="419"/>
      <point x="289" y="533"/>
      <point x="289" y="419" type="curve"/>
      <point x="524" y="419"/>
      <point x="284" y="419"/>
      <point x="518" y="419" type="curve"/>
      <point x="518" y="533"/>
      <point x="518" y="419"/>
    </contour>
    <contour>
      <point x="160" y="799" type="curve"/>
      <point x="104" y="799"/>
      <point x="65" y="800"/>
      <point x="9" y="800" type="curve"/>
      <point x="9" y="686"/>
      <point x="9" y="800"/>
      <point x="9" y="686" type="curve"/>
      <point x="176" y="686"/>
      <point x="-7" y="686"/>
      <point x="160" y="686" type="curve"/>
      <point x="160" y="799"/>
      <point x="160" y="686"/>
    </contour>
    <contour>
      <point x="235" y="0" type="curve"/>
      <point x="235" y="800" type="line"/>
      <point x="83" y="800"/>
      <point x="235" y="800"/>
      <point x="83" y="800" type="curve"/>
      <point x="83" y="533"/>
      <point x="83" y="267"/>
      <point x="83" y="0" type="curve"/>
      <point x="235" y="0"/>
      <point x="83" y="0"/>
    </contour>
    <contour>
      <point x="450" y="533" type="curve"/>
      <point x="200" y="275" type="line"/>
      <point x="369" y="275"/>
      <point x="200" y="275"/>
      <point x="369" y="275" type="curve"/>
      <point x="592" y="484" type="line"/>
      <point x="417" y="484"/>
      <point x="624" y="533"/>
    </contour>
    <contour>
      <point x="607" y="64" type="curve"/>
      <point x="368" y="275" type="line"/>
      <point x="200" y="275"/>
      <point x="368" y="275"/>
      <point x="200" y="275" type="curve"/>
      <point x="477" y="0" type="line"/>
      <point x="646" y="0"/>
      <point x="437" y="64"/>
    </contour>
    <contour>
      <point x="274" y="-406" type="line"/>
      <point x="385" y="-406"/>
      <point x="461" y="-333"/>
      <point x="461" y="-225" type="curve"/>
      <point x="461" y="-140"/>
      <point x="422" y="-84"/>
      <point x="363" y="-84" type="curve"/>
      <point x="315" y="-84"/>
      <point x="280" y="-109"/>
      <point x="280" y="-158" type="curve"/>
      <point x="280" y="-203"/>
      <point x="312" y="-231"/>
      <point x="361" y="-231" type="curve"/>
      <point x="360" y="-269"/>
      <point x="348" y="-315"/>
      <point x="274" y="-326" type="curve"/>
    </contour>
  </outline>
</glyph>
<glyph name="lacute" format="1">
  <advance width="380"/>
  <unicode hex="013A"/>
  <outline>
    <contour>
      <point x="189" y="113" type="curve"/>
      <point x="22" y="114"/>
      <point x="189" y="113"/>
      <point x="22" y="114" type="curve"/>
      <point x="22" y="0"/>
      <point x="22" y="114"/>
      <point x="22" y="0" type="curve"/>
      <point x="78" y="0"/>
      <point x="133" y="-1"/>
      <point x="189" y="-1" type="curve"/>
      <point x="189" y="114"/>
      <point x="189" y="-1"/>
    </contour>
    <contour>
      <point x="191" y="799" type="curve"/>
      <point x="135" y="799"/>
      <point x="79" y="800"/>
      <point x="24" y="800" type="curve"/>
      <point x="24" y="686"/>
      <point x="24" y="800"/>
      <point x="24" y="686" type="curve"/>
      <point x="191" y="686"/>
      <point x="24" y="686"/>
      <point x="191" y="686" type="curve"/>
      <point x="191" y="799"/>
      <point x="191" y="686"/>
    </contour>
    <contour>
      <point x="189" y="-1" type="curve"/>
      <point x="245" y="-1"/>
      <point x="300" y="0"/>
      <point x="357" y="0" type="curve"/>
      <point x="357" y="114"/>
      <point x="357" y="0"/>
      <point x="357" y="114" type="curve"/>
      <point x="189" y="113"/>
      <point x="357" y="114"/>
      <point x="189" y="113" type="curve"/>
      <point x="189" y="-1"/>
      <point x="189" y="114"/>
    </contour>
    <contour>
      <point x="264" y="0" type="curve"/>
      <point x="264" y="267"/>
      <point x="264" y="533"/>
      <point x="264" y="800" type="curve"/>
      <point x="112" y="800"/>
      <point x="264" y="800"/>
      <point x="112" y="800" type="curve"/>
      <point x="112" y="533"/>
      <point x="112" y="267"/>
      <point x="112" y="0" type="curve"/>
      <point x="264" y="0"/>
      <point x="112" y="0"/>
    </contour>
    <contour>
      <point x="253" y="878" type="line"/>
      <point x="414" y="1044" type="line"/>
      <point x="221" y="1044" type="line"/>
      <point x="105" y="878" type="line"/>
    </contour>
  </outline>
</glyph>
<glyph name="lcommaaccent" format="1">
  <advance width="377"/>
  <unicode hex="013C"/>
  <outline>
    <contour>
      <point x="189" y="113" type="curve"/>
      <point x="22" y="114"/>
      <point x="189" y="113"/>
      <point x="22" y="114" type="curve"/>
      <point x="22" y="0"/>
      <point x="22" y="114"/>
      <point x="22" y="0" type="curve"/>
      <point x="78" y="0"/>
      <point x="133" y="-1"/>
      <point x="189" y="-1" type="curve"/>
      <point x="189" y="114"/>
      <point x="189" y="-1"/>
    </contour>
    <contour>
      <point x="191" y="799" type="curve"/>
      <point x="135" y="799"/>
      <point x="79" y="800"/>
      <point x="24" y="800" type="curve"/>
      <point x="24" y="686"/>
      <point x="24" y="800"/>
      <point x="24" y="686" type="curve"/>
      <point x="191" y="686"/>
      <point x="24" y="686"/>
      <point x="191" y="686" type="curve"/>
      <point x="191" y="799"/>
      <point x="191" y="686"/>
    </contour>
    <contour>
      <point x="189" y="-1" type="curve"/>
      <point x="245" y="-1"/>
      <point x="300" y="0"/>
      <point x="357" y="0" type="curve"/>
      <point x="357" y="114"/>
      <point x="357" y="0"/>
      <point x="357" y="114" type="curve"/>
      <point x="189" y="113"/>
      <point x="357" y="114"/>
      <point x="189" y="113" type="curve"/>
      <point x="189" y="-1"/>
      <point x="189" y="114"/>
    </contour>
    <contour>
      <point x="264" y="0" type="curve"/>
      <point x="264" y="267"/>
      <point x="264" y="533"/>
      <point x="264" y="800" type="curve"/>
      <point x="112" y="800"/>
      <point x="264" y="800"/>
      <point x="112" y="800" type="curve"/>
      <point x="112" y="533"/>
      <point x="112" y="267"/>
      <point x="112" y="0" type="curve"/>
      <point x="264" y="0"/>
      <point x="112" y="0"/>
    </contour>
    <contour>
      <point x="130" y="-397" type="line"/>
      <point x="241" y="-397"/>
      <point x="317" y="-324"/>
      <point x="317" y="-216" type="curve"/>
      <point x="317" y="-131"/>
      <point x="278" y="-75"/>
      <point x="219" y="-75" type="curve"/>
      <point x="171" y="-75"/>
      <point x="136" y="-100"/>
      <point x="136" y="-149" type="curve"/>
      <point x="136" y="-194"/>
      <point x="168" y="-222"/>
      <point x="217" y="-222" type="curve"/>
      <point x="216" y="-260"/>
      <point x="204" y="-306"/>
      <point x="130" y="-317" type="curve"/>
    </contour>
  </outline>
</glyph>
<glyph name="ncaron" format="1">
  <advance width="723"/>
  <unicode hex="0148"/>
  <outline>
    <contour>
      <point x="223" y="253" type="curve"/>
      <point x="249" y="347"/>
      <point x="299" y="419"/>
      <point x="383" y="419" type="curve"/>
      <point x="453" y="419"/>
      <point x="491" y="377"/>
      <point x="491" y="306" type="curve"/>
      <point x="491" y="199"/>
      <point x="491" y="107"/>
      <point x="491" y="0" type="curve"/>
      <point x="589" y="0"/>
      <point x="545" y="0"/>
      <point x="643" y="0" type="curve"/>
      <point x="643" y="111"/>
      <point x="643" y="207"/>
      <point x="643" y="318" type="curve"/>
      <point x="643" y="459"/>
      <point x="571" y="538"/>
      <point x="427" y="538" type="curve"/>
      <point x="296" y="538"/>
      <point x="205" y="454"/>
      <point x="160" y="310" type="curve"/>
      <point x="195" y="270"/>
      <point x="188" y="294"/>
    </contour>
    <contour>
      <point x="566" y="0" type="curve"/>
      <point x="621" y="0"/>
      <point x="661" y="0"/>
      <point x="717" y="0" type="curve"/>
      <point x="717" y="114"/>
      <point x="717" y="0"/>
      <point x="717" y="114" type="curve"/>
      <point x="550" y="114"/>
      <point x="733" y="114"/>
      <point x="566" y="114" type="curve"/>
      <point x="566" y="0"/>
      <point x="566" y="114"/>
    </contour>
    <contour>
      <point x="179" y="114" type="curve"/>
      <point x="12" y="114"/>
      <point x="195" y="114"/>
      <point x="28" y="114" type="curve"/>
      <point x="28" y="0"/>
      <point x="28" y="114"/>
      <point x="28" y="0" type="curve"/>
      <point x="84" y="0"/>
      <point x="124" y="0"/>
      <point x="179" y="0" type="curve"/>
      <point x="179" y="114"/>
      <point x="179" y="0"/>
    </contour>
    <contour>
      <point x="179" y="0" type="curve"/>
      <point x="232" y="0"/>
      <point x="164" y="0"/>
      <point x="320" y="0" type="curve"/>
      <point x="320" y="114"/>
      <point x="320" y="0"/>
      <point x="320" y="114" type="curve"/>
      <point x="164" y="114"/>
      <point x="336" y="114"/>
      <point x="179" y="114" type="curve"/>
      <point x="179" y="0"/>
      <point x="179" y="114"/>
    </contour>
    <contour>
      <point x="256" y="0" type="curve"/>
      <point x="256" y="178"/>
      <point x="256" y="355"/>
      <point x="256" y="533" type="curve"/>
      <point x="103" y="533"/>
      <point x="256" y="533"/>
      <point x="103" y="533" type="curve"/>
      <point x="103" y="355"/>
      <point x="103" y="178"/>
      <point x="103" y="0" type="curve"/>
      <point x="256" y="0"/>
      <point x="103" y="0"/>
    </contour>
    <contour>
      <point x="179" y="533" type="curve"/>
      <point x="124" y="533"/>
      <point x="84" y="533"/>
      <point x="28" y="533" type="curve"/>
      <point x="28" y="419"/>
      <point x="28" y="533"/>
      <point x="28" y="419" type="curve"/>
      <point x="195" y="419"/>
      <point x="12" y="419"/>
      <point x="179" y="419" type="curve"/>
      <point x="179" y="533"/>
      <point x="179" y="419"/>
    </contour>
    <contour>
      <point x="481" y="776" type="line"/>
      <point x="320" y="610" type="line"/>
      <point x="513" y="610" type="line"/>
      <point x="628" y="776" type="line"/>
    </contour>
    <contour>
      <point x="137" y="776" type="line"/>
      <point x="255" y="610" type="line"/>
      <point x="448" y="610" type="line"/>
      <point x="286" y="776" type="line"/>
    </contour>
  </outline>
</glyph>
<glyph name="omacron" format="1">
  <advance width="674"/>
  <unicode hex="014D"/>
  <outline>
    <contour>
      <point x="190" y="267" type="curve"/>
      <point x="190" y="357"/>
      <point x="236" y="422"/>
      <point x="330" y="422" type="curve"/>
      <point x="429" y="422"/>
      <point x="480" y="358"/>
      <point x="480" y="266" type="curve"/>
      <point x="480" y="169"/>
      <point x="431" y="111"/>
      <point x="341" y="111" type="curve"/>
      <point x="241" y="112"/>
      <point x="190" y="169"/>
      <point x="190" y="267" type="curve"/>
      <point x="104" y="267"/>
      <point x="127" y="267"/>
      <point x="42" y="267" type="curve"/>
      <point x="42" y="91"/>
      <point x="156" y="-5"/>
      <point x="334" y="-5" type="curve"/>
      <point x="514" y="-5"/>
      <point x="632" y="88"/>
      <point x="632" y="266" type="curve"/>
      <point x="632" y="438"/>
      <point x="519" y="538"/>
      <point x="338" y="538" type="curve"/>
      <point x="156" y="538"/>
      <point x="42" y="438"/>
      <point x="42" y="267" type="curve"/>
      <point x="127" y="267"/>
      <point x="104" y="267"/>
    </contour>
    <contour>
      <point x="453" y="724" type="curve"/>
      <point x="374" y="724"/>
      <point x="296" y="724"/>
      <point x="218" y="724" type="curve"/>
      <point x="218" y="610"/>
      <point x="218" y="724"/>
      <point x="218" y="610" type="curve"/>
      <point x="296" y="610"/>
      <point x="374" y="610"/>
      <point x="453" y="610" type="curve"/>
      <point x="453" y="724"/>
      <point x="453" y="610"/>
    </contour>
  </outline>
</glyph>
<glyph name="Tcaron" format="1">
  <advance width="693"/>
  <unicode hex="0164"/>
  <outline>
    <contour>
      <point x="24" y="664" type="curve"/>
      <point x="24" y="544"/>
      <point x="24" y="664"/>
      <point x="24" y="544" type="curve"/>
      <point x="140" y="544"/>
      <point x="24" y="544"/>
      <point x="140" y="544" type="curve"/>
      <point x="140" y="664"/>
      <point x="140" y="544"/>
      <point x="140" y="664" type="curve"/>
      <point x="24" y="664"/>
      <point x="140" y="664"/>
    </contour>
    <contour>
      <point x="552" y="664" type="curve"/>
      <point x="552" y="544"/>
      <point x="552" y="664"/>
      <point x="552" y="544" type="curve"/>
      <point x="669" y="544"/>
      <point x="552" y="544"/>
      <point x="669" y="544" type="curve"/>
      <point x="669" y="664"/>
      <point x="669" y="544"/>
      <point x="669" y="664" type="curve"/>
      <point x="552" y="664"/>
      <point x="669" y="664"/>
    </contour>
    <contour>
      <point x="345" y="0" type="curve"/>
      <point x="396" y="0"/>
      <point x="446" y="0"/>
      <point x="497" y="0" type="curve"/>
      <point x="497" y="114"/>
      <point x="497" y="0"/>
      <point x="497" y="114" type="curve"/>
      <point x="345" y="114"/>
      <point x="497" y="114"/>
      <point x="345" y="114" type="curve"/>
      <point x="345" y="0"/>
      <point x="345" y="114"/>
    </contour>
    <contour>
      <point x="345" y="114" type="curve"/>
      <point x="194" y="114"/>
      <point x="345" y="114"/>
      <point x="194" y="114" type="curve"/>
      <point x="194" y="0"/>
      <point x="194" y="114"/>
      <point x="194" y="0" type="curve"/>
      <point x="244" y="0"/>
      <point x="295" y="0"/>
      <point x="345" y="0" type="curve"/>
      <point x="345" y="114"/>
      <point x="345" y="0"/>
    </contour>
    <contour>
      <point x="423" y="0" type="curve"/>
      <point x="423" y="237"/>
      <point x="423" y="473"/>
      <point x="423" y="710" type="curve"/>
      <point x="271" y="710"/>
      <point x="423" y="710"/>
      <point x="271" y="710" type="curve"/>
      <point x="270" y="473"/>
      <point x="271" y="237"/>
      <point x="271" y="0" type="curve"/>
      <point x="423" y="0"/>
      <point x="271" y="0"/>
    </contour>
    <contour>
      <point x="24" y="601" type="curve"/>
      <point x="238" y="601"/>
      <point x="454" y="601"/>
      <point x="669" y="601" type="curve"/>
      <point x="669" y="727"/>
      <point x="669" y="596"/>
      <point x="669" y="722" type="curve"/>
      <point x="454" y="722"/>
      <point x="238" y="722"/>
      <point x="24" y="722" type="curve"/>
      <point x="24" y="596"/>
      <point x="24" y="727"/>
    </contour>
    <contour>
      <point x="445" y="946" type="line"/>
      <point x="284" y="780" type="line"/>
      <point x="477" y="780" type="line"/>
      <point x="592" y="946" type="line"/>
    </contour>
    <contour>
      <point x="101" y="946" type="line"/>
      <point x="219" y="780" type="line"/>
      <point x="412" y="780" type="line"/>
      <point x="250" y="946" type="line"/>
    </contour>
  </outline>
</glyph>
<glyph name="Uring" format="1">
  <advance width="911"/>
  <unicode hex="016E"/>
  <outline>
    <contour>
      <point x="717" y="608" type="curve"/>
      <point x="867" y="608"/>
      <point x="717" y="608"/>
      <point x="867" y="608" type="curve"/>
      <point x="867" y="722"/>
      <point x="867" y="608"/>
      <point x="867" y="722" type="curve"/>
      <point x="818" y="722"/>
      <point x="767" y="722"/>
      <point x="717" y="722" type="curve"/>
      <point x="717" y="608"/>
      <point x="717" y="722"/>
    </contour>
    <contour>
      <point x="717" y="722" type="curve"/>
      <point x="667" y="722"/>
      <point x="617" y="722"/>
      <point x="568" y="722" type="curve"/>
      <point x="568" y="608"/>
      <point x="568" y="722"/>
      <point x="568" y="608" type="curve"/>
      <point x="717" y="608"/>
      <point x="568" y="608"/>
      <point x="717" y="608" type="curve"/>
      <point x="717" y="722"/>
      <point x="717" y="608"/>
    </contour>
    <contour>
      <point x="196" y="722" type="curve"/>
      <point x="146" y="722"/>
      <point x="96" y="722"/>
      <point x="47" y="722" type="curve"/>
      <point x="46" y="608"/>
      <point x="47" y="722"/>
      <point x="46" y="608" type="curve"/>
      <point x="196" y="608"/>
      <point x="46" y="608"/>
      <point x="196" y="608" type="curve"/>
      <point x="196" y="722"/>
      <point x="196" y="608"/>
    </contour>
    <contour>
      <point x="196" y="608" type="curve"/>
      <point x="346" y="608"/>
      <point x="196" y="608"/>
      <point x="346" y="608" type="curve"/>
      <point x="346" y="722"/>
      <point x="346" y="608"/>
      <point x="346" y="722" type="curve"/>
      <point x="297" y="722"/>
      <point x="247" y="722"/>
      <point x="196" y="722" type="curve"/>
      <point x="196" y="608"/>
      <point x="196" y="722"/>
    </contour>
    <contour>
      <point x="125" y="673" type="curve"/>
      <point x="125" y="540"/>
      <point x="125" y="412"/>
      <point x="125" y="278" type="curve"/>
      <point x="125" y="79"/>
      <point x="243" y="-5"/>
      <point x="452" y="-5" type="curve"/>
      <point x="666" y="-5"/>
      <point x="786" y="85"/>
      <point x="786" y="291" type="curve"/>
      <point x="786" y="420"/>
      <point x="786" y="544"/>
      <point x="786" y="673" type="curve"/>
      <point x="648" y="673"/>
      <point x="786" y="673"/>
      <point x="648" y="673" type="curve"/>
      <point x="648" y="537"/>
      <point x="648" y="413"/>
      <point x="648" y="277" type="curve"/>
      <point x="648" y="169"/>
      <point x="579" y="121"/>
      <point x="464" y="121" type="curve"/>
      <point x="334" y="121"/>
      <point x="264" y="174"/>
      <point x="264" y="300" type="curve"/>
      <point x="264" y="426"/>
      <point x="264" y="548"/>
      <point x="264" y="673" type="curve"/>
      <point x="125" y="673"/>
      <point x="264" y="673"/>
    </contour>
    <contour>
      <point x="280" y="926" type="curve"/>
      <point x="280" y="828"/>
      <point x="355" y="777"/>
      <point x="458" y="777" type="curve"/>
      <point x="564" y="777"/>
      <point x="640" y="827"/>
      <point x="640" y="926" type="curve"/>
      <point x="640" y="1026"/>
      <point x="563" y="1075"/>
      <point x="456" y="1075" type="curve"/>
      <point x="353" y="1075"/>
      <point x="280" y="1024"/>
      <point x="280" y="926" type="curve"/>
      <point x="410" y="926"/>
      <point x="275" y="926"/>
      <point x="404" y="926" type="curve"/>
      <point x="404" y="958"/>
      <point x="423" y="976"/>
      <point x="456" y="976" type="curve"/>
      <point x="491" y="976"/>
      <point x="512" y="962"/>
      <point x="512" y="926" type="curve"/>
      <point x="512" y="892"/>
      <point x="493" y="876"/>
      <point x="458" y="876" type="curve"/>
      <point x="424" y="876"/>
      <point x="404" y="893"/>
      <point x="404" y="926" type="curve"/>
      <point x="275" y="926"/>
      <point x="410" y="926"/>
    </contour>
  </outline>
</glyph>
<glyph name="Uogonek" format="1">
  <advance width="911"/>
  <unicode hex="0172"/>
  <outline>
    <contour>
      <point x="718" y="608" type="curve"/>
      <point x="868" y="608"/>
      <point x="718" y="608"/>
      <point x="868" y="608" type="curve"/>
      <point x="868" y="722"/>
      <point x="868" y="608"/>
      <point x="868" y="722" type="curve"/>
      <point x="819" y="722"/>
      <point x="768" y="722"/>
      <point x="718" y="722" type="curve"/>
      <point x="718" y="608"/>
      <point x="718" y="722"/>
    </contour>
    <contour>
      <point x="718" y="722" type="curve"/>
      <point x="668" y="722"/>
      <point x="618" y="722"/>
      <point x="569" y="722" type="curve"/>
      <point x="569" y="608"/>
      <point x="569" y="722"/>
      <point x="569" y="608" type="curve"/>
      <point x="718" y="608"/>
      <point x="569" y="608"/>
      <point x="718" y="608" type="curve"/>
      <point x="718" y="722"/>
      <point x="718" y="608"/>
    </contour>
    <contour>
      <point x="197" y="722" type="curve"/>
      <point x="147" y="722"/>
      <point x="97" y="722"/>
      <point x="48" y="722" type="curve"/>
      <point x="47" y="608"/>
      <point x="48" y="722"/>
      <point x="47" y="608" type="curve"/>
      <point x="197" y="608"/>
      <point x="47" y="608"/>
      <point x="197" y="608" type="curve"/>
      <point x="197" y="722"/>
      <point x="197" y="608"/>
    </contour>
    <contour>
      <point x="197" y="608" type="curve"/>
      <point x="347" y="608"/>
      <point x="197" y="608"/>
      <point x="347" y="608" type="curve"/>
      <point x="347" y="722"/>
      <point x="347" y="608"/>
      <point x="347" y="722" type="curve"/>
      <point x="298" y="722"/>
      <point x="248" y="722"/>
      <point x="197" y="722" type="curve"/>
      <point x="197" y="608"/>
      <point x="197" y="722"/>
    </contour>
    <contour>
      <point x="126" y="673" type="curve"/>
      <point x="126" y="540"/>
      <point x="126" y="412"/>
      <point x="126" y="278" type="curve"/>
      <point x="126" y="79"/>
      <point x="244" y="-5"/>
      <point x="453" y="-5" type="curve"/>
      <point x="667" y="-5"/>
      <point x="787" y="85"/>
      <point x="787" y="291" type="curve"/>
      <point x="787" y="420"/>
      <point x="787" y="544"/>
      <point x="787" y="673" type="curve"/>
      <point x="649" y="673"/>
      <point x="787" y="673"/>
      <point x="649" y="673" type="curve"/>
      <point x="649" y="537"/>
      <point x="649" y="413"/>
      <point x="649" y="277" type="curve"/>
      <point x="649" y="169"/>
      <point x="580" y="121"/>
      <point x="465" y="121" type="curve"/>
      <point x="335" y="121"/>
      <point x="265" y="174"/>
      <point x="265" y="300" type="curve"/>
      <point x="265" y="426"/>
      <point x="265" y="548"/>
      <point x="265" y="673" type="curve"/>
      <point x="126" y="673"/>
      <point x="265" y="673"/>
    </contour>
    <contour>
      <point x="472" y="87" type="curve"/>
      <point x="395" y="56"/>
      <point x="323" y="35"/>
      <point x="323" y="-46" type="curve"/>
      <point x="323" y="-129"/>
      <point x="382" y="-175"/>
      <point x="469" y="-175" type="curve"/>
      <point x="515" y="-175"/>
      <point x="545" y="-163"/>
      <point x="585" y="-142" type="curve"/>
      <point x="516" y="-51"/>
      <point x="585" y="-142"/>
      <point x="516" y="-51" type="curve"/>
      <point x="503" y="-57"/>
      <point x="494" y="-64"/>
      <point x="481" y="-64" type="curve"/>
      <point x="467" y="-64"/>
      <point x="457" y="-57"/>
      <point x="457" y="-44" type="curve"/>
      <point x="457" y="-13"/>
      <point x="496" y="-8"/>
      <point x="528" y="8" type="curve"/>
      <point x="472" y="87"/>
      <point x="528" y="8"/>
    </contour>
  </outline>
</glyph>
<glyph name="Ydieresis" format="1">
  <advance width="687"/>
  <unicode hex="0178"/>
  <outline>
    <contour>
      <point x="340" y="114" type="curve"/>
      <point x="189" y="114"/>
      <point x="340" y="114"/>
      <point x="189" y="114" type="curve"/>
      <point x="189" y="0"/>
      <point x="189" y="114"/>
      <point x="189" y="0" type="curve"/>
      <point x="239" y="0"/>
      <point x="290" y="0"/>
      <point x="340" y="0" type="curve"/>
      <point x="340" y="114"/>
      <point x="340" y="0"/>
    </contour>
    <contour>
      <point x="340" y="0" type="curve"/>
      <point x="391" y="0"/>
      <point x="441" y="0"/>
      <point x="492" y="0" type="curve"/>
      <point x="492" y="114"/>
      <point x="492" y="0"/>
      <point x="492" y="114" type="curve"/>
      <point x="340" y="114"/>
      <point x="492" y="114"/>
      <point x="340" y="114" type="curve"/>
      <point x="340" y="0"/>
      <point x="340" y="114"/>
    </contour>
    <contour>
      <point x="543" y="722" type="curve"/>
      <point x="495" y="722"/>
      <point x="446" y="722"/>
      <point x="397" y="722" type="curve"/>
      <point x="397" y="608"/>
      <point x="397" y="722"/>
      <point x="397" y="608" type="curve"/>
      <point x="543" y="608"/>
      <point x="397" y="608"/>
      <point x="543" y="608" type="curve"/>
      <point x="543" y="722"/>
      <point x="543" y="608"/>
    </contour>
    <contour>
      <point x="140" y="722" type="curve"/>
      <point x="99" y="722"/>
      <point x="58" y="722"/>
      <point x="17" y="722" type="curve"/>
      <point x="16" y="608"/>
      <point x="17" y="722"/>
      <point x="16" y="608" type="curve"/>
      <point x="140" y="608"/>
      <point x="16" y="608"/>
      <point x="140" y="608" type="curve"/>
      <point x="140" y="722"/>
      <point x="140" y="608"/>
    </contour>
    <contour>
      <point x="149" y="608" type="curve"/>
      <point x="296" y="608"/>
      <point x="149" y="608"/>
      <point x="296" y="608" type="curve"/>
      <point x="296" y="722"/>
      <point x="296" y="608"/>
      <point x="296" y="722" type="curve"/>
      <point x="247" y="722"/>
      <point x="198" y="722"/>
      <point x="149" y="722" type="curve"/>
      <point x="149" y="608"/>
      <point x="149" y="722"/>
    </contour>
    <contour>
      <point x="553" y="608" type="curve"/>
      <point x="679" y="608"/>
      <point x="553" y="608"/>
      <point x="679" y="608" type="curve"/>
      <point x="679" y="722"/>
      <point x="679" y="608"/>
      <point x="679" y="722" type="curve"/>
      <point x="638" y="722"/>
      <point x="595" y="722"/>
      <point x="553" y="722" type="curve"/>
      <point x="553" y="608"/>
      <point x="553" y="722"/>
    </contour>
    <contour>
      <point x="36" y="700" type="curve"/>
      <point x="112" y="579"/>
      <point x="186" y="459"/>
      <point x="261" y="337" type="curve"/>
      <point x="415" y="337"/>
      <point x="250" y="337"/>
      <point x="404" y="337" type="curve"/>
      <point x="327" y="467"/>
      <point x="252" y="593"/>
      <point x="173" y="722" type="curve"/>
      <point x="36" y="722"/>
      <point x="173" y="700"/>
    </contour>
    <contour>
      <point x="522" y="722" type="curve"/>
      <point x="437" y="592"/>
      <point x="356" y="467"/>
      <point x="272" y="337" type="curve"/>
      <point x="426" y="337"/>
      <point x="266" y="337"/>
      <point x="420" y="337" type="curve"/>
      <point x="500" y="460"/>
      <point x="578" y="580"/>
      <point x="659" y="701" type="curve"/>
      <point x="522" y="701"/>
      <point x="659" y="722"/>
    </contour>
    <contour>
      <point x="424" y="0" type="curve"/>
      <point x="424" y="115"/>
      <point x="424" y="227"/>
      <point x="424" y="342" type="curve"/>
      <point x="257" y="342"/>
      <point x="424" y="342"/>
      <point x="257" y="342" type="curve"/>
      <point x="257" y="227"/>
      <point x="257" y="115"/>
      <point x="257" y="0" type="curve"/>
      <point x="424" y="0"/>
      <point x="257" y="0"/>
    </contour>
    <contour>
      <point x="320" y="849" type="curve"/>
      <point x="320" y="899"/>
      <point x="284" y="923"/>
      <point x="234" y="923" type="curve"/>
      <point x="184" y="923"/>
      <point x="151" y="896"/>
      <point x="151" y="849" type="curve"/>
      <point x="320" y="849"/>
      <point x="151" y="849"/>
      <point x="320" y="849" type="curve"/>
      <point x="320" y="798"/>
      <point x="284" y="776"/>
      <point x="234" y="776" type="curve"/>
      <point x="184" y="776"/>
      <point x="151" y="800"/>
      <point x="151" y="849" type="curve"/>
      <point x="320" y="849"/>
      <point x="151" y="849"/>
    </contour>
    <contour>
      <point x="542" y="849" type="curve"/>
      <point x="542" y="899"/>
      <point x="506" y="923"/>
      <point x="456" y="923" type="curve"/>
      <point x="406" y="923"/>
      <point x="372" y="896"/>
      <point x="372" y="849" type="curve"/>
      <point x="542" y="849"/>
      <point x="372" y="849"/>
      <point x="542" y="849" type="curve"/>
      <point x="542" y="798"/>
      <point x="506" y="776"/>
      <point x="455" y="776" type="curve"/>
      <point x="405" y="776"/>
      <point x="372" y="800"/>
      <point x="372" y="849" type="curve"/>
      <point x="542" y="849"/>
      <point x="372" y="849"/>
    </contour>
  </outline>
</glyph>
<glyph name="Zdotaccent" format="1">
  <advance width="756"/>
  <unicode hex="017B"/>
  <outline>
    <contour>
      <point x="71" y="665" type="curve"/>
      <point x="71" y="545"/>
      <point x="71" y="665"/>
      <point x="71" y="545" type="curve"/>
      <point x="188" y="545"/>
      <point x="71" y="545"/>
      <point x="188" y="545" type="curve"/>
      <point x="188" y="665"/>
      <point x="188" y="545"/>
      <point x="188" y="665" type="curve"/>
      <point x="71" y="665"/>
      <point x="188" y="665"/>
    </contour>
    <contour>
      <point x="703" y="57" type="curve"/>
      <point x="703" y="177"/>
      <point x="703" y="57"/>
      <point x="703" y="177" type="curve"/>
      <point x="585" y="177"/>
      <point x="703" y="177"/>
      <point x="585" y="177" type="curve"/>
      <point x="585" y="57"/>
      <point x="585" y="177"/>
      <point x="585" y="57" type="curve"/>
      <point x="703" y="57"/>
      <point x="585" y="57"/>
    </contour>
    <contour>
      <point x="71" y="608" type="curve"/>
      <point x="237" y="608"/>
      <point x="460" y="608"/>
      <point x="627" y="608" type="curve"/>
      <point x="615" y="620"/>
      <point x="594" y="616"/>
      <point x="582" y="628" type="curve"/>
      <point x="573" y="639"/>
      <point x="571" y="655"/>
      <point x="562" y="666" type="curve"/>
      <point x="554" y="656"/>
      <point x="538" y="666"/>
      <point x="530" y="656" type="curve"/>
      <point x="35" y="114" type="line"/>
      <point x="35" y="56"/>
      <point x="35" y="114"/>
      <point x="35" y="56" type="curve"/>
      <point x="35" y="0"/>
      <point x="35" y="56"/>
      <point x="35" y="0" type="curve"/>
      <point x="90" y="0"/>
      <point x="35" y="0"/>
      <point x="90" y="0" type="curve"/>
      <point x="688" y="0"/>
      <point x="503" y="0"/>
      <point x="703" y="0" type="curve"/>
      <point x="703" y="114"/>
      <point x="703" y="0"/>
      <point x="703" y="114" type="curve"/>
      <point x="503" y="114"/>
      <point x="289" y="114"/>
      <point x="90" y="114" type="curve"/>
      <point x="101" y="105"/>
      <point x="118" y="106"/>
      <point x="129" y="98" type="curve"/>
      <point x="139" y="86"/>
      <point x="142" y="68"/>
      <point x="153" y="56" type="curve"/>
      <point x="163" y="67"/>
      <point x="185" y="55"/>
      <point x="196" y="66" type="curve"/>
      <point x="692" y="608" type="line"/>
      <point x="692" y="666"/>
      <point x="692" y="608"/>
      <point x="692" y="666" type="curve"/>
      <point x="692" y="722"/>
      <point x="692" y="666"/>
      <point x="692" y="722" type="curve"/>
      <point x="616" y="722"/>
      <point x="692" y="722"/>
      <point x="616" y="722" type="curve"/>
      <point x="452" y="722"/>
      <point x="234" y="722"/>
      <point x="71" y="722" type="curve"/>
      <point x="71" y="608"/>
      <point x="71" y="722"/>
    </contour>
    <contour>
      <point x="457" y="845" type="curve"/>
      <point x="457" y="895"/>
      <point x="421" y="919"/>
      <point x="371" y="919" type="curve"/>
      <point x="321" y="919"/>
      <point x="288" y="893"/>
      <point x="288" y="845" type="curve"/>
      <point x="457" y="845"/>
      <point x="288" y="845"/>
      <point x="457" y="845" type="curve"/>
      <point x="457" y="794"/>
      <point x="421" y="772"/>
      <point x="371" y="772" type="curve"/>
      <point x="320" y="772"/>
      <point x="288" y="797"/>
      <point x="288" y="845" type="curve"/>
      <point x="457" y="845"/>
      <point x="288" y="845"/>
    </contour>
  </outline>
</glyph>
<glyph name="scommaaccent" format="1">
  <advance width="576"/>
  <unicode hex="0219"/>
  <outline>
    <contour>
      <point x="56" y="46" type="curve"/>
      <point x="136" y="14"/>
      <point x="201" y="-5"/>
      <point x="284" y="-5" type="curve"/>
      <point x="427" y="-5"/>
      <point x="534" y="38"/>
      <point x="534" y="163" type="curve"/>
      <point x="534" y="278"/>
      <point x="430" y="297"/>
      <point x="306" y="329" type="curve"/>
      <point x="251" y="342"/>
      <point x="197" y="354"/>
      <point x="197" y="387" type="curve"/>
      <point x="197" y="409"/>
      <point x="232" y="422"/>
      <point x="275" y="422" type="curve"/>
      <point x="322" y="422"/>
      <point x="380" y="406"/>
      <point x="412" y="390" type="curve"/>
      <point x="481" y="493"/>
      <point x="412" y="390"/>
      <point x="481" y="493" type="curve"/>
      <point x="435" y="517"/>
      <point x="349" y="538"/>
      <point x="280" y="538" type="curve"/>
      <point x="152" y="538"/>
      <point x="59" y="497"/>
      <point x="59" y="387" type="curve"/>
      <point x="59" y="282"/>
      <point x="143" y="248"/>
      <point x="257" y="219" type="curve"/>
      <point x="321" y="203"/>
      <point x="388" y="195"/>
      <point x="388" y="157" type="curve"/>
      <point x="388" y="129"/>
      <point x="347" y="113"/>
      <point x="300" y="113" type="curve"/>
      <point x="236" y="113"/>
      <point x="193" y="125"/>
      <point x="133" y="149" type="curve"/>
      <point x="56" y="46"/>
      <point x="133" y="149"/>
    </contour>
    <contour>
      <point x="363" y="493" type="curve"/>
      <point x="363" y="367"/>
      <point x="363" y="483"/>
      <point x="363" y="358" type="curve"/>
      <point x="481" y="358"/>
      <point x="363" y="358"/>
      <point x="481" y="358" type="curve"/>
      <point x="481" y="483"/>
      <point x="481" y="367"/>
      <point x="481" y="493" type="curve"/>
      <point x="363" y="493"/>
      <point x="481" y="493"/>
    </contour>
    <contour>
      <point x="172" y="46" type="curve"/>
      <point x="172" y="174"/>
      <point x="172" y="61"/>
      <point x="172" y="188" type="curve"/>
      <point x="54" y="188"/>
      <point x="172" y="188"/>
      <point x="54" y="188" type="curve"/>
      <point x="54" y="61"/>
      <point x="54" y="174"/>
      <point x="54" y="46" type="curve"/>
      <point x="172" y="46"/>
      <point x="54" y="46"/>
    </contour>
    <contour>
      <point x="203" y="-396" type="line"/>
      <point x="314" y="-396"/>
      <point x="390" y="-324"/>
      <point x="390" y="-215" type="curve"/>
      <point x="390" y="-130"/>
      <point x="351" y="-74"/>
      <point x="292" y="-74" type="curve"/>
      <point x="243" y="-74"/>
      <point x="209" y="-100"/>
      <point x="209" y="-148" type="curve"/>
      <point x="209" y="-194"/>
      <point x="241" y="-222"/>
      <point x="290" y="-222" type="curve"/>
      <point x="289" y="-260"/>
      <point x="277" y="-306"/>
      <point x="203" y="-316" type="curve"/>
    </contour>
  </outline>
</glyph>
<glyph name="caron" format="1">
  <advance width="622"/>
  <unicode hex="02C7"/>
  <outline>
    <contour>
      <point x="295" y="565" type="move" name="_top"/>
    </contour>
    <contour>
      <point x="396" y="731" type="line"/>
      <point x="235" y="565" type="line"/>
      <point x="428" y="565" type="line"/>
      <point x="544" y="731" type="line"/>
    </contour>
    <contour>
      <point x="52" y="731" type="line"/>
      <point x="170" y="565" type="line"/>
      <point x="363" y="565" type="line"/>
      <point x="202" y="731" type="line"/>
    </contour>
  </outline>
</glyph>
<glyph name="dotaccent" format="1">
  <advance width="451"/>
  <unicode hex="02D9"/>
  <outline>
    <contour>
      <point x="227" y="544" type="move" name="_top"/>
    </contour>
    <contour>
      <point x="313" y="616" type="curve"/>
      <point x="313" y="666"/>
      <point x="276" y="690"/>
      <point x="227" y="690" type="curve"/>
      <point x="177" y="690"/>
      <point x="143" y="664"/>
      <point x="143" y="616" type="curve"/>
      <point x="313" y="616"/>
      <point x="143" y="616"/>
      <point x="313" y="616" type="curve"/>
      <point x="313" y="565"/>
      <point x="277" y="543"/>
      <point x="226" y="543" type="curve"/>
      <point x="176" y="543"/>
      <point x="143" y="567"/>
      <point x="143" y="616" type="curve"/>
      <point x="313" y="616"/>
      <point x="143" y="616"/>
    </contour>
  </outline>
</glyph>
<glyph name="tilde" format="1">
  <advance width="619"/>
  <unicode hex="02DC"/>
  <outline>
    <contour>
      <point x="215" y="521" type="move" name="_top"/>
    </contour>
    <contour>
      <point x="353" y="706" type="curve"/>
      <point x="339" y="671"/>
      <point x="322" y="649"/>
      <point x="299" y="649" type="curve"/>
      <point x="268" y="649"/>
      <point x="252" y="657"/>
      <point x="228" y="675" type="curve" smooth="yes"/>
      <point x="191" y="703"/>
      <point x="165" y="714"/>
      <point x="122" y="714" type="curve"/>
      <point x="41" y="714"/>
      <point x="-6" y="657"/>
      <point x="-36" y="577" type="curve"/>
      <point x="76" y="519"/>
      <point x="-35" y="577"/>
      <point x="77" y="519" type="curve"/>
      <point x="96" y="562"/>
      <point x="114" y="579"/>
      <point x="139" y="579" type="curve"/>
      <point x="167" y="579"/>
      <point x="181" y="569"/>
      <point x="202" y="553" type="curve" smooth="yes"/>
      <point x="243" y="523"/>
      <point x="269" y="512"/>
      <point x="317" y="512" type="curve"/>
      <point x="400" y="512"/>
      <point x="442" y="569"/>
      <point x="473" y="650" type="curve"/>
      <point x="354" y="706"/>
      <point x="472" y="649"/>
    </contour>
  </outline>
</glyph>
<glyph name="hungarumlaut" format="1">
  <advance width="616"/>
  <unicode hex="02DD"/>
  <outline>
    <contour>
      <point x="246" y="581" type="move" name="_top"/>
    </contour>
    <contour>
      <point x="179" y="582" type="line"/>
      <point x="341" y="748" type="line"/>
      <point x="148" y="748" type="line"/>
      <point x="32" y="582" type="line"/>
    </contour>
    <contour>
      <point x="417" y="582" type="line"/>
      <point x="578" y="748" type="line"/>
      <point x="385" y="748" type="line"/>
      <point x="269" y="582" type="line"/>
    </contour>
  </outline>
</glyph>
<glyph name="dvAnusvara" format="1">
  <advance width="0"/>
  <unicode hex="0902"/>
  <outline>
    <contour>
      <point x="-71" y="756" type="move" name="_abvm.e"/>
    </contour>
    <contour>
      <point x="-72" y="934" type="curve"/>
      <point x="-72" y="981"/>
      <point x="-107" y="1008"/>
      <point x="-157" y="1008" type="curve"/>
      <point x="-208" y="1008"/>
      <point x="-242" y="978"/>
      <point x="-242" y="934" type="curve"/>
      <point x="-110" y="934"/>
      <point x="-204" y="934"/>
      <point x="-72" y="934" type="curve"/>
      <point x="-72" y="883"/>
      <point x="-107" y="859"/>
      <point x="-157" y="859" type="curve"/>
      <point x="-208" y="859"/>
      <point x="-242" y="886"/>
      <point x="-242" y="934" type="curve"/>
      <point x="-110" y="934"/>
      <point x="-204" y="934"/>
    </contour>
  </outline>
</glyph>
<glyph name="dvA" format="1">
  <advance width="859"/>
  <unicode hex="0905"/>
  <outline>
    <contour>
      <point x="642" y="451" type="line"/>
      <point x="623" y="410"/>
      <point x="586" y="389"/>
      <point x="537" y="389" type="curve" smooth="yes"/>
      <point x="478" y="389"/>
      <point x="439" y="413"/>
      <point x="386" y="444" type="curve"/>
      <point x="323" y="369" type="line"/>
      <point x="388" y="320"/>
      <point x="451" y="282"/>
      <point x="539" y="282" type="curve" smooth="yes"/>
      <point x="633" y="282"/>
      <point x="696" y="333"/>
      <point x="731" y="407" type="curve"/>
    </contour>
    <component base="dvA_base"/>
    <component base="dvStem" xOffset="504"/>
  </outline>
</glyph>
<glyph name="dvTTA" format="1">
  <advance width="637"/>
  <unicode hex="091F"/>
  <outline>
    <contour>
      <point x="469" y="-13" type="move" name="blwm.virama"/>
    </contour>
    <contour>
      <point x="466" y="718" type="move" name="abvm.e"/>
    </contour>
    <contour>
      <point x="501" y="-99" type="move" name="blwm.u"/>
    </contour>
    <contour>
      <point x="316" y="520" type="curve"/>
      <point x="313" y="520"/>
      <point x="311" y="520"/>
      <point x="308" y="520" type="curve"/>
      <point x="155" y="520"/>
      <point x="63" y="430"/>
      <point x="63" y="281" type="curve"/>
      <point x="63" y="114"/>
      <point x="182" y="30"/>
      <point x="343" y="30" type="curve"/>
      <point x="439" y="30"/>
      <point x="523" y="56"/>
      <point x="597" y="118" type="curve"/>
      <point x="523" y="203" type="line"/>
      <point x="466" y="164"/>
      <point x="412" y="144"/>
      <point x="352" y="144" type="curve"/>
      <point x="270" y="144"/>
      <point x="213" y="191"/>
      <point x="213" y="281" type="curve"/>
      <point x="213" y="367"/>
      <point x="270" y="406"/>
      <point x="349" y="406" type="curve"/>
      <point x="392" y="406"/>
      <point x="425" y="406"/>
      <point x="468" y="406" type="curve"/>
      <point x="358" y="487"/>
      <point x="425" y="439"/>
    </contour>
    <contour>
      <point x="657" y="722" type="curve"/>
      <point x="431" y="722"/>
      <point x="205" y="722"/>
      <point x="-20" y="722" type="curve"/>
      <point x="-20" y="602"/>
      <point x="-20" y="722"/>
      <point x="-20" y="602" type="curve"/>
      <point x="205" y="602"/>
      <point x="431" y="602"/>
      <point x="657" y="602" type="curve"/>
      <point x="657" y="722"/>
      <point x="657" y="602"/>
    </contour>
    <contour>
      <point x="316" y="664" type="curve"/>
      <point x="316" y="616"/>
      <point x="316" y="568"/>
      <point x="316" y="520" type="curve"/>
      <point x="468" y="406"/>
      <point x="316" y="520"/>
      <point x="468" y="406" type="curve"/>
      <point x="468" y="492"/>
      <point x="468" y="578"/>
      <point x="468" y="664" type="curve"/>
      <point x="316" y="664"/>
      <point x="468" y="664"/>
    </contour>
  </outline>
</glyph>
<glyph name="dvPHA" format="1">
  <advance width="810"/>
  <unicode hex="092B"/>
  <outline>
    <contour>
      <point x="609" y="0" type="move" name="blwm.virama"/>
    </contour>
    <contour>
      <point x="609" y="723" type="move" name="abvm.e"/>
    </contour>
    <contour>
      <point x="609" y="0" type="move" name="blwm.u"/>
    </contour>
    <component base="dvTopbar" xScale="1.25124203996" xOffset="258"/>
    <component base="dvKA_right" xOffset="24" yOffset="-12"/>
    <component base="dvPA"/>
  </outline>
</glyph>
<glyph name="dvmvR" format="1">
  <advance width="0"/>
  <unicode hex="0943"/>
  <outline>
    <contour>
      <point x="-71" y="7" type="move" name="_blwm.u"/>
    </contour>
    <contour>
      <point x="-64" y="-151" type="line"/>
      <point x="-131" y="-151"/>
      <point x="-174" y="-119"/>
      <point x="-174" y="-70" type="curve"/>
      <point x="-174" y="-24"/>
      <point x="-138" y="5"/>
      <point x="-84" y="5" type="curve"/>
      <point x="-84" y="119" type="line"/>
      <point x="-222" y="119"/>
      <point x="-326" y="56"/>
      <point x="-326" y="-65" type="curve"/>
      <point x="-326" y="-193"/>
      <point x="-216" y="-265"/>
      <point x="-64" y="-265" type="curve"/>
    </contour>
  </outline>
</glyph>
<glyph name="dvKxA" format="1">
  <advance width="969"/>
  <unicode hex="0958"/>
  <outline>
    <contour>
      <point x="578" y="-36" type="move" name="blwm.virama"/>
    </contour>
    <contour>
      <point x="574" y="721" type="move" name="abvm.e"/>
    </contour>
    <contour>
      <point x="624" y="-147" type="move" name="blwm.u"/>
    </contour>
    <component base="dvKA"/>
    <component base="dvAnusvara" xOffset="410" yOffset="-994"/>
  </outline>
</glyph>
<glyph name="dvDDxA" format="1">
  <advance width="574"/>
  <unicode hex="095C"/>
  <outline>
    <contour>
      <point x="398" y="-300" type="move" name="blwm.virama"/>
    </contour>
    <contour>
      <point x="474" y="717" type="move" name="abvm.e"/>
    </contour>
    <contour>
      <point x="383" y="-383" type="move" name="blwm.u"/>
    </contour>
    <component base="dvDDA" xOffset="1"/>
    <component base="dvAnusvara" xOffset="465" yOffset="-1094"/>
  </outline>
</glyph>
<glyph name="trademark" format="1">
  <advance width="1050"/>
  <unicode hex="2122"/>
  <outline>
    <contour>
      <point x="50" y="675" type="curve"/>
      <point x="50" y="635"/>
      <point x="50" y="595"/>
      <point x="50" y="555" type="curve"/>
      <point x="161" y="555"/>
      <point x="50" y="555"/>
      <point x="161" y="555" type="curve"/>
      <point x="161" y="564"/>
      <point x="161" y="574"/>
      <point x="161" y="584" type="curve"/>
      <point x="50" y="675"/>
      <point x="161" y="584"/>
    </contour>
    <contour>
      <point x="376" y="584" type="curve"/>
      <point x="376" y="574"/>
      <point x="376" y="564"/>
      <point x="376" y="555" type="curve"/>
      <point x="487" y="555"/>
      <point x="376" y="555"/>
      <point x="487" y="555" type="curve"/>
      <point x="487" y="595"/>
      <point x="487" y="635"/>
      <point x="487" y="675" type="curve"/>
      <point x="376" y="584"/>
      <point x="487" y="675"/>
    </contour>
    <contour>
      <point x="211" y="251" type="curve"/>
      <point x="264" y="251"/>
      <point x="320" y="251"/>
      <point x="372" y="251" type="curve"/>
      <point x="372" y="343"/>
      <point x="372" y="251"/>
      <point x="372" y="343" type="curve"/>
      <point x="360" y="343"/>
      <point x="344" y="343"/>
      <point x="333" y="343" type="curve"/>
      <point x="211" y="251"/>
      <point x="333" y="343"/>
    </contour>
    <contour>
      <point x="333" y="343" type="curve"/>
      <point x="280" y="343"/>
      <point x="223" y="343"/>
      <point x="170" y="343" type="curve"/>
      <point x="170" y="251"/>
      <point x="170" y="343"/>
      <point x="170" y="251" type="curve"/>
      <point x="182" y="251"/>
      <point x="199" y="251"/>
      <point x="211" y="251" type="curve"/>
      <point x="333" y="343"/>
      <point x="211" y="251"/>
    </contour>
    <contour>
      <point x="333" y="343" type="curve"/>
      <point x="333" y="453"/>
      <point x="333" y="565"/>
      <point x="333" y="675" type="curve"/>
      <point x="211" y="584"/>
      <point x="333" y="675"/>
      <point x="211" y="584" type="curve"/>
      <point x="211" y="473"/>
      <point x="211" y="362"/>
      <point x="211" y="251" type="curve"/>
      <point x="333" y="343"/>
      <point x="211" y="251"/>
    </contour>
    <contour>
      <point x="161" y="584" type="curve"/>
      <point x="232" y="584"/>
      <point x="305" y="584"/>
      <point x="376" y="584" type="curve"/>
      <point x="487" y="675"/>
      <point x="376" y="584"/>
      <point x="487" y="675" type="curve"/>
      <point x="342" y="675"/>
      <point x="195" y="675"/>
      <point x="50" y="675" type="curve"/>
      <point x="161" y="584"/>
      <point x="50" y="675"/>
    </contour>
    <contour>
      <point x="830" y="251" type="curve"/>
      <point x="880" y="251"/>
      <point x="933" y="251"/>
      <point x="984" y="251" type="curve"/>
      <point x="984" y="343"/>
      <point x="984" y="251"/>
      <point x="984" y="343" type="curve"/>
      <point x="968" y="343"/>
      <point x="950" y="343"/>
      <point x="935" y="343" type="curve"/>
      <point x="830" y="251"/>
      <point x="935" y="343"/>
    </contour>
    <contour>
      <point x="935" y="343" type="curve"/>
      <point x="885" y="343"/>
      <point x="850" y="343"/>
      <point x="801" y="343" type="curve"/>
      <point x="801" y="251"/>
      <point x="801" y="343"/>
      <point x="801" y="251" type="curve"/>
      <point x="815" y="251"/>
      <point x="816" y="251"/>
      <point x="830" y="251" type="curve"/>
      <point x="935" y="343"/>
      <point x="830" y="251"/>
    </contour>
    <contour>
      <point x="505" y="343" type="curve"/>
      <point x="491" y="343"/>
      <point x="472" y="343"/>
      <point x="457" y="343" type="curve"/>
      <point x="457" y="251"/>
      <point x="457" y="343"/>
      <point x="457" y="251" type="curve"/>
      <point x="507" y="251"/>
      <point x="561" y="251"/>
      <point x="611" y="251" type="curve"/>
      <point x="505" y="343"/>
      <point x="611" y="251"/>
    </contour>
    <contour>
      <point x="666" y="675" type="curve"/>
      <point x="615" y="675"/>
      <point x="560" y="675"/>
      <point x="509" y="675" type="curve"/>
      <point x="509" y="584"/>
      <point x="509" y="675"/>
      <point x="509" y="584" type="curve"/>
      <point x="531" y="584"/>
      <point x="555" y="584"/>
      <point x="577" y="584" type="curve"/>
      <point x="666" y="675"/>
      <point x="577" y="584"/>
    </contour>
    <contour>
      <point x="857" y="584" type="curve"/>
      <point x="881" y="584"/>
      <point x="906" y="584"/>
      <point x="931" y="584" type="curve"/>
      <point x="931" y="675"/>
      <point x="931" y="584"/>
      <point x="931" y="675" type="curve"/>
      <point x="879" y="675"/>
      <point x="826" y="675"/>
      <point x="774" y="675" type="curve"/>
      <point x="857" y="584"/>
      <point x="774" y="675"/>
    </contour>
    <contour>
      <point x="611" y="251" type="curve"/>
      <point x="625" y="251"/>
      <point x="627" y="251"/>
      <point x="642" y="251" type="curve"/>
      <point x="642" y="343"/>
      <point x="642" y="251"/>
      <point x="642" y="343" type="curve"/>
      <point x="592" y="343"/>
      <point x="555" y="343"/>
      <point x="505" y="343" type="curve"/>
      <point x="611" y="251"/>
      <point x="505" y="343"/>
    </contour>
    <contour>
      <point x="935" y="343" type="curve"/>
      <point x="879" y="628" type="line"/>
      <point x="768" y="628"/>
      <point x="879" y="628"/>
      <point x="768" y="628" type="curve"/>
      <point x="790" y="503"/>
      <point x="808" y="377"/>
      <point x="830" y="251" type="curve"/>
      <point x="935" y="343"/>
      <point x="830" y="251"/>
    </contour>
    <contour>
      <point x="611" y="251" type="curve"/>
      <point x="632" y="377"/>
      <point x="648" y="503"/>
      <point x="669" y="628" type="curve"/>
      <point x="558" y="628"/>
      <point x="669" y="628"/>
      <point x="558" y="628" type="curve"/>
      <point x="542" y="533"/>
      <point x="522" y="438"/>
      <point x="505" y="343" type="curve"/>
      <point x="611" y="251"/>
      <point x="505" y="343"/>
    </contour>
    <contour>
      <point x="766" y="289" type="curve"/>
      <point x="731" y="417"/>
      <point x="701" y="546"/>
      <point x="666" y="675" type="curve"/>
      <point x="577" y="584"/>
      <point x="666" y="675"/>
      <point x="577" y="584" type="curve"/>
      <point x="604" y="486"/>
      <point x="645" y="386"/>
      <point x="672" y="289" type="curve"/>
      <point x="794" y="289"/>
      <point x="645" y="289"/>
    </contour>
    <contour>
      <point x="766" y="289" type="curve"/>
      <point x="792" y="386"/>
      <point x="831" y="486"/>
      <point x="857" y="584" type="curve"/>
      <point x="774" y="675"/>
      <point x="857" y="584"/>
      <point x="774" y="675" type="curve"/>
      <point x="738" y="546"/>
      <point x="708" y="418"/>
      <point x="672" y="289" type="curve"/>
      <point x="800" y="289"/>
      <point x="639" y="289"/>
    </contour>
  </outline>
</glyph>
<glyph name="minus" format="1">
  <advance width="739"/>
  <unicode hex="2212"/>
  <outline>
    <contour>
      <point x="76" y="252" type="line"/>
      <point x="663" y="252" type="line"/>
      <point x="663" y="377" type="line"/>
      <point x="76" y="377" type="line"/>
    </contour>
  </outline>
</glyph>
<glyph name="asciicircum" format="1">
  <advance width="609"/>
  <outline>
    <contour>
      <point x="198" y="452" type="curve"/>
      <point x="258" y="552"/>
      <point x="319" y="652"/>
      <point x="380" y="751" type="curve"/>
      <point x="228" y="751"/>
      <point x="380" y="751"/>
      <point x="228" y="751" type="curve"/>
      <point x="167" y="652"/>
      <point x="106" y="552"/>
      <point x="46" y="452" type="curve"/>
      <point x="198" y="452"/>
      <point x="46" y="452"/>
    </contour>
    <contour>
      <point x="563" y="452" type="curve"/>
      <point x="503" y="551"/>
      <point x="440" y="652"/>
      <point x="380" y="751" type="curve"/>
      <point x="228" y="751"/>
      <point x="380" y="751"/>
      <point x="228" y="751" type="curve"/>
      <point x="288" y="652"/>
      <point x="350" y="551"/>
      <point x="411" y="452" type="curve"/>
      <point x="563" y="452"/>
      <point x="411" y="452"/>
    </contour>
  </outline>
</glyph>
<glyph name="bulletoperator" format="1">
  <advance width="436"/>
  <outline>
    <contour>
      <point x="387" y="439" type="curve"/>
      <point x="387" y="539"/>
      <point x="314" y="587"/>
      <point x="215" y="587" type="curve"/>
      <point x="115" y="587"/>
      <point x="48" y="534"/>
      <point x="48" y="439" type="curve"/>
      <point x="387" y="439"/>
      <point x="48" y="439"/>
      <point x="387" y="439" type="curve"/>
      <point x="387" y="337"/>
      <point x="315" y="293"/>
      <point x="214" y="293" type="curve"/>
      <point x="114" y="293"/>
      <point x="48" y="342"/>
      <point x="48" y="439" type="curve"/>
      <point x="387" y="439"/>
      <point x="48" y="439"/>
    </contour>
  </outline>
</glyph>
<glyph name="commaaccent" format="1">
  <advance width="318"/>
  <outline>
    <contour>
      <point x="234" y="283" type="move" name="_bottom"/>
    </contour>
    <contour>
      <point x="117" y="-121" type="line"/>
      <point x="228" y="-121"/>
      <point x="304" y="-48"/>
      <point x="304" y="60" type="curve"/>
      <point x="304" y="145"/>
      <point x="264" y="201"/>
      <point x="206" y="201" type="curve"/>
      <point x="157" y="201"/>
      <point x="122" y="175"/>
      <point x="122" y="127" type="curve"/>
      <point x="122" y="81"/>
      <point x="154" y="54"/>
      <point x="203" y="54" type="curve"/>
      <point x="202" y="15"/>
      <point x="191" y="-31"/>
      <point x="117" y="-41" type="curve"/>
    </contour>
  </outline>
</glyph>
